<?xml version="1.0" encoding="utf-8"?>
<!-- Generator: Adobe Illustrator 19.2.1, SVG Export Plug-In . SVG Version: 6.00 Build 0)  -->
<svg version="1.1" id="Layer_1" xmlns="http://www.w3.org/2000/svg" xmlns:xlink="http://www.w3.org/1999/xlink" x="0px" y="0px"
	 viewBox="0 0 780 495" style="enable-background:new 0 0 780 495;" xml:space="preserve">
<style type="text/css">
	.st0{fill:#3389A7;}
	.st1{fill:url(#SVGID_1_);}
	.st2{fill:#FFFFFF;}
	.st3{font-family:'Lato-Bold';}
	.st4{font-size:23.8918px;}
	.st5{font-family:'Lato-Regular';}
	.st6{font-size:14px;}
	.st7{fill:#016938;}
	.st8{fill:url(#SVGID_2_);}
	.st9{fill:#C92B2C;}
	.st10{fill:url(#SVGID_3_);}
</style>
<g>
	<path class="st0" d="M180.5,322.4h597V173h-597V322.4z M776.4,173.9v147.5h-595V173.9H776.4z"/>
	
		<linearGradient id="SVGID_1_" gradientUnits="userSpaceOnUse" x1="444.2262" y1="-91.9438" x2="444.2262" y2="-297.8505" gradientTransform="matrix(4.489659e-11 -1 1 4.489659e-11 299.5222 691.9231)">
		<stop  offset="0" style="stop-color:#3389A7"/>
		<stop  offset="1" style="stop-color:#3DA7CD"/>
	</linearGradient>
	<polygon class="st1" points="181.4,173 207.6,247.7 181.4,322.4 35.3,322.4 1.7,322.4 1.7,247.7 1.7,173 35.3,173 	"/>
</g>
<text transform="matrix(1 0 0 1 28.1938 225.9705)"><tspan x="0" y="0" class="st2 st3 st4">Contract-</tspan><tspan x="0" y="28.7" class="st2 st3 st4">based co-</tspan><tspan x="0" y="57.3" class="st2 st3 st4">development</tspan></text>
<text transform="matrix(1 0 0 1 230.4028 207.7)"><tspan x="0" y="0" class="st5 st6">Contract of co-development as project representative of foreign companies in the US  </tspan><tspan x="0" y="22.5" class="st5 st6">Play a role as Developer</tspan><tspan x="0" y="45" class="st5 st6">Business development based on in-depth asset specific developmental knowledge</tspan><tspan x="0" y="67.5" class="st5 st6">Possible exit by incentive for successful out-licensing or sales partnering</tspan><tspan x="0" y="89.9" class="st5 st6">Additional equity investment </tspan></text>
<g>
	<path class="st7" d="M180.5,493h597V343.5h-597V493z M776.4,344.5V492h-595V344.5H776.4z"/>
	
		<linearGradient id="SVGID_2_" gradientUnits="userSpaceOnUse" x1="273.6813" y1="-91.9438" x2="273.6813" y2="-297.8505" gradientTransform="matrix(4.489659e-11 -1 1 4.489659e-11 299.5222 691.9231)">
		<stop  offset="0" style="stop-color:#016938"/>
		<stop  offset="1" style="stop-color:#009447"/>
	</linearGradient>
	<polygon class="st8" points="181.4,343.5 207.6,418.2 181.4,493 35.3,493 1.7,493 1.7,418.2 1.7,343.5 35.3,343.5 	"/>
</g>
<text transform="matrix(1 0 0 1 28.1938 396.5154)"><tspan x="0" y="0" class="st2 st3 st4">Add-on </tspan><tspan x="0" y="28.7" class="st2 st3 st4">value by</tspan><tspan x="0" y="57.3" class="st2 st3 st4">investment</tspan></text>
<text transform="matrix(1 0 0 1 230.4028 388.0838)"><tspan x="0" y="0" class="st5 st6">Equity investment for promising assets</tspan><tspan x="0" y="22.5" class="st5 st6">A bio/pharmaceutical company having early clinical staged assets</tspan><tspan x="0" y="45" class="st5 st6">Pursuing new drug for new big market</tspan><tspan x="0" y="67.5" class="st5 st6">Possible exit by IPO, O/L or M&amp;A of an invested company</tspan></text>
<g>
	<path class="st9" d="M180.5,152.9h597V3.4h-597V152.9z M776.4,4.4v147.5h-595V4.4H776.4z"/>
	
		<linearGradient id="SVGID_3_" gradientUnits="userSpaceOnUse" x1="613.7871" y1="-91.9438" x2="613.7871" y2="-297.8505" gradientTransform="matrix(4.489659e-11 -1 1 4.489659e-11 299.5222 691.9231)">
		<stop  offset="0" style="stop-color:#C02727"/>
		<stop  offset="1" style="stop-color:#D83435"/>
	</linearGradient>
	<polygon class="st10" points="181.4,3.4 207.6,78.1 181.4,152.9 35.3,152.9 1.7,152.9 1.7,78.1 1.7,3.4 35.3,3.4 	"/>
</g>
<text transform="matrix(1 0 0 1 28.1938 56.41)"><tspan x="0" y="0" class="st2 st3 st4">R&amp;D with</tspan><tspan x="0" y="28.7" class="st2 st3 st4">in-licensed</tspan><tspan x="0" y="57.3" class="st2 st3 st4">technology</tspan></text>
<text transform="matrix(1 0 0 1 230.4028 48.6785)"><tspan x="0" y="0" class="st5 st6">In-licensing from academic institutes</tspan><tspan x="0" y="22.5" class="st5 st6">Pre-clinical stage</tspan><tspan x="0" y="45" class="st5 st6">R&amp;D collaboration with leading bio/pharmaceuticals</tspan><tspan x="0" y="67.5" class="st5 st6">Possible exit by out-licensing</tspan></text>
</svg>
