<?xml version="1.0" encoding="utf-8"?>
<!-- Generator: Adobe Illustrator 19.2.1, SVG Export Plug-In . SVG Version: 6.00 Build 0)  -->
<svg version="1.1" id="Layer_1" xmlns="http://www.w3.org/2000/svg" xmlns:xlink="http://www.w3.org/1999/xlink" x="0px" y="0px"
	 viewBox="0 0 849 435" style="enable-background:new 0 0 849 435;" xml:space="preserve">
<style type="text/css">
	.st0{fill:#E6E7E8;}
	.st1{fill:#FFFFFF;}
	.st2{fill:none;}
	.st3{fill:#939598;}
	.st4{fill:#66676A;}
	.st5{fill:none;stroke:#BB3D2F;stroke-width:1.0027;stroke-linecap:round;stroke-linejoin:round;}
	.st6{fill:#BB3D2F;}
	.st7{font-family:'Lato-Bold';}
	.st8{font-size:14.7069px;}
	.st9{fill:#3288A7;}
	.st10{font-family:'Lato-Black';}
	.st11{fill:#414042;}
	.st12{font-family:'Lato-Regular';}
	.st13{font-size:22px;}
</style>
<g>
	<circle class="st0" cx="426.4" cy="176" r="173.5"/>
	<circle class="st1" cx="426.4" cy="176" r="104.1"/>
</g>
<path id="SVGID_x5F_1_x5F_" class="st2" d="M491.5,152.3c13.1,35.9-5.4,75.6-41.3,88.7c-35.9,13.1-75.6-5.4-88.7-41.3
	s5.4-75.6,41.3-88.7S478.3,116.4,491.5,152.3z"/>
<text><textPath  xlink:href="#SVGID_x5F_1_x5F_" startOffset="104.0753%">
<tspan  class="st6 st7" style="font-size:14.0384px; letter-spacing:-10;">CTO</tspan><tspan  class="st9 st7" style="font-size:22.8626px; letter-spacing:-10;">             </tspan><tspan  class="st6 st7" style="font-size:14.0384px; letter-spacing:-10;">RAC/Attorney</tspan><tspan  class="st9 st7" style="font-size:22.8626px; letter-spacing:-10;">       </tspan><tspan  class="st6 st7" style="font-size:14.0384px; letter-spacing:-10;">Medical Officer </tspan><tspan  class="st9 st7" style="font-size:22.8626px; letter-spacing:-10;">     </tspan><tspan  class="st6 st7" style="font-size:14.0384px; letter-spacing:-10;">CFO &amp; BD</tspan></textPath>
</text>
<rect x="20.2" y="379.7" class="st3" width="808.4" height="45.3"/>
<rect x="3" y="423" class="st4" width="843.5" height="4.6"/>
<g>
	<circle class="st4" cx="20.7" cy="425.2" r="6.6"/>
	<circle class="st1" cx="20.7" cy="425.2" r="4.1"/>
</g>
<g>
	<circle class="st4" cx="827.9" cy="425.2" r="6.6"/>
	<circle class="st1" cx="827.9" cy="425.2" r="4.1"/>
</g>
<path id="SVGID_x5F_2_x5F_" class="st2" d="M550.3,176c0,68.4-55.5,123.9-123.9,123.9S302.6,244.4,302.6,176S358,52.2,426.4,52.2
	S550.3,107.6,550.3,176z"/>
<text><textPath  xlink:href="#SVGID_x5F_2_x5F_" startOffset="105.7038%">
<tspan  class="st7" style="font-size:20.456px;">CMO</tspan><tspan  class="st7" style="font-size:24.5472px;">         </tspan><tspan  class="st7 st8">Protective Right</tspan><tspan  class="st7" style="font-size:24.5472px;">          </tspan><tspan  class="st7 st8">External resources</tspan><tspan  class="st7" style="font-size:24.5472px;">               </tspan><tspan  class="st7 st8">Sites</tspan><tspan  class="st7" style="font-size:24.5472px;">              </tspan><tspan  class="st7 st8">Finance</tspan><tspan  class="st7" style="font-size:24.5472px;">           </tspan><tspan  class="st7 st8">Advisory Board</tspan></textPath>
</text>
<path id="SVGID_x5F_3_x5F_" class="st2" d="M567.6,176c0,78-63.2,141.2-141.2,141.2S285.2,254,285.2,176S348.4,34.8,426.4,34.8
	S567.6,98,567.6,176z"/>
<text><textPath  xlink:href="#SVGID_x5F_3_x5F_" startOffset="105.7038%">
<tspan  class="st7" style="font-size:24.0659px;">                </tspan><tspan  class="st7" style="font-size:24.0659px; letter-spacing:-10;">  </tspan><tspan  class="st7" style="font-size:24.0659px; letter-spacing:25;">  </tspan><tspan  class="st7" style="font-size:24.0659px; letter-spacing:10;">   </tspan><tspan  class="st7 st8" style="letter-spacing:10;">Legal Framework</tspan><tspan  class="st7" style="font-size:24.0659px; letter-spacing:10;">                        </tspan><tspan  class="st7 st8" style="letter-spacing:10;">CRO</tspan><tspan  class="st7" style="font-size:24.0659px; letter-spacing:10;">                         </tspan><tspan  class="st7 st8" style="letter-spacing:10;">Clinical trial</tspan><tspan  class="st7" style="font-size:24.0659px; letter-spacing:10;">                                     </tspan><tspan  class="st7 st8" style="letter-spacing:10;">Scientific Medical</tspan></textPath>
</text>
<g>
	<g>
		<line class="st5" x1="426.6" y1="92.2" x2="454.4" y2="69.5"/>
		<g>
			<polygon class="st6" points="459.8,65.1 454.7,74.5 454,69.9 449.5,68.2 			"/>
		</g>
	</g>
</g>
<g>
	<g>
		<line class="st5" x1="426.6" y1="92.2" x2="391.2" y2="72.5"/>
		<g>
			<polygon class="st6" points="385,69.1 395.7,70.4 391.6,72.8 391.7,77.5 			"/>
		</g>
	</g>
</g>
<g>
	<g>
		<line class="st5" x1="340.9" y1="176" x2="317.2" y2="176"/>
		<g>
			<polygon class="st6" points="310.1,176 320.1,172 317.7,176 320.1,180.1 			"/>
		</g>
	</g>
</g>
<g>
	<g>
		<line class="st5" x1="413.8" y1="258.1" x2="370.9" y2="274.4"/>
		<g>
			<polygon class="st6" points="364.3,276.9 372.1,269.5 371.4,274.2 375,277.2 			"/>
		</g>
	</g>
</g>
<g>
	<g>
		<line class="st5" x1="413.8" y1="258.1" x2="444.6" y2="286.9"/>
		<g>
			<polygon class="st6" points="449.8,291.7 439.7,287.9 444.3,286.5 445.3,281.9 			"/>
		</g>
	</g>
</g>
<g>
	<g>
		<line class="st5" x1="507.3" y1="190.3" x2="517.3" y2="242.5"/>
		<g>
			<polygon class="st6" points="518.7,249.5 512.8,240.5 517.2,242 520.8,238.9 			"/>
		</g>
	</g>
</g>
<g>
	<g>
		<line class="st5" x1="507.3" y1="190.3" x2="534.8" y2="149.2"/>
		<g>
			<polygon class="st6" points="538.7,143.3 536.6,153.8 534.5,149.6 529.8,149.3 			"/>
		</g>
	</g>
</g>
<circle class="st6" cx="426.6" cy="176" r="49.6"/>
<g>
	<text transform="matrix(1 0 0 1 413.4424 171.489)"><tspan x="0" y="0" class="st1 st7 st8">Key</tspan><tspan x="-20.2" y="17.6" class="st1 st7 st8">Personnel</tspan></text>
</g>
<g>
	<g>
		<polygon class="st9" points="142.3,83 233.8,171.5 142.3,260 		"/>
		<polygon class="st9" points="21.3,194.7 21.3,148.2 160.3,132.8 160.3,210.2 		"/>
	</g>
</g>
<text transform="matrix(1 0 0 1 40.2383 168.1462)"><tspan x="0" y="0" class="st1 st10 st8">IN-LICENSING</tspan><tspan x="0" y="17.6" class="st1 st10 st8">OF CANDIDATES</tspan></text>
<g>
	<polygon class="st11" points="741,83 832.4,171.5 741,260 	"/>
	<polygon class="st11" points="620,194.7 620,148.2 759,132.8 759,210.2 	"/>
</g>
<text transform="matrix(1 0 0 1 638.8896 168.1462)"><tspan x="0" y="0" class="st1 st10 st8">EXIT BY</tspan><tspan x="0" y="17.6" class="st1 st10 st8">OUT-LICENSING</tspan></text>
<text transform="matrix(1 0 0 1 342.6641 409.112)" class="st1 st12 st13">DEVELOPMENT</text>
</svg>
