<?xml version="1.0" encoding="utf-8"?>
<!-- Generator: Adobe Illustrator 19.2.1, SVG Export Plug-In . SVG Version: 6.00 Build 0)  -->
<svg version="1.1" id="Layer_1" xmlns="http://www.w3.org/2000/svg" xmlns:xlink="http://www.w3.org/1999/xlink" x="0px" y="0px"
	 viewBox="0 0 1040 365" style="enable-background:new 0 0 1040 365;" xml:space="preserve">
<style type="text/css">
	.st0{fill:#3288A7;}
	.st1{fill:#FFFFFF;}
	.st2{font-family:'Lato-Black';}
	.st3{font-size:14px;}
	.st4{fill:#414042;}
	.st5{fill:#BB3D2F;}
	.st6{fill:#94AB30;}
	.st7{font-family:'Lato-Bold';}
	.st8{font-family:'Lato-Regular';}
	.st9{font-size:12px;}
	.st10{fill:#3EA7CD;}
	.st11{fill:#66676A;}
	.st12{fill:#F7941E;}
	.st13{fill:#006838;}
	.st14{fill:#EFEEEF;}
	.st15{fill:#009444;}
	.st16{fill:#E64C3C;}
	.st17{fill:#A9C238;}
</style>
<path class="st0" d="M132.6,328H18.3c-1.1,0-2-0.9-2-2v-22.8c0-1.1,0.9-2,2-2h114.3c1.1,0,2,0.9,2,2V326
	C134.6,327.1,133.7,328,132.6,328z"/>
<g>
	<text transform="matrix(1 0 0 1 23.7928 320.0132)" class="st1 st2 st3">IN-LICENSING</text>
</g>
<path class="st4" d="M901.1,328H780.8c-1.1,0-2-0.9-2-2v-22.8c0-1.1,0.9-2,2-2h120.3c1.1,0,2,0.9,2,2V326
	C903.1,327.1,902.2,328,901.1,328z"/>
<g>
	<text transform="matrix(1 0 0 1 786.3411 320.0132)" class="st1 st2 st3">OUT-LICENSING</text>
</g>
<path class="st5" d="M243.9,328h-37.3c-1.1,0-2-0.9-2-2v-22.8c0-1.1,0.9-2,2-2h37.3c1.1,0,2,0.9,2,2V326
	C245.9,327.1,245,328,243.9,328z"/>
<g>
	<text transform="matrix(1 0 0 1 212.1434 320.0132)" class="st1 st2 st3">IND</text>
</g>
<path class="st6" d="M409.8,328h-40.3c-1.1,0-2-0.9-2-2v-22.8c0-1.1,0.9-2,2-2h40.3c1.1,0,2,0.9,2,2V326
	C411.8,327.1,410.9,328,409.8,328z"/>
<g>
	<text transform="matrix(1 0 0 1 373.9854 320.0132)" class="st1 st2 st3">POC</text>
</g>
<text transform="matrix(1 0 0 1 32.8408 64.9888)"><tspan x="0" y="0" class="st0 st7 st3">Mining &amp; Evaluation</tspan><tspan x="0" y="16.8" class="st0 st7 st3">of solid candidates</tspan><tspan x="0" y="40.8" class="st0 st8 st9">- Late preclinical stage</tspan><tspan x="0" y="61.8" class="st0 st8 st9">- Gap analysis</tspan></text>
<rect x="21.3" y="255.1" class="st10" width="762.3" height="25.7"/>
<rect x="1.8" y="278.7" class="st11" width="818.6" height="4.7"/>
<g>
	<circle class="st11" cx="21.8" cy="281" r="6.8"/>
	<circle class="st1" cx="21.8" cy="281" r="4.1"/>
</g>
<g>
	<path class="st12" d="M1029.2,158.2H790.4c-5.5,0-10-4.5-10-10v-62c0-5.5,4.5-10,10-10h238.8c5.5,0,10,4.5,10,10v62
		C1039.2,153.7,1034.7,158.2,1029.2,158.2z"/>
	<g>
		<text transform="matrix(1 0 0 1 795.3105 102.1924)"><tspan x="0" y="0" class="st1 st2 st3">Clear exit strategy:</tspan><tspan x="0" y="21" class="st1 st8 st3">Out-licensing or co-developent plan </tspan><tspan x="0" y="37.8" class="st1 st8 st3">until completion of Phase II</tspan></text>
	</g>
</g>
<g>
	<circle class="st11" cx="783" cy="281" r="6.8"/>
	<circle class="st1" cx="783" cy="281" r="4.1"/>
</g>
<g>
	<rect x="21.3" y="52.1" class="st10" width="0.9" height="204.1"/>
	<polygon class="st10" points="22,62.3 22,52.1 12.5,52.1 	"/>
</g>
<path class="st13" d="M695.8,364H560.6c-1.1,0-2-0.9-2-2v-58.8c0-1.1,0.9-2,2-2h135.3c1.1,0,2,0.9,2,2V362
	C697.8,363.1,696.9,364,695.8,364z"/>
<g>
	<text transform="matrix(1 0 0 1 566.0607 320.0132)"><tspan x="0" y="0" class="st1 st2 st3">COMPLETION OF</tspan><tspan x="0" y="16.8" class="st1 st2 st3">CLINICLA TRIAL</tspan><tspan x="0" y="33.6" class="st1 st2 st3">PHASE II</tspan></text>
</g>
<g>
	<circle class="st11" cx="565.3" cy="281" r="6.8"/>
	<circle class="st14" cx="565.3" cy="281" r="4.1"/>
</g>
<text transform="matrix(1 0 0 1 575.8242 24.9888)"><tspan x="0" y="0" class="st13 st7 st3">Continuous exposure &amp;</tspan><tspan x="0" y="16.8" class="st13 st7 st3">Business development</tspan></text>
<g>
	<rect x="564.3" y="12.1" class="st15" width="0.9" height="244.1"/>
	<polygon class="st15" points="565,22.3 565,12.1 555.4,12.1 	"/>
</g>
<g>
	<circle class="st11" cx="211.4" cy="281" r="6.8"/>
	<circle class="st1" cx="211.4" cy="281" r="4.1"/>
</g>
<g>
	<text transform="matrix(1 0 0 1 222.2588 14.9888)"><tspan x="0" y="0" class="st5 st7 st3">Initial regulatory </tspan><tspan x="0" y="16.8" class="st5 st7 st3">clearance with FDA</tspan><tspan x="0" y="40.8" class="st5 st8 st9">- Harmonization with </tspan><tspan x="0" y="55.2" class="st5 st8 st9">   </tspan><tspan x="6" y="55.2" class="st5 st8 st9">EMA/ICH regulation</tspan><tspan x="0" y="76.2" class="st5 st8 st9">- CMC</tspan></text>
</g>
<g>
	<g>
		<g>
			<rect x="210.7" y="2.1" class="st16" width="0.9" height="254.1"/>
		</g>
		<g>
			<polygon class="st16" points="211.5,12.3 211.5,2.1 201.9,2.1 			"/>
		</g>
	</g>
</g>
<g>
	<circle class="st11" cx="369.9" cy="281" r="6.8"/>
	<circle class="st1" cx="369.9" cy="281" r="4.1"/>
</g>
<text transform="matrix(1 0 0 1 380.0732 154.9888)"><tspan x="0" y="0" class="st6 st7 st3">Decision check point</tspan><tspan x="0" y="16.8" class="st6 st7 st3">for further development</tspan></text>
<g>
	<g>
		<rect x="368.5" y="142.1" class="st17" width="0.9" height="114.1"/>
		<polygon class="st17" points="369.3,152.3 369.3,142.1 359.7,142.1 		"/>
	</g>
</g>
</svg>
