<?xml version="1.0" encoding="utf-8"?>
<!-- Generator: Adobe Illustrator 19.2.1, SVG Export Plug-In . SVG Version: 6.00 Build 0)  -->
<svg version="1.1" id="Layer_1" xmlns="http://www.w3.org/2000/svg" xmlns:xlink="http://www.w3.org/1999/xlink" x="0px" y="0px"
	 viewBox="0 0 974 358" style="enable-background:new 0 0 974 358;" xml:space="preserve">
<style type="text/css">
	.st0{fill-rule:evenodd;clip-rule:evenodd;fill:#EEF0F5;}
	.st1{fill-rule:evenodd;clip-rule:evenodd;fill:#49505A;}
	.st2{fill:#E2C59C;}
	.st3{fill:#A9E0F9;}
	.st4{fill:#EAD7B9;}
	.st5{fill-rule:evenodd;clip-rule:evenodd;}
	.st6{fill:#FEE37A;}
	.st7{clip-path:url(#SVGID_2_);}
	.st8{fill:#AFD6A6;}
	.st9{fill:#85C98F;}
	.st10{clip-path:url(#SVGID_4_);}
	.st11{fill:#F5876E;}
	.st12{fill:#E26E54;}
	.st13{clip-path:url(#SVGID_6_);}
	.st14{fill:#CED6D7;}
	.st15{fill:#B7BEC0;}
	.st16{clip-path:url(#SVGID_8_);}
	.st17{fill:#49505A;}
	.st18{fill:#31373E;}
	.st19{fill:#F6AAC9;}
	.st20{fill:#BDE6FA;}
	.st21{fill:#C0DB78;}
	.st22{fill:none;stroke:#EEF0F5;stroke-linecap:round;stroke-linejoin:round;stroke-miterlimit:10;}
</style>
<g>
	<g>
		<path class="st0" d="M311.3,152.9c0.5-2.6,0.4-5.2-0.2-7.9c-0.3-1.4-1-2.8-2-4.2c-2.2-3.1-4.8-5.2-8-6.4c-0.6-0.2-1.3-0.5-1.9-0.8
			c-0.8-0.4-1.7-0.8-2.6-1.1c-0.1,0-0.3-0.1-0.4-0.1c-3.6-1-7.9,0.5-10,3.5c-1.4,2-3,4.5-4,7.6c-0.6,1.9-0.8,3.9-0.8,6.1
			c0,1.9-0.1,3.3-0.4,4.6c-0.3,1.3-0.5,2.7-0.5,4.5c0,0.8,0,1.6,0.1,2.4c-1.4,0.7-2,2-2.3,2.6c-1.6,3.3-1.4,6.6-1.2,9.8l0,0.6
			c0,0.6,0.3,1.1,0.8,1.5c0.2,0.2,0.5,0.4,0.8,0.4c0.3,0.1,0.5,0.1,0.8,0.1c0,0,0.1,0,0.1,0c0.4,1,1.3,1.7,2.5,2.1
			c0.6,0.2,1.3,0.2,2,0.2c0.6-0.1,1.2,0,1.8,0.1c0.1,0,0.3,0.1,0.5,0.1c0.1,0.1,0.3,0.1,0.4,0.1c2.8,0.8,6.3-0.5,7.9-3.1
			c0.5-0.8,0.9-1.6,1.2-2.4c1.5-0.4,2-1.4,2.3-2.3c0.1-0.5,0.1-1-0.1-1.5c1.3-0.8,2.5-1.8,3.4-3.3c0.7-1.1,1.4-1.8,2.4-2.3
			C307.8,161.8,310.4,158.1,311.3,152.9z"/>
	</g>
	<g>
		<path class="st1" d="M283.6,163c-1.5-0.2-2.1,0.7-2.7,1.7c-1.5,3-1.2,6.1-1,9.4c1.1-0.1,1.9,0,2.3,1.2c0.3,0.9,1.4,1.2,2.3,1.1
			c1.1-0.1,2.1,0,3.2,0.4c1.9,0.7,4.6-0.3,5.8-2.1c0.6-0.9,1-2,1.4-3c0.4-0.5,1.5,0.2,1.8-1.1c-1.1-0.4-2.3-0.9-3.8-1.5
			c0.6-0.2,0.8-0.3,1.1-0.4c2.7-0.1,4.7-1.3,6.2-3.5c0.8-1.3,1.8-2.3,3.2-3c3.8-2,5.7-5.4,6.5-9.5c0.4-2.3,0.4-4.7-0.2-7
			c-0.3-1.3-0.9-2.4-1.6-3.5c-1.8-2.5-4-4.5-7-5.6c-1.5-0.6-2.9-1.4-4.5-1.9c-2.8-1-6.3,0.2-8,2.6c-1.5,2.2-2.9,4.4-3.7,7
			c-0.5,1.8-0.8,3.6-0.7,5.5c0,1.7-0.1,3.5-0.5,5.2c-0.3,1.3-0.4,2.7-0.5,4C283.3,160.1,283.5,161.4,283.6,163z M295.9,153.1
			c-0.1,0-0.2,0.1-0.3,0.1c-0.3-0.3-0.6-0.6-0.8-0.9c-0.6-0.9-1.1-1.8-1.6-2.8c-1.1-1.9-1.1-1.9-2.9-0.8c-0.1,0.1-0.2,0-0.4,0
			c-0.4-0.4-0.8-0.9-1.4-1.5c-0.5,1.6,0.6,2.3,1.2,3.4c-1.5,3.4-2.3,7.2-4.6,10.7c-0.8-1.9-0.5-3.6-0.4-5.4c0.4,0,0.7,0,1.1,0.1
			c0-0.8-0.1-1.6-0.1-2.4c0.1-3.4-0.1-6.7,1.1-10c0.8-2.2,2-4.2,3.5-6.1c0.9-1.2,2.2-1.6,3.2-1.4c-0.8,0.9-1.8,1.9-2.5,3
			c-0.6,0.9-0.9,1.9-1.4,2.9c-0.3,0.7,0,1.1,0.7,1.5c0.4-0.5,0.8-0.9,1.1-1.3c1.8-2.1,3.9-2.3,6-0.5c0.7,0.6,1.3,1.1,2,1.6
			c0.9-0.6,1-1.2,0.5-1.8c-0.4-0.6-0.9-1.2-1.3-1.7c-1-1.3-2-2.5-3-3.8c0.1-0.1,0.1-0.2,0.2-0.3c0.8,0.3,1.7,0.5,2.5,0.9
			c1,0.4,2.1,0.9,3,1.5c1.4,0.8,2.8,1.5,4,2.5c1.6,1.4,3,3.1,3.5,5.2c1.4,5.2-0.2,11.9-5.5,15.3c-0.8,0.5-1.7,0.9-2.5,1.4
			c-0.7,0.4-1.3,0.7-1.7,1.6c-0.8,2.1-2.5,3.1-4.7,3.2c-0.8,0-1.7,0-2.5,0.1c-1.4,0.1-2.6-0.4-3.7-1.4c-0.5-0.5-1-1.1-1.6-1.5
			c-0.8-0.6-0.7-1.2-0.3-2c1.2-2.4,2.3-4.9,3.4-7.3c0.7-1.7,1.4-3.3,2.3-5.3c0.5,0.8,0.7,1.2,1,1.7c0.4,0.7,0.9,1.4,1.4,2.1
			c0.7,1,1.6,1.7,2.9,1.2c0.9,1.4,0.9,1.4,0.5,2c-1.9,2.6-4,5-6.6,6.8c-0.4-0.2-0.7-0.4-1-0.5c-0.7,1.2-0.7,2.2,0,2.6
			c0.9,0.5,1.3-0.2,1.8-0.7c2.8-2.8,5.7-5.6,8.5-8.4c0.3-0.3,0.4-1,0.5-1.5c-0.5,0-0.9-0.1-1.4-0.1c-0.1,0-0.2-0.1-0.4-0.1
			c-0.2-0.3-0.5-0.5-0.6-0.9c-0.4-0.8-0.6-1.7-1-2.5c-0.2-0.3-0.6-0.8-0.9-0.8c-0.6,0-0.6,0.5-0.5,1
			C295.9,152.1,295.8,152.6,295.9,153.1z M284.2,172.1c0.1-0.1,0.1-0.3,0.2-0.4c2.5,0.8,5.1,1.3,7.5,2.4c-1.3,1.3-3.1,1.7-4.2,0.9
			C286.5,174.2,285.4,173.1,284.2,172.1z M286,168.6c0.1-0.1,0.2-0.3,0.2-0.4c2.2,0.8,4.4,1.6,6.7,2.5c-0.1,0.6-0.3,1.2-0.4,2
			C290.1,171.4,288,170,286,168.6z M286.8,170.8c-2-0.4-3.9-0.7-5.6-1.8c0.1-0.8-0.1-1.6,0.5-2C283.5,168.3,285.2,169.5,286.8,170.8
			z M292.5,139.3c0.4-1.1,1.1-1.4,1.9-1.6c0.5-0.1,0.9,0.1,0.9,0.7c0,0.3-0.4,0.7-0.6,0.8C294,139.2,293.4,139.2,292.5,139.3z
			 M285.2,165.1c0,0.1,0,0.3,0,0.4c-0.7,0.1-1.4,0.1-2.5,0.2c0.6-0.8,0.9-1.3,1.3-1.9C284.4,164.4,284.8,164.8,285.2,165.1z"/>
	</g>
	<g>
		<path class="st2" d="M485.6,243.8c-2.9,2.9-2.9,7.6,0,10.5l4.1,4.1c2.9,2.9,7.6,2.9,10.5,0l0,0c2.9-2.9,2.9-7.6,0-10.5l-4.1-4.1
			C493.2,240.9,488.5,240.9,485.6,243.8L485.6,243.8z"/>
		<path class="st3" d="M484.9,280.4c-2.9,2.9-2.9,7.6,0,10.5l12,12c2.9,2.9,7.6,2.9,10.5,0l0,0c2.9-2.9,2.9-7.6,0-10.5l-12-12
			C492.5,277.5,487.8,277.5,484.9,280.4L484.9,280.4z"/>
		<path class="st2" d="M484.7,262.1c-2.9,2.9-2.9,7.6,0,10.5l9.7,9.7c2.9,2.9,7.6,2.9,10.5,0l0,0c2.9-2.9,2.9-7.6,0-10.5l-9.7-9.7
			C492.3,259.2,487.6,259.2,484.7,262.1L484.7,262.1z"/>
		<path class="st4" d="M518.6,358.2v-44.7c0-4.9,5.8-8.8,13.1-8.8h21.2c7.2,0,13,3.9,13,8.8l0,44.7H518.6z"/>
		<path class="st2" d="M559.9,290.7c6.9,6.9,6.9,18,0,24.9l-20.2,20.2c-6.9,6.9-18,6.9-24.9,0l-20.2-20.2
			c-6.9-6.9-14.9-10.2-8.1-17.1l11.8-30.2c6.9-6.9,34.5-4.8,41.4,2.1L559.9,290.7z"/>
		<path class="st4" d="M485.7,310.2l30.9,30.9c0,0,6,7.4,10.2,3.9c10.6-8.9,8.9-28.5-3.2-40.6c-6.3-6.3-27.8-7.3-34.2,2.2
			L485.7,310.2z"/>
		<path class="st2" d="M485,298.8c-2.9,2.9-2.9,7.6,0,10.5l4.1,4.1c2.9,2.9,7.6,2.9,10.5,0l0,0c2.9-2.9,2.9-7.6,0-10.5l-4.1-4.1
			C492.6,295.9,487.9,295.9,485,298.8L485,298.8z"/>
		<g>
			<g>
				<path class="st0" d="M567.6,187.9c0.4-3.8,0.2-7.4,0-11c-0.1-2.4-0.3-4.8-0.8-7.2c-1.2-6-4-11.8-8.5-17.9
					c-2.8-3.7-6.5-6.3-9.7-8.3c-2.4-1.4-4.4-2.4-6.6-3c-7-1.9-14.1-2.6-19.5-3c-1.9-0.1-3.9-0.2-6.5-0.2c-0.9,0-1.7,0-2.6,0
					c-4.9,0-8.8,0.7-12.4,2.1c-0.4,0.2-0.8,0.3-1.2,0.4c-1.1,0.4-2.3,0.9-3.5,1.5c-1.4,0.7-2.8,1.5-4.2,2.3c-1,0.6-1.9,1.1-2.9,1.6
					c-4.3,2.3-7.9,4.9-11.1,7.9l-0.3,0.3c-1.5,1.4-3.3,3.1-4.5,5.4c-3.9,7.3-5.4,15-4.4,22.8c0,0.3,0.1,0.6,0.1,0.9
					c0.1,0.3,0.1,0.7,0.1,1c0.2,2.6,1,5.2,2.2,7.7c0.2,0.4,0.4,0.7,0.6,1.1c0.3,0.5,0.5,0.9,0.7,1.4c1.6,3.7,3.7,7.2,6.6,10.7
					l0.4,0.5c0.7,0.9,1.5,1.9,2.5,2.7c2.5,2.1,4.5,5,6.3,9.1l0.5,1.2c0.8,1.9,1.6,3.8,2.7,5.7c0.4,0.8,0.8,1.6,0.9,2.4
					c0.3,1.4,0.2,3,0.1,4.8c0,0.4,0,0.9-0.1,1.3c-1.4,3-0.9,5.9-0.4,7.9l0.1,0.5c0.2,0.9,0.4,1.8,0.4,2.5c0,0.9,0.3,1.8,1,2.4
					c-0.1,0.2-0.2,0.5-0.3,0.7c0,0.1-0.1,0.2-0.1,0.3c-0.2,0.3-0.3,0.6-0.4,0.9c-0.8,2.1-0.4,4,1.4,5.5c0.2,0.2,0.4,0.4,0.6,0.6
					c0.1,0.1,0.1,0.2,0.1,0.2c0,0.1-0.1,0.2-0.2,0.4c-0.5,0.8-1.7,2.5-1.2,4.5c0.3,1.3,1.2,2.2,2.1,2.8c-1,2.8-1.1,5.5-0.2,8.1
					c0.9,2.6,2.8,4.6,5.6,5.9c1,0.4,1.9,0.7,2.8,0.9c0.4,0.1,0.7,0.2,1.1,0.3c0,0,0.1,0,0.1,0c0.4,1.3,1.2,2.1,1.5,2.5
					c0.4,0.5,0.9,0.9,1.3,1.4c0.2,0.2,0.5,0.5,0.7,0.7c0.9,0.9,2.3,2.3,4.5,2.8c1.5,1.1,3.2,1.6,4.5,2c0.3,0.1,0.6,0.2,0.9,0.3
					c0.9,0.3,1.7,0.4,2.4,0.5c0.6,0.1,1.1,0.2,1.5,0.3c1.1,0.3,2.2,0.5,3.3,0.5c0.5,0,1,0,1.5-0.1c0.7-0.1,1.4-0.1,2-0.2
					c2.9-0.2,5.1-1.1,6.8-2.9c0.3-0.2,0.6-0.5,0.8-0.7l0.2-0.2c0.9-1,1.9-1.9,2.7-2.9c0.7-0.8,1.1-1.7,1.3-2.6
					c1.8-1.3,3.5-2.5,5.3-3.8c0.8-0.6,1.2-1.3,1.3-1.7c0.8-1.3,0.6-3-0.4-4.1c0.3-0.7,0.5-1.6,0.4-2.7c0.2-0.4,0.4-0.8,0.5-1.1
					c1.5-2.4,1.5-5,0-7.8l0-0.1c0.2-0.7,0.2-1.5,0-2.2c0.7-2.1,0.4-4.1-1-5.7c0-0.2,0-0.4-0.1-0.5c0.6-0.3,1.2-0.7,1.8-1.1l0.2-0.1
					c1.1-0.7,1.8-1.7,2-2.9c0.1-0.7,0.1-1.9-1-3.2c-0.5-0.6-1.3-1-2-1.2c0-0.7-0.2-1.5-0.5-2.2c-0.3-0.7-0.9-1.2-1.6-1.6
					c0,0,0,0,0,0c-0.1-3.1-0.1-6.4,0.8-9.6c0.9-3.2,2.1-6,3.5-8.4c0,0,0.1-0.1,0.1-0.1c1.3-0.7,2.3-1.7,3.1-2.5
					c0.2-0.2,0.4-0.4,0.7-0.6c4.2-3.9,7.6-8.6,10.5-14.5C566.5,196.6,567.1,192.3,567.6,187.9z"/>
				<path class="st0" d="M590.2,229.1l-0.1-0.1c-0.3-0.2-0.5-0.3-0.6-0.4c-1.6-0.9-2.9-2.3-4.4-3.8l-0.5-0.5
					c0.1-1.3-0.6-2.5-1.4-3.2c-0.7-0.7-1.3-1.2-2-1.6l-0.7-0.4c-1.8-1.1-3.6-2.3-5.5-3.4c-2.3-1.3-4.4-2.4-6.5-3.4
					c-0.6-0.3-1.6-0.7-2.7-0.7c-2.2,0-3.5,1.4-4.1,2.1l-0.2,0.3c-1.1,1.2-2.2,2.3-3.2,3.6c0,0-0.2,0.3-0.2,0.3
					c-0.8,0.3-1.4,0.8-1.8,1.6c-0.5,0.9-0.5,2-0.1,2.9c0.8,1.7,1.9,2.6,3,3.4l0.2,0.1c1.3,0.9,2.5,1.8,3.6,2.7
					c1.4,1.2,2.8,2.4,4.2,3.6c0.9,0.8,1.9,1.7,2.8,2.5c2.4,2.1,4.9,4.2,7.3,6.3c0.5,0.4,1,0.8,1.6,1.2l0.6,0.4
					c0.6,0.4,1.3,0.7,2,0.7c0.7,0,1.5-0.2,2.1-0.7l1-0.8c0.7-0.6,1.2-1.5,1.2-2.4c0-0.3,0-0.6-0.1-0.9c1.7-1.2,3.4-2.5,5-4.1
					c0.6-0.7,0.9-1.6,0.9-2.6C591.5,230.5,591,229.6,590.2,229.1z"/>
				<path class="st0" d="M486,222.4c-0.3-0.2-0.6-0.4-0.9-0.6c-0.8-0.4-1.6-1.2-2.3-2.2c-0.7-0.8-1.4-1.5-2-2.1
					c-0.2-0.2-0.5-0.5-0.7-0.7c-0.8-0.9-2-1.4-3.1-1.4c-1.5,0-2.8,0.9-3.4,2.2c-0.1,0.1-0.2,0.1-0.3,0.2c-0.2,0.2-0.5,0.3-0.7,0.5
					c-4.4,3.5-8.9,6.9-13.3,10.3c-0.6,0.4-1.1,0.8-1.7,1.2c-0.7,0.5-1.4,1-2,1.5c-0.5,0.4-1.9,1.5-1.9,3.4c0,1.9,1.4,3.1,1.8,3.5
					c0.7,0.6,1.4,1.2,2.1,1.9c0.4,0.4,0.7,0.8,1,1.1c0.3,0.4,0.6,0.7,1,1.1c0.5,0.5,0.9,0.8,1.3,1c0.1,0.1,0.2,0.1,0.4,0.2
					c0.4,0.2,0.8,0.4,1.2,0.5c0.3,0.3,0.7,0.5,1.1,0.7c0.4,0.1,0.7,0.2,1.1,0.2c0.8,0,1.6-0.3,2.2-0.8c0.2-0.2,0.4-0.3,0.5-0.5
					c0.5-0.4,0.9-0.8,1.4-1.3c1.1-1.4,2.6-2.6,4.2-3.8l0.9-0.7c1.4-1.1,2.8-2.2,4.3-3.2l2-1.5c0.3-0.2,0.6-0.5,0.9-0.7
					c0.9-0.7,1.7-1.4,2.5-1.7c1.3-0.5,2.1-1.5,2.4-2c0.3-0.4,0.5-0.8,0.8-1.4l0.3-0.6C487.9,225.3,487.4,223.4,486,222.4z
					 M476.1,226.4c-0.3,0.3-0.6,0.5-0.9,0.8c-0.5,0.4-0.9,0.7-1.4,1.1l-0.7,0.6c-0.9,0.7-1.8,1.4-2.7,2.1c-1.8,1.3-3.7,2.7-5.5,4.5
					c-0.4,0.2-0.8,0.4-1.1,0.6c-0.2-0.2-0.4-0.5-0.6-0.7c0.8-0.6,1.7-1.2,2.5-1.8c1.4-1.1,2.8-2.2,4.1-3.3c1.7-1.4,3.5-2.8,5.2-4.2
					c0.2-0.1,0.4-0.3,0.6-0.5c0.2,0,0.4,0.1,0.6,0.1c0,0,0.1,0,0.1,0c0.3,0,0.6,0,0.9-0.1C476.8,225.8,476.5,226.2,476.1,226.4z"/>
				<path class="st0" d="M520.2,135.3c1.4,0.4,2.8,0.7,4.3,0.7c1,0,1.9-0.1,2.8-0.3c1.5-0.3,2.7-1.4,3.1-2.9c0.3-1.3-0.1-2.5-1-3.5
					c0-0.1,0.1-0.6,0.1-0.6c0.2-1.5,0.4-2.6,0.7-3.5c1.3-3.9,2-8,2.6-11.8l0.1-0.4c0.2-1.2,0.3-2.6,0.4-4.3c0-1-0.2-1.9-0.4-2.5
					l0-0.1c-0.3-1.2-1.2-2-2.2-2.3c0.3-0.2,0.7-0.4,0.9-0.6c1-0.9,1.4-2.3,1-3.6c-0.4-1.3-1.6-2.2-3-2.2l-0.8,0
					c-1.6,0-2.5-0.1-3.3-0.7c-0.6-0.4-1.2-0.6-1.9-0.6c-0.4,0-0.8,0.1-1.2,0.2c-1,0.4-1.8,1.4-2,2.5l-0.1,0.5
					c-0.1,0.5-0.2,0.9-0.2,1.3c0,0.4,0,0.7,0,1.1c0,0.2,0,0.4,0,0.6c-0.1,1.5-0.3,3.1-0.4,4.6c-0.2,1.7-0.3,3.4-0.4,5.1l0,0.6
					c-0.4,5-0.8,9.8-1.9,14.4c-0.2,0.7-0.4,1.7-0.3,2.7C516.8,133.7,518.9,134.9,520.2,135.3z"/>
				<path class="st0" d="M479.3,113.4c0.2,0.6,0.5,1.2,0.7,1.9c0.6,1.6,1.1,3.1,1.7,4.7c1.3,3.3,2.7,6.6,4.1,9.9l1.2,2.9
					c0.1,0.3,0.3,0.7,0.5,1c0.1,0.2,0.2,0.4,0.3,0.6c0.1,0.3,0.2,0.6,0.3,0.9l0.2,0.7c0.4,1.4,1.7,2.3,3.2,2.3c0.2,0,0.5,0,0.7-0.1
					l0.2,0c0.5-0.1,1.2-0.2,2-0.7c0.3-0.2,1-0.3,1.7-0.4l0.2,0c0.3,0,1.1-0.1,2-0.6c0.2-0.1,0.5-0.3,0.9-0.6c0.6,0,1.2-0.2,1.8-0.6
					l0.2-0.1c0.8-0.5,2.8-1.9,2.5-4.4c-0.1-0.7-0.4-1.3-0.9-1.9c-0.3-0.3-0.5-0.5-0.7-0.7c0,0,0,0,0,0c-1.8-4.4-3.2-9.2-4.7-15.6
					c-0.4-2-1-3.9-1.5-5.8l-0.2-0.6c0.2-0.4,0.3-0.9,0.3-1.4l0-0.3c0-1.4-0.9-2.7-2.3-3.1c-1-0.3-2.4-0.7-3.9-0.7
					c-1.5,0-2.9,0.4-4.2,1.1c-0.8,0.5-1.7,0.9-2.6,1.3c-0.5,0.2-1,0.5-1.5,0.7l-0.4,0.2c-0.6,0.3-1.2,0.6-1.9,1
					c-1.2,0.8-2,2.1-2.2,3.5c-0.2,1.4,0.2,3,1.1,4.1C478.4,112.9,478.8,113.2,479.3,113.4z"/>
				<path class="st0" d="M556,145.9c0.9,0.9,1.8,1.7,2.5,2.6c1,1.1,2,1.9,2.9,2.5c0.6,0.4,1.2,0.6,1.8,0.6c0.9,0,1.9-0.4,2.5-1.2
					c0.5-0.6,1.5-1.8,1.3-3.5c0-0.1,0-0.1,0-0.2l0.8-0.7c1.8-1.7,3.7-3.4,5.7-4.9c3.1-2.5,6.3-5,9.5-7.5l3.3-2.6
					c0.6-0.4,1.1-0.9,1.7-1.3c0.6-0.5,1.2-0.9,1.8-1.4c0.5-0.4,0.8-0.8,1.1-1.1l0.3-0.3c0.6-0.7,1-1.6,0.9-2.5
					c-0.1-0.9-0.5-1.8-1.3-2.4c-0.4-0.3-0.7-0.4-1-0.6c-0.4-2.4-1.6-4.1-3-5.5c-0.6-0.7-1.5-1-2.4-1c-0.3,0-0.7,0.1-1,0.2
					c0,0,0,0,0,0c-1.1,0-2.2,0.5-3.3,1.4c-1.7,1.4-3.4,2.8-5.1,4.2c0,0-3.6,2.9-4.4,3.5c-1.8,1.4-3.6,2.9-5.4,4.4
					c-2.1,1.8-4.2,3.7-6.2,5.5l-2.4,2.1c-0.3,0.3-0.9,0.8-1.3,1.6c-0.1,0.2-0.2,0.4-0.3,0.7c-0.4,0.3-0.8,0.6-1.1,1.1
					c-1.1,1.6-0.5,3.7,0.7,4.8C555,145,555.5,145.5,556,145.9z M572.7,132l2-1.5c2.7-2.1,5.5-4.2,8.2-6.4c0,0.1,0,0.1,0.1,0.2
					c-0.7,0.5-1.4,1-2,1.6c-1.3,0.9-2.5,1.9-3.8,2.9c-3.4,2.8-6.8,5.5-10.1,8.3c0,0-0.4,0.4-1.1,0.9
					C568,135.9,570.3,133.8,572.7,132z"/>
				<path class="st0" d="M611.2,181.7c-1-1.5-2.6-1.7-3.1-1.8c-1.8-0.3-3.6-0.6-5.4-0.9c0,0-2.1-0.4-2.9-0.5
					c-1.6-0.3-3.2-0.6-4.8-0.8c-0.9-0.1-1.8-0.2-2.6-0.2c-0.5,0-0.9-0.1-1.4-0.1l-5-0.5c-2.7-0.3-5.5-0.6-8.2-0.8
					c-0.2,0-0.4,0-0.6,0c-0.8,0-1.6,0.2-2.2,0.3c-1.5,0.3-2.5,1.5-2.8,2.8c-1.7,1.7-1.8,3.8-1.8,4.5c0,1.3,0,2.6,0,3.9l0,2.3
					c-0.3,0.9-0.3,1.9,0,2.8c0.4,1,1.1,1.7,2.1,2.2c0.4,0.2,1.3,0.5,2.2,0.5c0.7,0,1.4-0.2,2-0.5c0.3-0.2,0.7-0.3,1.2-0.3l0.2,0
					c1.9,0.1,3.8,0.2,5.7,0.3c1,0.1,2,0.1,3,0.2c0.9,0.1,1.8,0.1,2.8,0.1c1.1,0.1,2.3,0.1,3.4,0.2c1.7,0.1,3.7,0.3,5.7,0.5
					c0.9,0.1,1.9,0.3,2.9,0.5l0.5,0.1c0.3,0.1,0.7,0.1,1,0.1c0.7,0,2.9-0.2,4-2.9c0.8-0.3,1.5-0.8,1.8-1.6l0.4-0.8
					c0.4-0.7,0.7-1.4,1-2.1c0.4-1.1,1-2.5,1.4-4C612.1,183.5,611.6,182.3,611.2,181.7z"/>
				<path class="st0" d="M463.1,199.5l1.8-0.8c1.1-0.5,1.9-1.4,2.2-2.5c0.1-0.3,0.1-0.5,0.1-0.8c0.9-0.2,1.7-0.6,2.2-1.2
					c1-1.2,0.9-2.7,0.8-3.2c-0.1-1.1-0.7-2-1.5-2.6c-0.4-1.5-0.9-3.1-1.4-4.6c-0.2-0.7-0.5-1.4-1-2.1c-0.6-0.9-1.8-1.9-3.4-1.9
					c-0.1,0-0.2,0-0.3,0c-1.5,0.1-2.6,1.2-3.1,2.3c0,0-2.4,0.9-2.4,0.9c-2,0.7-4.1,1.5-6.1,2.2c-1.7,0.6-3.3,1.3-5,1.9l-1.6,0.6
					c-0.5,0.2-1.1,0.4-1.7,0.8c-0.8,0.5-1.5,1.1-1.8,1.9c-0.4-0.1-0.9-0.2-1.3-0.2c-0.4,0-0.9,0.1-1.2,0.2c-1.5,0.6-2.6,2.2-2.4,3.9
					c0.1,0.8,0.3,1.4,0.5,1.9c0.1,0.4,0.3,0.7,0.5,1.1c0.2,0.6,0.5,1.2,0.7,1.8c0.2,0.6,0.4,1.1,0.6,1.7c0.3,1,0.6,2,1.1,3
					c0.4,1.1,1,2.1,1.6,2.9l0.3,0.5c0.7,1.2,1.9,1.6,2.4,1.7c0.4,0.1,0.7,0.2,1.1,0.2c0.5,0,0.9-0.1,1.4-0.3c0.8-0.4,1.4-1.1,1.7-2
					c0.1-0.1,0.1-0.4,0.2-0.6c0,0,0.1,0,0.1,0c0.7-0.3,1.2-0.6,1.6-0.9c0.2-0.1,0.3-0.2,0.5-0.3c0.9-0.4,1.8-0.7,2.7-1
					c1.2-0.4,2.3-0.8,3.5-1.3C458.7,201.5,460.9,200.5,463.1,199.5z"/>
				<path class="st0" d="M441,151c0.4,0.2,0.7,0.4,1.1,0.6c0.4,0.2,0.8,0.5,1.3,0.7c2.6,1.6,5,2.8,7.5,3.6c0.2,0.1,0.5,0.1,0.7,0.2
					c0.1,0.1,0.2,0.2,0.3,0.2l11.1,7.2c0.2,0.1,0.5,0.2,0.7,0.3c0.6,0.8,1.5,1.5,2.6,1.9c0.4,0.2,0.8,0.3,1.3,0.3
					c0.6,0,1.2-0.2,1.7-0.5c0.8-0.5,2.6-1.9,1.8-4.9c0,0-0.1-0.2-0.1-0.2c0.4-1.6,1-3.3,1.8-4.8c0.1,0,0.1,0,0.2,0
					c1.4,0,2.8-0.8,3.4-2c0.8-1.5,0.5-3.2-0.2-4.2c-0.5-0.7-1-1.1-1.5-1.5c-0.7-0.6-3.7-3-3.7-3c-0.3-0.3-0.7-0.6-1-0.9
					c-0.8-0.7-1.6-1.3-2.5-2c-1.6-1.1-3.1-2.2-4.7-3.3c-1-0.7-1.9-1.3-2.9-2c-0.9-0.6-1.8-0.9-2.8-0.9c-0.4,0-0.8,0.1-1.2,0.2
					c-0.7-0.4-1.4-0.7-2.2-0.7c-0.5,0-1.1,0.1-1.6,0.3c-1.2,0.4-2.4,0.8-3.6,1.3c-0.9,0.3-1.5,0.9-1.9,1.2c-0.9,0.8-1.8,1.5-2.7,2.3
					l-1,0.9c-0.8,0.7-1.2,1.4-1.4,2.1c-1.1,0.3-2,1-2.5,2c-0.6,1.3-0.4,2.9,0.5,4C439.9,150.3,440.4,150.7,441,151z"/>
			</g>
			<g>
				<path class="st5" d="M512.8,256.5c-0.9,0.5-1.6,0.6-2.5,0.2c-0.4-0.2-1-0.3-1.5-0.3c-0.2,0-0.4,0.2-0.8,0.5c1,0.7,1.9,1,2.9,1.2
					c2.5,0.5,4.9,0.9,7.4,1.3c1.7,0.3,3.4,0.4,5.1,0.6c0.1,0,0.2,0.1,0.6,0.3c-0.5,0.1-0.7,0.3-1,0.3c-1.9-0.1-3.7,0-5.6-0.3
					c-3.1-0.5-6.2-0.8-9.2-1.8c-1.8-0.6-3.8-0.8-5.8-0.6c-0.4,0.1-0.9-0.2-1.5-0.3c-0.1,0.2-0.4,0.5-0.6,0.8
					c-0.8,1.3-0.8,1.5,0.6,2.2c1.1,0.6,1.6,1.4,2.1,2.5c0.2,0.4,0.4,0.8,0.5,1.3c0.5-0.2,1-0.6,1.3-0.5c0.4,0.1,0.6,0.6,0.9,1
					c0.3-0.2,0.6-0.7,1.2-0.4c0.3,0.1,0.7-0.2,1-0.2c0.6,0.3,1.2,0.5,1.6,0.8c0.2,0.1,0.3,0.4,0.5,0.6c0.4,0.5,0.8,0.9,1.2,1.3
					c0.3-0.1,0.4-0.1,0.5-0.2c0.9-1.1,0.9-1.1,2-0.2c0.1,0.1,0.2,0.2,0.3,0.3c1.7,2.3,4.2,2.5,6.7,2.8c1.8,0.2,3.7,0.3,5.6,0.4
					c0.3,0,0.6,0.2,0.9,0.3c0,0.1,0,0.3,0,0.4c-0.5,0.1-1,0.1-1.6,0.1c-1.4,0-2.9-0.1-4.3-0.1c-2.4-0.1-4.7-0.8-7-1.4
					c-2.3-0.6-4.6-1.6-6.9-1.7c-2.2-0.1-3.9-1.1-5.7-2c-0.1,0-0.2,0-0.4,0c-0.7,1.4-0.7,2.8-0.1,4.3c0.7,0.2,1.5,0.4,2.2,0.5
					c0.6,0.1,1,0.4,0.9,1.1c0,0.4,0.3,0.8,0.4,1.1c0.5-0.1,0.9-0.4,1.3-0.3c0.3,0.1,0.6,0.5,0.9,0.8c0.4,0.4,0.8,0.8,1.3,1.2
					c0.1-0.3,0.2-0.3,0.2-0.4c0-0.4-0.4-1,0.3-1.2c0.3-0.1,0.7,0.2,1.1,0.5c0.4,0.3,0.8,0.6,1.3,0.9c0.5-0.6,0.8-1,1.1-1.5
					c0.5,0.6,0.8,1.1,1.3,1.4c0.5,0.3,1.2-0.2,1.7,0.6c-0.8,0.6-1.4,1.1-2.5,0.7c-0.6-0.2-1.3,0-2,0.2c0.4,0.2,0.7,0.4,1.1,0.5
					c3.8,0.9,7.6,1.9,11.4,2.8c1.7,0.4,3.4,0.6,5.1,0.9c2.6,0.5,5-0.2,7.4-1c3.6-1.2,6.7-3.2,9.7-5.4c0.3-0.2,0.6-0.4,1-0.6
					c0.1,0.1,0.2,0.2,0.3,0.2c-0.2,0.3-0.3,0.6-0.5,0.8c-1.8,1.4-3.7,2.7-5.5,4c-0.4,0.3-0.8,0.5-1.3,0.8c0.5,0.8,0.2,1.5-0.3,2.2
					c-0.9,1-1.9,2-2.8,3c-0.3,0.3-0.6,0.5-0.9,0.7c-1.3,1.3-2.9,1.7-4.7,1.9c-0.7,0.1-1.5,0.1-2.2,0.2c-1.2,0.2-2.3,0.1-3.4-0.3
					c-1.3-0.4-2.6-0.4-3.9-0.8c-1.6-0.5-3.3-0.8-4.6-1.9c-0.2-0.2-0.5-0.3-0.7-0.4c-1.3-0.2-2.3-1-3.1-1.9c-0.6-0.7-1.3-1.3-2-2
					c-0.6-0.7-1.2-1.5-0.8-2.6c-0.8-0.3-1.6-0.7-2.4-0.9c-1.1-0.4-2.4-0.5-3.4-1c-1.8-0.8-3.2-2-3.9-4c-0.8-2.5-0.4-4.8,0.6-7
					c0.6-1.3,0.5-1.5-0.7-2.2c-1.9-1-2.2-1.5-0.9-3.3c1.1-1.7,1.1-3-0.1-4.5c-0.3-0.4-0.6-0.7-0.9-1c-0.7-0.7-0.9-1.1-0.5-2
					c0.1-0.4,0.4-0.8,0.5-1.1c0.4-0.9,0.7-1.8,1.1-2.7c0.4-0.8,0.1-1.4-0.8-1.9c-0.2,0.2-0.4,0.3-0.6,0.5c0,0-0.1-0.1-0.1-0.2
					c0-1.3-0.3-2.5-0.6-3.8c-0.5-2-0.7-4.1,0.4-6c0.1-0.2,0.2-0.5,0.2-0.8c0.1-2.4,0.4-4.8-0.1-7.1c-0.3-1.2-0.7-2.3-1.3-3.4
					c-1.2-2.1-2.1-4.3-3.1-6.6c-1.7-3.9-3.9-7.5-7.2-10.3c-0.9-0.8-1.6-1.8-2.4-2.7c-2.5-3.1-4.6-6.3-6.1-9.9
					c-0.4-0.9-0.9-1.8-1.4-2.7c-1-2.1-1.7-4.2-1.9-6.5c-0.1-0.7-0.2-1.4-0.3-2.1c-0.9-7.4,0.6-14.3,4-20.9c1-1.9,2.6-3.4,4.2-4.8
					c3.1-2.9,6.7-5.4,10.4-7.4c2.4-1.3,4.7-2.7,7.1-3.9c1.4-0.7,2.9-1.2,4.4-1.8c3.6-1.4,7.4-1.8,11.2-1.9c2.9,0,5.9,0,8.8,0.2
					c6.4,0.5,12.7,1.2,18.9,2.9c2.1,0.6,3.9,1.5,5.7,2.6c3.3,2,6.5,4.3,8.8,7.4c3.7,5,6.6,10.5,7.9,16.6c0.5,2.2,0.6,4.5,0.7,6.8
					c0.2,3.5,0.4,7,0,10.5c-0.5,4-1,8-2.8,11.6c-2.5,5.1-5.6,9.6-9.7,13.5c-1.1,1-2,2.1-3.3,2.8c-0.5,0.3-0.9,0.7-1.1,1.2
					c-1.7,2.9-3,6-3.9,9.2c-1,3.5-1,7.1-0.9,10.7c0,0.4,0,0.8,0,1.3c0,0.2-0.3,0.4-0.5,0.6c-0.2-0.2-0.3-0.4-0.5-0.6
					c0-0.1,0-0.2,0-0.3c-0.5-5.3,0-10.5,2.1-15.5c1-2.5,2-4.9,3.6-7c0.8-1,1.8-1.9,2.7-2.8c0.1-0.1,0.1-0.2,0.2-0.2
					c1.6-0.1,2.3-1.4,3.2-2.4c2.3-2.4,3.9-5.1,5.6-7.9c1.9-3.1,3-6.4,3.6-9.9c0.6-4,1-8,0.6-12.1c-0.2-2.3-0.3-4.6-0.4-6.9
					c-0.2-2.9-1-5.6-2.2-8.2c-1.3-3-2.8-5.9-4.6-8.6c-2-3-4.6-5.5-7.6-7.4c-0.5-0.3-0.9-0.6-1.4-0.9c-2.8-2-6-2.9-9.3-3.7
					c-3.5-0.9-7.1-1.5-10.7-1.7c-2.7-0.1-5.5-0.6-8.2-0.7c-6.7-0.3-13.3,0.2-19.5,3c-2.1,1-4.1,2.2-6.1,3.3c-2.3,1.3-4.7,2.7-7,4.1
					c-2.9,1.9-5.5,4.2-7.8,6.7c-1.7,1.9-2.7,4.2-3.6,6.6c-1.5,4-2.3,8.2-2.1,12.5c0.2,4.7,0.9,9.5,3.4,13.7c1.1,1.9,1.9,4,3.1,5.8
					c1.9,2.9,3.8,5.7,6.4,8c2.9,2.6,5.1,5.8,6.5,9.4c1.1,2.7,2.2,5.3,3.7,7.8c0.7,1.1,1,2.3,1,3.6c0,1.9,0,3.9,0,5.8
					c0,1.2,0,2.5,0,3.9c-1,0.2-0.7,1.1-0.7,1.9c0.3,2.5,1.5,4.6,3.5,6c2.8,1.9,5.8,3.5,9,4.6c3.1,1,6.2,2,9.3,2.9
					c1.5,0.4,3.1,0.5,4.7,0.6c0.8,0.1,1.7,0,2.5,0.1c2.4,0.1,3.4-0.1,5.9-1c-0.2-1.7-0.5-3.5-0.7-5.2c-0.5-6.4-1-12.8-1.5-19.2
					c-0.1-1.2-0.4-2.3-0.5-3.5c0-0.4,0.1-0.8,0.4-1.1c0.1-0.1,0.6,0.1,1.1,0.3c0.4-1.2,0.7-2.5,1.2-3.7c2.2-6.3,4.7-12.5,7.3-18.6
					c0.6-1.5,0.9-3.1,1.3-4.7c0.3-1.1,0.6-2.1,1.1-3.2c0.4-0.9,1.7-1.1,2.5-0.4c0.4,0.4,0.5,0.8,0.2,1.3c-0.9,1.4-1.7,2.8-2.7,4.1
					c-0.4,0.5-0.7,0.9-0.3,1.5c0.1,0.2,0,0.5-0.1,0.7c-0.1,0.3-0.2,0.6-0.3,0.8c-0.1,0.2-0.2,0.5-0.3,0.6c-1.1,0.3-1.3,1.3-1.6,2.1
					c-2.2,5.6-4.3,11.2-6.4,16.8c-0.3,0.9-0.4,2-0.5,3c-0.1,1.6,0,1.6-1.4,2.5c0,0.6,0,1.2,0,1.9c0.3,4.6,0.6,9.2,0.9,13.8
					c0.1,1.9,0.4,3.8,0.6,5.7c0.1,0.5,0,1.1,0.3,1.5c0.7,0.8,0.5,1.6,0.3,2.7c0.5-0.2,0.9-0.3,1.2-0.4c2-1,3.6-2.5,5.1-4
					c1.5-1.6,2.9-3.3,4.3-4.9c0.5-0.6,1-1.3,1.6-2c0.4,0.9,0,1.4-0.3,1.8c-0.9,1.3-1.8,2.5-2.7,3.7c-0.3,0.4-0.6,0.8-0.9,1.2
					c1.5,0.3,2.7-0.5,2.7-1.9c0-0.5-0.2-1.1,0.5-1.2c0.6-0.2,0.9,0.2,1.2,0.7c0.1,0.1,0.2,0.2,0.3,0.3c0.7-0.2,1.4-0.4,2.1-0.6
					c0.5,0.6,0.2,1-0.3,1.3c-0.7,0.4-1.3,0.9-2,1.3c-1.2,0.7-1.5,1.7-1.4,2.9c0,0.2,0.1,0.5,0,0.7c-0.4,0.6,0,1,0.4,1.3
					c1.2,1,1.4,2.1,0.7,3.5c-0.2,0.4-0.4,0.9,0.1,1.3c0.1,0.1,0.2,0.4,0.1,0.5c-0.8,1-0.1,1.8,0.3,2.6c0.8,1.5,1.1,2.9,0.1,4.5
					c-0.4,0.6-0.6,1.2-0.9,1.9c-0.1,0.2-0.3,0.6-0.2,0.8c0.5,1.3-0.6,2.1-1,3.2c-0.2,0.4-0.5,0.8-0.9,1.4c-0.7,0.4-1.7,0.5-2.8,0.5
					c-0.8,0-1.5,0.4-2.3,0.4c-1.5,0.2-3.1,0.1-4.6,0.4c-1.5,0.2-3,0.7-4.5,1c-2,0.4-4,0.6-6.1,0.4c-0.3,0-0.5-0.1-1-0.1
					c0.3-0.3,0.5-0.4,0.7-0.6c-0.2,0-0.5,0-0.6-0.2c-0.2-0.2-0.5-0.6-0.4-0.8c0-0.2,0.4-0.5,0.7-0.5c0.9-0.2,1.7-0.3,2.6-0.5
					c1.7-0.2,3.4-0.5,5.1-0.7c0.7-0.1,1.5-0.1,2-0.8c1.6-0.1,3.1-1,4.8-1c2.3,0,4.4-0.5,6.4-1.5c0.2-0.1,0.4-0.3,0.5-0.5
					c0.6-1.2,1.1-2.4,1.7-3.7c0.1-0.3,0-0.7,0-1.1c-0.7,0.1-1.4,0.2-2.1,0.4c-1.3,0.3-2.5,0.6-3.8,0.9c-0.6,0.1-1.2,0.3-1.7,0.5
					c-0.4,0.1-0.8,0.1-1.1,0.3c-1.5,0.9-3.2,0.6-4.8,0.7c-2,0.2-3.8-0.2-5.6-0.7c-0.9-0.2-1.7-0.3-2,0.8c-1-0.1-0.6-1-1.1-1.5
					c-1-0.1-2.2-0.2-3.3-0.3c0-0.1,0-0.2,0-0.3c0.3-0.1,0.5-0.2,0.8-0.2c1.7-0.1,3.3-0.2,5-0.2c1.8,0,3.5-0.2,5.2-1
					c1-0.4,2-0.6,3-0.9c1.4-0.4,2.9-0.8,4.3-1.3c1.7-0.6,3.3-1.4,5-2.2c0.8-0.4,1.8-2.6,1.6-3.4c0-0.2-0.1-0.4-0.2-0.5
					c-0.5-0.6-1-1.2-1.5-2c-1.3,0.7-2.7,1.4-4,2.1c-1.7,0.9-3.5,1.8-5.2,2.7c-0.7,0.4-1.2,0-1.1-0.8c0-0.3,0.2-0.6,0.4-1
					c-1.4,0.1-2.8,0-4.1,0.6c-0.3,0.1-0.5,0.2-0.8,0.3c-1.1,0.4-1.2,0.3-1.8-1c-1,0.1-2,0.2-3.1,0.2c-0.5,0-1.1-0.2-1.6-0.3
					c-3-0.4-5.9-1.3-8.7-2.3c-2.4-0.9-4.8-1.7-7.2-2.7c-1.6-0.7-3-1.6-4.5-2.4c-0.5-0.3-1-0.5-1.5-0.8c-0.6,1.5-1.3,2.9-1.8,4.3
					c-0.1,0.2,0.1,0.6,0.3,0.8c0.5,0.5,1.1,1,1.7,1.6c1.3-0.8,2.1,0.4,3.3,0.9c0-0.2,0-0.4-0.1-0.5c-0.1-0.4-0.2-0.8,0.3-0.9
					c0.2-0.1,0.6,0.2,0.8,0.4c0.2,0.3,0.4,0.6,0.5,1c0.3,0.5,0.5,1,0.7,1.4c0.1,0,0.2,0,0.3-0.1c0-0.7,0.1-1.4,0.1-2.1
					c1.3-0.3,0.9,1.3,2,1.4c0.5-0.3,1.1-0.4,1.7,0.4c0.1,0.2,0.6,0.2,0.9,0.3C512.1,255.7,512.1,255.7,512.8,256.5z M538.5,279.3
					c-1-0.2-1.6,0.2-2.2,0.5c-2.1,0.8-4.3,1.5-6.5,1.2c-2.3-0.2-4.6-0.7-6.9-1.2c-1.5-0.3-3-0.8-4.6-1.2c0.4,1.7,1.7,3.9,2.7,4.4
					c-0.2-0.5-0.4-1-0.5-1.4c0.5-0.5,0.9-0.4,1.2,0c0.3,0.3,0.4,0.7,0.7,1c0.6,0.7,1.1,1.6,2.1,1.8c1.7-1.9,1.7-1.9,2.5-1.1
					c-0.4,0.6-1.2,0.9-1,1.9c2.6,0,5.4,0.4,7.7-1.1C535.6,283,537.4,281.5,538.5,279.3z M514,277.9c-0.1,0.1-0.1,0.3-0.2,0.4
					c1.2,0,1.8,0.8,2.3,1.5c0.4,0.5,0.6,1,0.9,1.5c0.3,0.5,0.7,1,1,1.6c0.2-0.4,0.3-0.7,0.2-0.9c-0.5-1.1-1-2.3-1.6-3.4
					c-0.1-0.2-0.4-0.4-0.7-0.4C515.4,278.1,514.7,278,514,277.9z M545.6,261c0.2-0.7,0-1.1-0.5-1.5c-1,0.5-2.2,0.4-3.1,1.4
					C543.3,261,544.4,259.9,545.6,261z M543,197.6c1.4-1.2,1.6-1.6,1.2-2.7C543.2,195.6,543,196.5,543,197.6z M541.3,251.3
					c1.5-0.4,2.9-1.3,3.1-1.9C543,249.6,542.2,250.5,541.3,251.3z"/>
				<path class="st5" d="M498.1,191.4c0.4-0.5,0.7-1,1.1-1.5c0.5-0.6,1-0.6,1.4,0c0.3,0.5,0.6,1.2,0.7,1.8c0.2,0.7,0.4,1.5,0.6,2.5
					c0.4-0.4,0.7-0.7,0.9-0.9c1.2-1.5,2.3-3.1,3.6-4.6c1.6-1.9,2.9-1.6,3.7,0.7c0.4,1,0.5,2.1,1,3.3c0.1-0.5,0.2-0.9,0.3-1.4
					c0.2-1.1,0.7-1.3,1.5-0.7c0.8,0.6,1.7,0.7,2.6,0.9c0.9,0.2,1.8,0.8,3,1.3c1.7-0.3,3.2-1.5,4.8-2.6c0.2-0.1,0.3-0.2,0.5-0.3
					c0.7-0.3,1.2-0.2,1.3,0.6c0.1,0.8,0.1,1.6,0.1,2.4c0,0.9-0.1,1.9,0,2.8c0.1,1.1,0.7,1.3,1.5,0.6c0.7-0.6,1.3-1.4,1.9-2.1
					c1-1.1,1.3-1.2,2.6-0.4c1.3,0.8,2.6,0.9,4,0.3c0.7-0.3,1.4-0.6,2-0.9c1.2-0.5,1.9-0.2,2.1,1.1c0.1,0.6,0,1.2,0,1.8
					c0,0.5-0.1,1.1-0.2,1.8c0.5-0.1,0.9-0.1,1.2-0.1c0.3,0.5-0.5,1.5-1.7,2.3c-1-1.9,0.2-3.9-0.5-6c-1,0.4-1.9,0.7-2.7,1.1
					c-1.2,0.7-2.2,0.7-3.4,0.1c-0.6-0.4-1.3-0.6-2.2-1c-0.5,0.5-0.9,1-1.4,1.4c-0.6,0.5-1.1,1.1-1.8,1.5c-1.1,0.6-2,0.2-2.2-1
					c-0.2-1.2-0.1-2.4-0.2-3.6c0-0.5-0.1-1.1-0.1-1.9c-0.6,0.4-1,0.7-1.3,0.9c-1.2,0.7-2.5,1.5-3.7,2.2c-0.8,0.5-1.5,0.3-2-0.4
					c-0.6-0.7-1.4-1-2.3-1.1c-0.9-0.1-1.7-0.4-2.6-0.6c-0.6,1.8-0.3,3.7-1.2,5.3c-0.8-0.1-0.8-0.6-0.8-1.1c-0.1-1.3-0.2-2.7-0.4-4
					c-0.2-1-0.4-1.9-0.8-2.8c-0.3-0.8-0.8-0.9-1.5-0.3c-0.4,0.3-0.8,0.7-1.1,1.1c-1.1,1.4-2.1,2.9-3.2,4.4c-0.8,1-1,2.2-0.6,3.4
					c0.2,0.5,0.3,1.1,0.5,1.6c0.2,0.6,0.3,1.1-0.4,1.3c1.3,4,2.8,7.9,4.6,11.6c1.6,3.5,3.4,6.8,5.1,10.2c0.5,0.9,0.9,1.8,2.2,1.6
					c0.2,9,1.2,17.7,3.4,26.3c-0.4,0.3-0.8,0.2-0.9-0.2c-0.3-0.6-0.6-1.2-0.7-1.8c-1.1-6.5-2.1-13-2.5-19.6
					c-0.1-1.4-0.3-2.7-1.3-3.8c-0.7-0.8-1.1-1.9-1.6-2.9c-2.6-4.9-5-10-7-15.2c-1.9-4.9-3.8-9.7-5.7-14.6
					C498.3,191.9,498.2,191.7,498.1,191.4z M500.5,192.6c-0.8,0.4-0.8,0.4-0.7,0.8c0.3,0.8,0.5,1.8,1.2,2.5
					C501.2,194.5,501.1,193.7,500.5,192.6z"/>
				<path class="st5" d="M558.7,188.2c0.1-1.7,0-3.1,0.2-4.6c0.4-2.5,0.2-4.9-0.2-7.4c-0.6-4.3-1.8-8.4-4-12.2
					c-0.2-0.3-0.3-0.6-0.4-0.9c-1.3-3.6-4.1-6-7.1-8.1c-0.9-0.6-1.9-0.8-3-0.4c-1.3,0.5-3,1.4-3.9,2.4c0.3,0.2,0.6,0.4,0.9,0.6
					c1.6,0.6,3,1.7,4.2,3c1.7,1.9,3.5,3.7,5.2,5.7c0.9,1,1.7,2.1,2.3,3.3c2.3,4.3,3.8,8.8,4.3,13.6c0.1,0.8,0.4,1.6,0.6,2.4
					c0,0.1,0.2,0.3,0.2,0.4c-0.1,0.3-0.2,0.6-0.3,0.8c-0.3-0.1-0.7-0.2-0.7-0.4c-0.3-0.9-0.6-1.8-0.7-2.7c-0.4-3-1.1-5.9-2.1-8.7
					c-0.9-2.5-1.9-5.1-3.6-7.2c-1.5-1.9-3.1-3.6-4.7-5.3c-0.6-0.7-1.2-1.2-1.9-1.9c-1.1-1.1-2.5-1.8-3.9-2.4c-0.4-0.1-0.7-0.4-1-0.7
					c-0.4-0.4-0.3-0.9,0.1-1.2c0.2-0.2,0.4-0.4,0.7-0.5c1.5-0.7,2.9-1.5,4.4-2.2c1.3-0.6,2.6-0.7,3.7,0.6c0.3,0.4,0.8,0.7,1.3,1
					c2.8,1.9,4.8,4.5,6.2,7.5c0.6,1.3,1.3,2.5,1.8,3.8c0.6,1.4,1,2.8,1.5,4.2c0.9,2.6,1.3,5.2,1.4,7.9c0,1.3,0,2.7,0,4
					c0,1.2-0.1,2.3-0.2,3.5C559.9,187,559.8,187.7,558.7,188.2z"/>
				<path class="st5" d="M584.4,240.9c-0.4,0.3-0.6,0.5-1,0.8c-0.7-0.5-1.4-1-2-1.6c-2.5-2.1-4.9-4.1-7.3-6.2c-2.4-2-4.7-4.1-7-6.1
					c-1.3-1.1-2.7-2-4-3c-1-0.7-1.5-1.2-1.9-2c0.8-0.1,1.2-0.7,1.6-1.3c1.1-1.3,2.2-2.5,3.3-3.7c1-1.1,1.6-1.3,3-0.6
					c2.1,1,4.2,2.2,6.3,3.3c2.1,1.2,4,2.5,6,3.7c0.5,0.3,1,0.7,1.4,1.2c0.2,0.2,0.5,0.6,0.4,0.8c-0.4,1.2,0.5,1.9,1.1,2.5
					c1.7,1.8,3.3,3.6,5.4,4.8c0.1,0.1,0.2,0.2,0.5,0.3c-2.1,2.3-4.7,3.8-7.3,5.6C583.4,239.9,583.9,240.4,584.4,240.9z M562.7,222.9
					c0.3,0.2,0.4,0.4,0.6,0.5c2.5,2,5.1,4,7.6,6.1c3.4,2.9,6.7,5.8,10.1,8.7c0.9,0.8,1.6,0.8,2.5,0c1.1-1,2.3-2.1,3.4-3.1
					c0.4-0.3,0.8-0.6,1.3-1c-0.9-0.9-1.6-1.6-2.3-2.2c-1.8-1.7-3.5-3.4-4.6-5.7c-0.2-0.5-0.6-1-1.3-0.8c-0.6,0.2-0.9-0.2-0.9-0.6
					c0-0.9-0.7-1.2-1.3-1.6c-1.1-0.7-2.2-1.5-3.4-2.2c-1.5-0.9-3-1.7-4.5-2.5c-1.2-0.6-2.4-0.4-3.4,0.6
					C565.3,220.5,564,221.6,562.7,222.9z"/>
				<path class="st5" d="M486.1,227.2c-0.4,0.7-0.7,1.2-1,1.7c-0.2,0.3-0.5,0.7-0.9,0.8c-1.7,0.6-2.9,1.8-4.3,2.8
					c-2.1,1.6-4.3,3.1-6.4,4.8c-2,1.6-4,3-5.6,5c-0.4,0.5-0.9,0.8-1.6,1.4c-0.1-0.5-0.2-0.8-0.1-1c0.5-0.9,0.8-2,2-2.3
					c0.2,0,0.4-0.2,0.6-0.4c2.5-2.5,5.5-4.3,8.2-6.5c0.7-0.6,1.4-1.1,2.1-1.7c1.7-1.4,3.3-3,5.8-3.8c-1.1-1-1.9-1.8-2.8-2.6
					c-0.9-0.8-1.7-1.7-2.6-2.7c-0.5,0.6-0.8,1.1-1.3,1.6c-0.2-0.3-0.3-0.5-0.5-0.7c-1.2,0.2-2,1.1-2.9,1.8c-3.2,2.5-6.2,5-9.4,7.5
					c-1.3,1-2.6,1.9-4,2.9c-0.4,0.3-0.7,0.6-1,0.9c1,2.2,3.3,3.5,4.2,6.1c-0.5-0.3-0.8-0.4-1-0.6c-0.7-0.7-1.3-1.6-2.1-2.3
					c-0.7-0.7-1.5-1.4-2.2-2.1c-0.9-0.8-0.9-1.1,0-1.9c1.2-0.9,2.5-1.8,3.7-2.7c4.5-3.4,8.9-6.9,13.3-10.3c0.7-0.6,1.6-0.9,2-1.9
					c0.2-0.5,0.8-0.3,1.2,0c0.8,0.9,1.8,1.7,2.5,2.6c1,1.2,2,2.3,3.4,3C485.7,226.9,485.9,227.1,486.1,227.2z"/>
				<path class="st5" d="M522.7,133.6c1.4,0,2.6,0,3.7,0c0.2,0,0.3-0.1,0.5-0.2c-0.1-2.7,0.6-5.3,1.3-7.8c1.1-3.9,1.9-7.9,2.5-11.9
					c0.2-1.2,0-2.5,0-3.7c0-0.2-0.1-0.5-0.1-0.7c0-0.1,0.2-0.3,0.3-0.4c0.1,0,0.4,0.1,0.5,0.2c0.2,0.5,0.4,1.1,0.4,1.6
					c0,1.3-0.1,2.6-0.3,3.9c-0.7,3.9-1.3,7.9-2.6,11.7c-0.4,1.3-0.7,2.7-0.9,4.1c-0.1,1.1-0.4,2.3,0.8,3.2c0.4,0.3,0.3,0.8-0.3,0.9
					c-1.9,0.4-3.7,0.3-5.5-0.3c-0.9-0.3-1.1-1.4-1.1-2.4c0-0.6,0.1-1.3,0.3-1.9c1.2-5.1,1.6-10.3,2-15.5c0.3-3.2,0.6-6.5,0.9-9.7
					c0.1-0.6,0-1.2,0-1.8c0-0.4,0.1-0.8,0.2-1.4c1.9,1.3,3.9,1.2,5.9,1.3c-1,0.8-3,1-5.3,0.6c-0.1,0.5-0.2,1-0.2,1.5
					c-0.3,4.4-0.6,8.9-0.9,13.4c-0.3,4-0.9,8-1.7,12C522.9,131.2,522.9,132.2,522.7,133.6z"/>
				<path class="st5" d="M494.4,106.7c-1.2,0.1-2.4,0.2-3.5,0.4c-0.6,0.1-1.2,0.3-1.7,0.5c-1.4,0.7-2.8,1.4-4.2,2.2
					c-0.9,0.5-1,0.7-0.5,1.6c0.3,0.6,0.7,1.2,1.1,1.8c0.8,1.1,1.2,2.3,1.5,3.6c0.1,0.3,0.2,0.6,0.1,0.8c-0.5,1,0,1.9,0.4,2.8
					c1.3,3,2.5,5.9,3.8,8.9c0.7,1.6,1.5,3.2,2.4,4.7c0.7,1.3,0.8,1.3,2.2,1c0.8-0.2,1.6-0.3,2.3-0.4c0.4,0,0.8,0,0.8,0.5
					c0,0.2-0.4,0.4-0.6,0.6c-0.1,0.1-0.4,0.1-0.5,0.1c-1.2,0.1-2.3,0.2-3.3,0.9c-0.3,0.2-0.7,0.2-1.1,0.3c-0.2-0.7-0.3-1.3-0.6-1.9
					c-0.2-0.6-0.5-1.1-0.8-1.6c-1.8-4.2-3.6-8.5-5.3-12.7c-0.9-2.3-1.7-4.7-2.6-7.1c-0.2-0.5-0.4-1-0.7-1.6
					c-0.3,0.2-0.5,0.3-0.7,0.4c-0.7-0.9-0.6-2.2,0.3-2.8c0.6-0.4,1.2-0.7,1.8-1c1.4-0.7,2.9-1.3,4.3-2.1c1.8-1,3.6-0.7,5.4-0.1
					C494.4,106.5,494.4,106.6,494.4,106.7z"/>
				<path class="st5" d="M564.6,148.5c1.4,0.9,1.4,0.9,0.6,1.9c-0.8-0.6-1.6-1.1-2.3-1.9c-1.3-1.5-2.8-2.8-4.2-4.2
					c-0.2-0.2-0.3-0.5-0.2-0.7c0.1-0.2,0.5-0.3,0.7-0.3c0.3,0.1,0.7,0.3,0.9,0.6c0.8,0.8,1.6,1.7,2.4,2.5c0.4,0.4,0.8,0.8,1.2,1.2
					c1.3-1.1,2.6-2.1,3.8-3.2c4.5-3.7,9-7.5,13.6-11.2c2-1.6,4.1-3.1,6.2-4.7c0.6-0.5,1.1-1.1,1.7-1.6c0.4-0.3,0.8-0.8,1.6-0.2
					c-0.4,0.4-0.7,0.8-1,1.1c-1.2,0.9-2.4,1.8-3.5,2.7c-4.3,3.3-8.6,6.7-12.8,10.1c-2.7,2.2-5.2,4.5-7.8,6.8
					C565.2,147.6,564.9,148,564.6,148.5z"/>
				<path class="st5" d="M605.9,194.4c-0.3,0.8-0.6,1-1.3,0.9c-1.2-0.2-2.5-0.5-3.7-0.7c-1.9-0.2-3.9-0.4-5.8-0.5
					c-2.1-0.1-4.1-0.2-6.2-0.3c-2.9-0.2-5.8-0.4-8.7-0.5c-1,0-2.1,0.1-3.1,0.7c-0.3,0.2-0.9,0-1.3-0.1c-0.4-0.2-0.4-0.6-0.2-1.1
					c0.1-0.2,0.1-0.4,0.1-0.7c0-2.1,0-4.3,0-6.4c0-0.8,0.1-1.5,0.8-2.2c0.7,0.4,0.6,0.9,0.4,1.4c-0.5,2-0.5,4.1-0.4,6.1
					c0.1,1.4,0.2,1.4,1.5,1.3c1.2,0,2.4,0,3.6,0.1c3.4,0.2,6.8,0.6,10.1,0.8c1.8,0.1,3.6,0,5.4,0.1c1.7,0.1,3.3,0.3,5,0.4
					c1,0.1,1.9,0.2,2.9,0.3C605.3,194.1,605.6,194.3,605.9,194.4z"/>
				<path class="st5" d="M607.4,192.6c0.2-0.7,0.4-1.3,0.6-2c0.3-1,0.6-2,0.8-3.1c0.2-1,0-1.3-1-1.5c-3.2-0.7-6.3-1.4-9.5-2
					c-1.9-0.3-3.9-0.3-5.8-0.5c-2.8-0.3-5.6-0.7-8.5-0.9c-1.6-0.1-3.1-0.1-4.7-0.1c-0.5,0-1,0-1.5,0c-0.2,0-0.5-0.2-0.5-0.4
					c0-0.2,0.2-0.5,0.3-0.5c0.6-0.1,1.2-0.3,1.8-0.2c4.4,0.4,8.8,0.9,13.2,1.3c1.3,0.1,2.6,0.1,3.9,0.3c2.4,0.4,4.8,0.8,7.1,1.2
					c2,0.3,3.9,0.7,5.9,0.9c0.8,0.1,1.1,0.4,0.9,1.2c-0.3,1.2-0.8,2.5-1.3,3.7c-0.4,0.9-0.9,1.8-1.3,2.7
					C607.6,192.7,607.5,192.6,607.4,192.6z"/>
				<path class="st5" d="M446.2,205.7c0.3,0.6,0.5,1,0.6,1.4c0,0.2-0.1,0.5-0.2,0.7c-0.2-0.1-0.5-0.1-0.6-0.2c-0.6-1-1.2-2-1.7-3
					c-0.6-1.5-1-3.1-1.6-4.6c-0.4-1-0.8-2-1.2-3c-0.1-0.3-0.3-0.6-0.3-0.9c0-0.2,0.2-0.5,0.3-0.5c0.2-0.1,0.5,0.1,0.6,0.2
					c0.3,0.7,0.7,1.3,0.9,2c0.6,1.8,1.1,3.6,1.7,5.5c0.4,1.3,0.6,1.4,1.8,1c1.9-0.6,3.7-1.2,5.5-1.9c3.8-1.4,7.6-2.8,11.2-4.7
					c0.8-0.4,1.5-0.8,2.3-1.2c0.4,0.7,0.5,1.1-0.1,1.4c-2.8,1.3-5.6,2.6-8.4,3.8c-2,0.9-4.1,1.5-6.1,2.3c-0.8,0.3-1.4,0.9-2.2,1.2
					C448,205.3,447.2,205.4,446.2,205.7z"/>
				<path class="st5" d="M469.4,164.8c-1.4-0.6-1.9-1.5-1.4-3c0.3-0.7,0.6-1.4,1-2.2c1.1-2.3,2.3-4.5,3.6-7
					c-0.1-0.1-0.2-0.4-0.5-0.7c-1.7-1.5-3.4-3-5.1-4.5c-0.7-0.6-1.7-1-2.5-1.5c-1.7-1.1-3.4-2.2-5.2-3.3c-0.4-0.3-0.7-0.6-1.2-1
					c0.8-0.5,1.3-0.4,1.8,0c2.5,1.8,5.1,3.5,7.6,5.2c1.2,0.8,2.2,1.8,3.4,2.7c1.2,1,2.5,2,3.7,3c0.3,0.2,0.6,0.5,0.8,0.8
					c0.1,0.2,0.2,0.6,0.1,0.8c-0.1,0.2-0.5,0.4-0.7,0.3c-1.6-0.7-2.2,0.5-2.8,1.5c-1.2,1.9-1.8,4.1-2.4,6.2c-0.1,0.4,0,0.9,0.1,1.3
					C469.7,164,470,164.5,469.4,164.8z"/>
				<path class="st5" d="M464.2,186.6c0.1-0.4,0.1-0.7,0.2-1c0.1-0.2,0.3-0.5,0.5-0.5c0.2,0,0.5,0.2,0.6,0.4
					c0.2,0.4,0.5,0.8,0.6,1.3c0.5,1.6,1,3.3,1.5,4.9c0.2,0.6,0.3,1.1,0.9,1.3c0.1,0,0.3,0.2,0.3,0.3c0,0.3,0.1,0.7-0.1,0.9
					c-0.1,0.1-0.7,0.2-0.8,0c-0.5-0.6-1-1.2-1.3-1.9c-0.5-1-0.8-2.1-1.2-3.1c-0.5-1.3-0.8-1.4-2.1-1c-3.2,1.1-6.5,2.3-9.7,3.5
					c-2.1,0.8-4.2,1.8-6.3,2.7c-0.2,0.1-0.3,0.2-0.5,0.2c-0.3,0-0.7,0-0.8-0.2c-0.3-0.4,0-0.7,0.3-0.9c0.4-0.2,0.8-0.4,1.3-0.6
					c2.2-0.8,4.3-1.7,6.5-2.5c2.8-1,5.6-2,8.4-3C463,187,463.6,186.8,464.2,186.6z"/>
				<path class="st5" d="M587,122.4c-0.1,0-0.2,0.1-0.2,0.1c-1.2-1-2.1-0.4-3.2,0.4c-3.6,2.9-7.3,5.7-11,8.5
					c-3.4,2.6-6.5,5.6-9.6,8.7c-0.4,0.4-0.7,0.8-0.9,1.2c-0.3,0.6-0.8,0.9-1.4,1c-0.2,0.1-0.6,0-0.7-0.2c-0.1-0.1,0-0.5,0.1-0.7
					c0.1-0.2,0.3-0.4,0.6-0.6c2.8-2.5,5.6-5.1,8.5-7.6c2.5-2.2,5.2-4.2,7.8-6.3c2.4-1.9,4.8-3.8,7.1-5.8
					C585.4,120,586.5,120.4,587,122.4z"/>
				<path class="st5" d="M542.4,150.7c-0.5,0.4-0.8,0.6-1.1,0.8c-0.7,0.3-1.5,0.5-2.2,0.9c-1,0.6-2.1,1.2-3,1.9
					c-0.5,0.3-0.8,0.5-1.2,0c-0.4-0.5-0.8-0.5-1.4-0.6c-1.7-0.2-3.4-0.6-4.7-1.8c-0.7-0.7-0.7-0.9-0.2-1.7c0.7-1.1,1.8-1.7,3-1.9
					c1.3-0.2,2.6-0.4,3.9-0.3c1,0.1,2,0.5,3.1,0.9c0.9,0.3,1.8,0.5,2.6,0.9C541.6,149.9,541.9,150.2,542.4,150.7z M529.8,150.8
					c1.6,2.6,6.5,3,9.8-0.2c-0.5-0.2-1.1-0.4-1.5-0.7c-2.2-1.2-4.4-0.9-6.6-0.4C530.7,149.7,530.2,150.1,529.8,150.8z"/>
				<path class="st5" d="M493.4,107.2c0.3,0.6,0.5,0.9,0.7,1.4c0.6,2.2,1.3,4.5,1.8,6.7c1.3,5.6,2.8,11.2,5,16.5
					c0.2,0.4,0.7,0.8,1.2,1.3c0.1,0.6-0.6,1-1.2,1.4c-0.2-0.3-0.4-0.5-0.5-0.7c-0.9-2.6-1.8-5.2-2.6-7.8c-0.9-3-1.6-6-2.4-9
					c-0.7-2.6-1.5-5.3-2.2-7.9C492.9,108.6,492.6,108,493.4,107.2z"/>
				<path class="st5" d="M446.6,147.3c-0.4-0.6,0-0.9,0.3-1.2c1.2-1.1,2.4-2.1,3.7-3.2c0.3-0.3,0.7-0.5,1-0.7
					c1.1-0.4,2.2-0.9,3.4-1.3c0.6-0.2,1.2-0.2,1.5,0.7c-0.2,0.1-0.4,0.3-0.7,0.4c-0.7,0.2-1.4,0.4-2.1,0.6c-2,0.5-3.3,1.9-4.7,3.4
					c-0.3,0.3-0.3,0.7-0.6,1.2C447.9,147.2,447.2,147.3,446.6,147.3z"/>
				<path class="st5" d="M453.8,154.9c-2.4-0.9-4.7-2-6.8-3.3c-0.8-0.5-1.6-0.9-2.4-1.4c-0.2-0.1-0.5-0.3-0.7-0.5
					c-0.3-0.3-0.1-0.8,0.4-0.8c0.4,0,0.9,0.2,1.3,0.4c1,0.5,2,1,3,1.6c0.2,0.1,0.5,0.2,0.6,0.4c0.7,1.3,2,1.7,3.2,2.3
					c0.6,0.3,1.1,0.7,1.7,1.1C453.9,154.7,453.8,154.8,453.8,154.9z"/>
				<path class="st5" d="M466.6,162.8c-3.7-2.4-7.4-4.8-11.1-7.2c0-0.1,0-0.1,0.1-0.2c0.7,0.3,1.4,0.5,2.1,0.9
					c1.9,1.1,3.8,2.2,5.6,3.3c0.4,0.2,0.7,0.5,1.1,0.6c1,0.1,1.5,0.8,2.3,1.3C467.3,162.1,467.1,162.5,466.6,162.8z"/>
				<path class="st5" d="M588.4,125.4c-0.4-0.4-0.7-0.6-0.7-0.8c-0.3-0.7-0.5-1.4-1.3-1.7c-0.2-0.1-0.3-0.5-0.3-0.7
					c0-0.6,0.1-1.2,0.2-1.9C587.6,121.7,588.6,123.2,588.4,125.4z"/>
			</g>
			<g>
				<g>
					<path class="st6" d="M521.4,258.1c-0.2,0-0.5,0-0.7,0c-1.7-0.2-3-1.1-3.8-2.6c-0.7-1.3-0.5-2.9,0.5-4c0.6-0.6,1.2-1.2,1.8-1.8
						c-3.2,2.2-5.6,3.1-7.7,2.7c-1.3-0.2-2.4-1-3.1-2.2c-0.7-1.3-0.5-2.9,0.5-4l10.6-10.6c-5.6,3.2-10.1,5.5-11.4,6.2
						c-1.4,0.7-3.2,0.3-4.1-1c-0.9-1.3-0.8-3.1,0.4-4.3c5.6-5.5,24.8-23.5,34.2-22.2c0.1,0,0.3,0,0.4,0.1c3.1-2.8,5.3-5.3,6-7.4
						c-3.5,1.2-12.4,6.1-35,22.1c-4.5,3.2-4.5,3.2-6,2.9c-0.9-0.2-1.7-0.8-2.1-1.6c-0.8-1.3-1.2-2.7-1.2-4.2c-0.9,0.2-1.7,0.2-2.5,0
						c-1.5-0.3-2.8-1.2-3.5-2.5c-0.5-0.8-0.6-1.8-0.3-2.7c0-0.1,0.1-0.3,0.1-0.4c-0.9,0.1-1.4,0-1.9-0.1c-1.1-0.3-2-0.9-2.6-1.9
						c-0.8-1.5-0.4-3.3,0.9-4.3l10.3-7.5c-3.7,2.2-7.2,4.3-10.4,6.3c-1.6,0.9-3.6,0.4-4.5-1.1c-0.9-1.5-0.4-3.6,1.1-4.5
						c27.5-16.8,57.8-38,61.3-44.7c-1.4-0.1-6.1,0.5-19,8.3l-44.9,32.7c-1.4,1-3.4,0.8-4.5-0.6c-0.9-1.2-0.9-2.9,0-4
						c-2.9,1-4,0.7-4.8,0.6c-1.2-0.3-2.2-1-2.7-2c-1.5-2.6,0.3-4,3.3-6.1c-0.9-0.1-1.7-0.6-2.3-1.4c-1-1.5-0.7-3.4,0.7-4.5
						c3-2.2,6-4.5,9.1-6.8c-2.6,1.4-4.8,2.1-6.8,1.8c-1.9-0.3-3.5-1.4-4.4-3.1c-0.9-1.5-0.4-3.4,1-4.3l5.3-3.7
						c-0.3-0.3-0.5-0.5-0.7-0.9c-2.1-3.6,0.4-7.7,4.5-11.7c-0.6-1.5-0.1-3.3,1.4-4.1c1-0.6,2.3-0.6,3.3,0c0,0,0,0,0.1,0
						c1-0.8,2-1.6,3-2.3c6.8-5.1,13.9-9.3,14.2-9.5l0,0c0.8-0.5,1.4-0.6,2.3-0.4c0.9,0.2,1.8,0.8,2.2,1.6c0.9,1.6,0.4,3.5-1.2,4.5
						c0,0,0,0,0,0c-0.3,0.2-0.7,0.5-1.3,1c-7.3,5.8-12.2,9.2-15.7,10.8c-0.4,0.3-0.8,0.7-1.2,1c6.2-3.7,14.4-8.8,19.7-12.2
						c2.3-1.5,4.2-2.7,5.8-3.7c4.9-3.5,8.9-5.3,12.5-4.8c2.3,0.3,4.2,1.7,5.5,3.9c1.7,2.9-0.4,5.3-8.4,12.2
						c-0.9,0.8-1.9,1.6-2.9,2.5c17.1-9.9,18.2-9.6,19.7-9.2c0.9,0.2,1.7,0.8,2.1,1.6c0.7,1.3,0.5,2.9-0.5,3.9
						c1.2-0.2,2.5,0.2,3.3,1.3c0.3,0.4,0.5,0.9,0.6,1.5c1.2-0.2,2.3-0.2,3.2,0c2.7,0.5,4,2,4.7,3.2c1.3,2.2,1.6,5-4.4,11.2
						c2.4-1.1,2.9-0.9,3.6-0.7c0.9,0.2,1.6,0.8,2.1,1.6c0.8,1.5,0.4,3.3-0.9,4.3l-15.9,11.5c3.8-2.5,7.6-5,11.3-7.6
						c0.8-0.5,1.7-0.7,2.6-0.5c0.9,0.2,1.7,0.8,2.1,1.6c0.8,1.5,1,3.2,0.5,4.9c-0.1,0.5-0.3,1-0.6,1.5c0.3,0.3,0.5,0.6,0.7,0.9
						c0.6,1,0.7,2.2,0.4,3.3c-0.7,2.5-3.6,4.6-10.8,8.4c0.9-0.1,1.7-0.1,2.3,0c1.3,0.3,2.3,1,2.9,2.1c0.8,1.3,1.5,3.5,0.6,6.5
						c-0.9,3.1-3.7,6.6-7.5,10c0.2,1-0.2,2.1-0.9,2.8l-7.8,7.7c2-1.1,3.5-1.5,5-1.2c1.3,0.2,2.3,1,2.9,2.1c1.2,2.1,0.7,3.5-5.1,9.6
						c0.9-0.1,1.8,0.3,2.5,1c1.3,1.3,1.3,3.4,0,4.6C536.7,249.3,527.3,258.1,521.4,258.1z M524.3,211.4c-0.2,0.1-0.4,0.3-0.6,0.4
						c0.4-0.3,0.8-0.6,1.3-0.8C524.8,211.2,524.5,211.3,524.3,211.4z M512.4,154.4c-3.5,3.1-7.1,6.5-10.1,9.3
						c-3,2.8-5.7,5.4-8.2,7.6c14.2-11,26.6-21,31.2-25.5c-0.2,0-0.5,0.1-0.7,0.2L512.4,154.4z"/>
				</g>
			</g>
		</g>
		<g>
			<g>
				<path class="st4" d="M561.4,268.6l-20.4,0.7c-7.1,0.1-12.9-5.5-13.1-12.6l-0.1-4.3c0-0.2,0-0.4,0-0.5l25.7-0.4L561.4,268.6z"/>
			</g>
			<polygon class="st4" points="540.6,259.6 548.4,282.9 565.2,277.3 553.8,251.5 			"/>
			<path class="st4" d="M565.1,336.9v-59.8c-1.4-0.3-2.9-0.5-4.4-0.5c-14.6,0-26.5,15.6-26.5,34.8c0,10,3.2,19.1,8.4,25.4H565.1z"/>
		</g>
		<g>
			<path class="st4" d="M482.6,304c0,4.1,3.3,7.4,7.4,7.4l5.8,0c4.1,0,7.4-3.3,7.4-7.4l0,0c0-4.1-3.3-7.4-7.4-7.4H490
				C485.9,296.6,482.6,299.9,482.6,304L482.6,304z"/>
			<path class="st4" d="M482.6,247.6c0,4.1,3.3,7.4,7.4,7.4h5.8c4.1,0,7.4-3.3,7.4-7.4l0,0c0-4.1-3.3-7.4-7.4-7.4H490
				C485.9,240.2,482.6,243.5,482.6,247.6L482.6,247.6z"/>
			<path class="st4" d="M482.6,285.4c0,4.1,3.3,7.4,7.4,7.4h17c4.1,0,7.4-3.3,7.4-7.4l0,0c0-4.1-3.3-7.4-7.4-7.4l-17,0
				C485.9,278,482.6,281.4,482.6,285.4L482.6,285.4z"/>
			<path class="st4" d="M482.6,266.9c0,4.1,3.3,7.4,7.4,7.4h13.8c4.1,0,7.4-3.3,7.4-7.4l0,0c0-4.1-3.3-7.4-7.4-7.4H490
				C485.9,259.5,482.6,262.8,482.6,266.9L482.6,266.9z"/>
		</g>
	</g>
	<g>
		<path class="st0" d="M398.8,117.8c-3.5-1.7-6.8-2.2-10.1-1.7c-1,0.2-2.1,0.5-3,0.9c-1.9,0.8-3.7,2.1-5.6,3.9
			c-1.8,1.8-2.8,4.1-2.7,6.5c0,1,0.3,1.9,0.5,2.6l0.1,0.5c1.2,4.9,4.5,8.7,9.9,11.1c0.8,0.4,0.8,0.5,0.8,0.5
			c0.1,0.4,0.3,0.6,0.4,0.9c0.3,0.8,0.8,1.5,1.2,2c0.2,0.2,0.4,0.6,0.4,0.6c0,1.5,1,2.4,1.3,2.7c0.2,0.2,0.4,0.4,0.6,0.7
			c0.3,0.4,0.7,0.7,0.8,1c1.4,2.2,4.2,3.2,6.5,2.4c0.7-0.2,1.4-0.5,2.2-0.7c0.6-0.1,1.1-0.3,1.6-0.5c1.6-0.7,2.8-1.7,3.6-3.1
			c0.5-0.9,1.7-3,0.3-5.5c-0.2-1-0.5-1.7-0.9-2.2c-0.1-0.7-0.4-2.4-0.4-2.4c-0.1-0.8-0.2-1.6-0.4-2.4c-0.1-0.4-0.2-0.8-0.2-1.2
			c-0.1-0.5-0.2-1-0.3-1.5c-0.4-3.1-0.9-6.4-2.1-9.7C402.6,121.5,401.5,119.1,398.8,117.8z"/>
		<g>
			<path class="st1" d="M404.2,141.8c1,0.2,0.6,1.3,1,1.9c0.7,1.1,0.3,2-0.2,2.8c-0.7,1.3-1.9,1.9-3.3,2.2c-0.8,0.2-1.6,0.5-2.4,0.7
				c-1.1,0.4-2.4-0.2-3.1-1.2c-0.5-0.7-1.1-1.3-1.7-2c-0.2-0.2-0.6-0.4-0.6-0.7c0.1-1.6-1.4-2.5-1.8-3.9c-0.1-0.2-0.3-0.4-0.4-0.7
				c-0.4-1.1-1.3-1.7-2.4-2.2c-4-1.9-7.1-4.6-8.2-9.2c-0.2-0.8-0.5-1.7-0.5-2.5c0-1.7,0.7-3.2,1.9-4.4c2-1.9,4.2-3.5,7-4
				c3-0.5,5.7,0.2,8.4,1.5c1.6,0.8,2.4,2.2,2.9,3.7c1.1,2.9,1.6,6,2,9c0.1,1,0.4,1.9,0.5,2.8c0.2,0.9,0.3,1.9,0.4,2.8
				C403.9,139.7,404.1,140.6,404.2,141.8z M393.9,141.5c0.5,1.8,1.4,1.7,2.8,1.4c1.2-0.3,2.3-0.7,3.4-1.3c2-1,2.8-2.6,2.3-4.3
				c-0.4-1.5-0.6-3-0.6-4.5c0-0.7-0.3-1.4-0.5-2.1c-0.1-0.4-0.2-0.9-0.4-1.3c-0.5-1.7-0.8-3.5-1.4-5.1c-0.4-1.2-1-2.3-2.2-2.8
				c-2.5-1.1-5.1-1.8-7.9-1.2c-1.5,0.3-2.9,0.7-3.3,2.4c-0.3,0.9-0.8,1.1-1.6,0.7c-0.3-0.1-0.8-0.1-1,0.1c-0.9,0.9-1.7,1.8-1.6,3.2
				c0.4,2.9,1.2,5.5,3.3,7.7c1.6,1.7,3.6,2.9,5.5,4.1C392.1,139.2,393.2,140.2,393.9,141.5z M395.9,144.8c0.4,0.3,1,0.6,1,0.9
				c0.1,1.2,1.4,0.9,1.8,1.6c1.6,0,3.3,0,4.7-0.8c0.6-0.3,0.8-0.8,0.4-1.5c-0.2-0.4-0.3-0.9-0.5-1.5c-1,0.6-1.4-0.4-1.8-0.7
				C399.6,143.4,397.7,144.1,395.9,144.8z"/>
			<path class="st1" d="M392.9,130.5c0.1-0.4,0.1-0.6,0.2-0.9c0-0.2,0-0.5,0.1-0.6c0.8-0.5,1.6-1.1,2.4-1.7c0.4-0.3,0.9,0.2,1.1,0.7
				c1.1,2.3,1.7,4.6,2.4,7c0.4,1.6,1,3.2,1.5,4.8c0.1,0.2,0.1,0.5,0.1,0.7c-0.8,0.1-0.8,0.1-1.6-0.2c-0.2,0.3-0.5,0.6-0.8,1
				c-0.5-0.4-1-0.7-1.3-1.1c-1.7-1.8-3.3-3.7-5-5.5c-0.8-0.8-1.8-1.5-2.6-2.3c-0.9-0.7-0.8-1,0.2-1.6c0.2-0.1,0.4-0.2,0.5-0.3
				c1.1-1,1-1,2.3-0.2C392.5,130.5,392.6,130.5,392.9,130.5z M398.9,138.8c-0.7-2.5-1.3-5-2-7.4c-0.2-0.7-0.4-1.6-1.3-1.7
				c-0.9-0.1-1.2,0.8-1.5,1.5c-0.4,0.9-0.7,1-1.7,0.8c-0.3-0.1-0.6-0.1-1.3-0.2c0.5,0.6,0.7,0.8,0.9,1.1c0.6,0.7,1.3,1.5,1.9,2.2
				c1,1.2,2.1,2.4,3.1,3.5C397.4,139,398,139.2,398.9,138.8z"/>
		</g>
		<g>
			<g>
				<path class="st6" d="M392.4,143.5c-1.3,0-2.1-0.2-2.8-0.9c-0.6-0.5-1-1.3-1-2.1c0-0.3,0-0.6,0.1-0.9c-0.2-0.1-0.5-0.2-0.7-0.3
					c-0.7-0.4-1.8-1.3-1.8-3.5c0-1.3,0.3-3.4,0.8-6.5c0.1-0.5,0.2-1.1,0.3-1.7c-1,0.5-2.1,0.7-3.2,0.1c-0.9-0.5-1.5-1.5-1.5-2.6
					c0-1.1,0.5-2.2,1.4-2.9c1-0.8,2.4-1.1,4.1-1c0.6-0.2,1.1-0.3,1.7-0.2c0.3-0.3,0.8-0.6,1.2-0.7c0.6-0.6,1.5-1.1,2.7-0.8
					c0.7,0.2,1.8,0.7,2.1,2.2c0.1,0.1,0.3,0.1,0.4,0.2c0.5,0.3,1.7,1.1,1.7,3.1c0,0.8-0.4,1.6-1,2.2c-0.9,0.7-1.7,0.7-3,0.5
					c-0.3,0.2-0.7,0.4-1,0.6c-0.1,0.6-0.2,1.2-0.3,1.9c-0.1,0.7-0.2,1.5-0.3,2.3c1.1-0.5,2.3-0.8,3.5-0.1c0.7,0.4,1.9,1.3,1.9,3.5
					c0,0.6-0.2,1.2-0.5,1.8c4-0.4,6-0.5,7.3,0.7c0.6,0.6,1,1.4,1,2.2c0,1.5-1.2,2.7-2.7,2.7c-0.6,0-1.1-0.2-1.5-0.4
					c-1,0-3.1,0.2-4.4,0.4C394.7,143.4,393.4,143.5,392.4,143.5z"/>
			</g>
		</g>
	</g>
	<g>
		<g>
			<path class="st6" d="M287.2,168.3c-0.8,0-1.5-0.4-1.9-1.2c-0.5-1-0.2-2.3,0.8-2.9l0.1-0.1c-0.6-0.1-1.2-0.4-1.5-1
				c-0.6-1-0.3-2.3,0.7-2.9c1.7-1.1,3.4-2.2,5-3.3c-1.9,1.1-2.2,1-2.9,0.8c-0.6-0.1-1.1-0.5-1.4-1c-0.6-1-1.4-2.4,3.5-7.5
				c-0.5,0.4-1,0.9-1.5,1.3c-0.4,0.4-0.9,0.7-1.2,1.1c-0.3,0.3-0.5,0.5-0.8,0.8c-0.5,0.5-1.1,0.7-1.8,0.6c-0.7-0.1-1.2-0.5-1.6-1.1
				c-0.6-1-0.5-1.7,0.4-2.6l0,0c0,0,0.1-0.1,0.1-0.1c0.2-0.2,0.4-0.4,0.6-0.6c1.1-1,2.6-2.5,4.4-4c-0.4-0.1-0.9-0.3-1.2-0.7
				c-0.8-0.9-0.7-2.2,0.1-3c4.3-3.9,7.5-5.8,9.4-5.5c0.9,0.1,1.6,0.6,2,1.3c0.1,0.2,0.2,0.5,0.3,0.7c1.3-0.5,2.6-0.8,3.6-0.6
				c1.3,0.2,2.4,0.9,3,2c0.5,0.9,0.3,2.1-0.5,2.8c-2.1,1.7-4.3,3.5-6.4,5.3c7.5-4.7,8.1-4.7,9.2-4.4c0.6,0.1,1.1,0.5,1.4,1
				c0.5,0.8,1.3,2.2-1.9,5.7c0.2,0.2,0.4,0.4,0.5,0.6c0.6,1.1,0.8,2.4,0.3,3.7c-0.5,1.5-1.7,3-3.4,4.5c-0.2,0.4-0.5,0.7-0.9,1
				l-0.9,0.5c-5.3,4.1-12.9,7.7-14.9,8.6C287.8,168.2,287.5,168.3,287.2,168.3z"/>
		</g>
	</g>
	<g>
		<path class="st0" d="M755.2,158.1c-1.3-4.2-3.7-7.1-7.1-8.6c-0.8-0.4-1.7-0.6-2.5-0.9c-0.6-0.2-1.2-0.4-1.7-0.6
			c-1.5-0.6-3.1-0.9-4.7-0.9c-2.1,0-4.3,0.5-6.8,1.7c-1.9,0.9-3.3,2.2-4.3,4c-1.4,2.5-2,5.2-1.8,7.9c0.2,2.5,0.9,4.9,1.5,7.2
			c0.2,0.6,0.3,1.2,0.5,1.8c0.2,0.7,0.5,1.2,0.8,1.6c-0.4,0.4-0.6,0.9-0.6,1.4l0,0.4c-0.1,1,0.5,1.9,1.3,2.3
			c0.2,0.1,0.4,0.2,0.6,0.2c-0.8,0.3-1.5,1-1.8,1.7c-0.6,1.4,0.2,2.7,1,3.3c-0.2,0.4-0.3,0.8-0.3,1.2c0.1,0.8,0.5,1.5,1.3,1.9
			c2.8,1.4,5.3,2,7.4,2.4c0.1,0,0.3,0,0.4,0c0.7,0,1.3-0.3,1.7-0.8c0.5-0.6,0.7-1.4,0.4-2.2c0.8-0.1,1.8-0.2,2.7-0.8
			c1-0.6,1.4-1.8,1-2.8c-0.1-0.3-0.3-0.6-0.6-1c0.1-0.1,0.1-0.2,0.2-0.3c0.1-0.3,0.3-0.6,0.4-0.9c0.6-1.2,1.1-2.5,1.4-4
			c0.1-0.1,0.2-0.3,0.4-0.4c0.9-0.6,1.8-1.2,3.2-1.9c1.7-0.9,3.6-2.1,4.9-4.1C755.8,164.4,756.2,161.3,755.2,158.1z"/>
		<g>
			<path class="st1" d="M730.8,181c0.9-0.6,1.4-0.9,2.1-1.4c-0.6-0.3-1-0.6-1.4-0.8c-0.4-0.2-0.8-0.4-1.2-0.6
				c-0.2-0.1-0.4-0.5-0.4-0.7c0.1-0.3,0.4-0.5,0.7-0.6c0.7-0.2,1.5-0.2,2.2-0.3c0.3-0.1,0.6-0.2,1.3-0.3c-0.9-0.7-1.5-1.1-2.1-1.6
				c0.2-1,1-0.7,1.5-0.8c0.6-0.1,1.2-0.1,1.8-0.2c-1.7-0.6-3.6-0.4-5.3-1.1c0-0.2,0-0.3,0-0.5c0.5,0,0.9-0.1,1.4-0.1
				c1.5,0.1,2.9,0.3,4.4,0.4c1,0.1,1.3-0.2,1-1.2c-0.8-2.6-1.6-5.1-2.6-7.6c-0.4-1-1.4-1.8-2-2.8c-0.3-0.5-0.4-1.1-0.5-1.6
				c0.3-0.1,0.5-0.3,0.5-0.2c0.9,0.6,1.9,1.2,3.1,0.4c0.4-0.3,0.9,0.1,1,0.6c0.1,0.4,0.1,0.8,0.1,1.4c0.6-0.3,1.2-0.4,1.7-0.7
				c0.5-0.3,1-0.2,1.3,0.3c0.9,1.2,1.1,1.2,2.5,0.7c0.3-0.1,0.6-0.3,0.9-0.4c0.3-0.2,0.6-0.3,0.9-0.5c0.8,0.9,0.3,1.7-0.1,2.4
				c-0.8,1.8-1.8,3.6-2.6,5.4c-0.6,1.2-1.2,2.3-0.8,3.9c0.4-0.3,0.7-0.4,0.8-0.6c1.1-2,3-3,4.9-4.2c0.6-0.4,1.3-0.7,2-1.1
				c2.5-1.3,3.4-3.5,3.3-6.1c-0.1-3.4-1.8-6-4.4-8.1c-0.2-0.2-0.7-0.5-0.9-0.4c-1,0.3-1.5-0.3-2.3-0.7c-3.1-1.7-6.4-2.2-9.8-0.6
				c-2.5,1.1-3.7,3.1-4.3,5.6c-0.4,2-0.5,4.1,0,6.1c0.6,2.2,1,4.4,1.5,6.7c0,0.2,0,0.4-0.3,0.8c-0.4-0.5-1-1-1.1-1.5
				c-0.7-2.9-1.6-5.7-1.9-8.7c-0.2-2.2,0.3-4.5,1.5-6.6c0.8-1.4,1.9-2.4,3.3-3.1c3.1-1.5,6.3-2.1,9.6-0.7c1.4,0.6,2.8,0.9,4.2,1.5
				c3.1,1.4,4.9,4,5.9,7.2c0.8,2.4,0.6,4.9-0.8,7.1c-1,1.5-2.5,2.5-4.1,3.3c-1.2,0.6-2.4,1.3-3.5,2.1c-0.6,0.4-1.2,1.1-1.3,1.7
				c-0.2,1.6-1,2.9-1.7,4.5c-2.7,0.8-5.7,0.2-8.9,1.1c0.6,0.3,0.9,0.6,1.2,0.6c2.1,0.2,4.3,0.4,6.5,0.5c0.6,0.1,1.3-0.2,1.7,0.7
				c-1.1,0.6-2.3,0.5-3.4,0.6c-1.1,0.1-2.3,0-3.4,0.6c0.7,1.2,2.5,0.6,3.1,2.2C735.2,182.8,733.2,182.2,730.8,181z M735.2,163
				c0.4,2.2,2.7,8.1,3.4,8.8c0.5-1.3,1.1-2.6,1.7-3.9c0.5-1.1,1.1-2.2,1.6-3.4c0.2-0.4,0.2-0.9,0.3-1.4c-0.4-0.1-0.6-0.2-0.7-0.1
				c-1.1,0.1-2.3,0.4-3.2-0.6c-0.1-0.1-0.4-0.2-0.6-0.1C736.9,162.5,736.1,162.7,735.2,163z"/>
		</g>
		<g>
			<g>
				<path class="st6" d="M736.6,177c-0.2,0-0.3,0-0.5,0c-0.8-0.1-1.5-0.6-1.9-1.3c-0.5-0.8-0.4-1.8,0.2-2.5l3.2-4
					c-0.6,0.2-1.1,0.2-1.6,0.2c-0.8-0.1-1.5-0.6-2-1.4c-0.1-0.1-0.1-0.2-0.2-0.3c-0.7,0.3-1.4,0.4-2.1,0.3c-0.9-0.1-1.7-0.7-2.1-1.5
					c-1-1.8-0.1-3.4,2-5.3c-0.3-0.2-0.5-0.4-0.7-0.7c-0.4-0.7-0.7-1.2-0.1-2.4c-0.5-0.3-1-0.7-1.3-1.2c-0.6-1.1-0.3-2.5,0.8-3.1
					c0.6-0.4,1.4-0.4,2-0.1c1-0.6,3-2.2,4.1-3.1c2.5-2.1,3.7-3.1,5.2-2.8c0.7,0.1,1.3,0.6,1.7,1.2c0.3,0.5,0.4,1.1,0.3,1.6
					c1.8-0.9,2-0.9,2.5-0.7c0.6,0.2,1.1,0.5,1.4,1.1c0.7,1.3,0.5,2.5-0.3,3.7c0.4,0.3,0.8,0.6,1,1.1c0.4,0.6,0.4,1.4,0.1,2.1
					c0.5,0.3,1,0.7,1.3,1.2c0.5,0.8,0.4,1.8-0.2,2.5l-6.3,8c0.3,0.2,0.5,0.4,0.7,0.7c0.6,1.1,0.3,2.5-0.8,3.1
					c-0.1,0.1-0.3,0.1-0.4,0.2c-0.2,0.2-0.6,0.5-0.8,0.7C739.6,175.8,738.1,177,736.6,177z"/>
			</g>
		</g>
	</g>
	<g>
		<defs>
			<rect id="SVGID_1_" x="243.7" y="154.4" width="187.6" height="203.8"/>
		</defs>
		<clipPath id="SVGID_2_">
			<use xlink:href="#SVGID_1_"  style="overflow:visible;"/>
		</clipPath>
		<g class="st7">
			<path class="st2" d="M331.4,250.5l-23.2,13.2c-7.9,4.5-10.6,14.5-6.2,22.4l0.3,0.6l-9.3,33.9l42.5,11.7l5.1-18.7l20.1-11.4
				c7.9-4.5,10.6-14.5,6.2-22.4l-13.2-23.2C349.3,248.8,339.3,246,331.4,250.5z"/>
			<path class="st2" d="M386.2,276.8c0.3,3.3-2,6.2-5.3,6.5l-43.5,4.7c-3.3,0.4-6.2-2-6.5-5.3l0,0c-0.3-3.3,2-6.2,5.3-6.5l43.5-4.7
				C382.9,271.1,385.8,273.5,386.2,276.8L386.2,276.8z"/>
			<path class="st2" d="M391.7,258.5c0.4,3.3-2,6.2-5.3,6.5l-43.5,4.7c-3.3,0.4-6.2-2-6.5-5.3l0,0c-0.4-3.3,2-6.2,5.3-6.5l43.5-4.7
				C388.4,252.9,391.3,255.3,391.7,258.5L391.7,258.5z"/>
			<path class="st2" d="M404.6,227.7c0.4,3.3-2,6.2-5.3,6.5l-43.5,4.7c-3.3,0.4-6.2-2-6.5-5.3l0,0c-0.4-3.3,2-6.2,5.3-6.5l43.5-4.7
				C401.3,222.1,404.3,224.4,404.6,227.7L404.6,227.7z"/>
			<g>
				<g>
					<path class="st0" d="M400.5,222.4c0.8-4.9,0.5-9.4,0.2-13.9l-0.1-1.1c-0.5-8-2.2-14.4-5.4-20.1c-2.7-4.9-6.3-8.4-10.9-10.4
						c-3-1.3-6.6-2.8-10.5-3.8c-3.5-0.9-6.8-1.2-10.1-0.9c-0.2,0-0.6,0-1-0.1c-1.1-0.8-2.3-1.4-3.7-1.7c-2.4-0.6-4.6-0.2-6.4,0.1
						c0,0-0.7,0.1-0.9,0.1c-0.5-0.2-1-0.4-1.5-0.5c-3.5-0.9-6.4,0.4-8,1.1c-5.1,2.3-9.4,5.7-13,10.5c-0.7,0.9-1.7,1.9-2.7,2.9
						l-0.9,0.8c-3.5,3.5-7.6,8.4-7.6,15.7c0,2.2-0.1,3.8-0.5,5.2c-0.8,3.2-0.8,6.4-0.1,10.1c0.4,1.7,0.7,3.5,1,5.2
						c0.6,2.9,1.1,5.7,1.7,8.6c0.2,1.2,0.6,2.4,0.9,3.5c0.4,1.5,0.8,2.9,0.9,4.1c0.4,4.6,3,7.4,4.9,9.4l0.5,0.5
						c0.1,0.2,0.2,0.4,0.4,0.6c1.7,2.8,2.8,6,3.4,10c-0.3,0.2-0.5,0.4-0.8,0.6c-1.2,1.1-1.9,2.7-1.9,4.3c0,0.5-0.1,1.2,0,2.1
						c-2.1,2.2-2.9,5.1-2.2,8.1c-0.6,1.7-0.6,3.3-0.6,4.3c0,0.2,0,0.4,0,0.6c-0.7,4.1,1,7.7,4.6,9.9c2.1,1.3,4.3,2.6,6.4,4l0.2,0.2
						c2.2,1.4,4.7,3,7.8,3.7c0.9,0.2,1.8,0.4,2.7,0.4c3.8,0.2,7.9,0.3,12.8,0.3c3.9,0,7-1.9,8.7-5.2c2.8-1.5,4.4-4.1,4.3-7
						c-0.1-1.6-0.7-3.1-1.6-4.3c0.5-1.5,0.3-2.7,0-3.6c0.1-0.2,0.1-0.3,0.2-0.5c0.2-0.7,0.5-1.5,0.7-2.5c0.2-1.2,0.7-2.5,1.5-3.7
						c2.2-3.5,4.3-6.9,7-9.7c2-0.2,4.9-1.2,6.6-5c1.9-4,3.9-8.2,6-12.4C397.1,236,399.4,229.4,400.5,222.4z"/>
					<g>
						<path class="st1" d="M361.9,284.3c1.2,0.6,1.9,1,2.6,1.2c2.2,0.8,3,3.1,0.4,4.4c-0.8,0.4-1.6,1.2-2,2.1
							c-0.8,1.8-2.2,2.5-3.9,2.5c-4.3,0-8.5,0-12.8-0.3c-3-0.2-5.5-1.8-8-3.4c-2.3-1.4-4.6-2.9-6.9-4.3c-1.7-1-2.3-2.3-2-4.3
							c0.3-1.7-0.4-3.7,1.1-5.2c0.2-0.2,0-1.1-0.3-1.5c-0.8-1.7-0.3-3.1,1-4.1c1.6-1.2,2.1-2.4,1.1-4.2c-0.2-0.4,0-1-0.1-1.7
							c0.8,0.1,1.5,0.2,2.2,0.3c0.2-0.2,0.5-0.4,0.5-0.6c0.1-1.2,0.2-2.4,0.1-3.5c-0.5-5-1.8-9.9-4.4-14.2c-0.2-0.4-0.4-0.8-0.7-1.2
							c-1.9-2.1-4-4-4.3-7.2c-0.3-2.9-1.4-5.6-2-8.5c-1-4.7-1.8-9.5-2.8-14.2c-0.5-2.6-0.6-5.2,0-7.8c0.6-2.2,0.7-4.5,0.7-6.8
							c0-5.1,2.7-8.7,6.1-12.1c1.5-1.5,3-2.9,4.3-4.5c3-4,6.6-7,11.1-9c1.9-0.8,3.6-1.5,5.7-0.4c0.9,0.5,2.3,0.2,3.4,0
							c2.4-0.4,4.7-0.8,6.7,1.1c0.3,0.3,1,0.4,1.5,0.5c0.9,0.1,1.8,0.3,2.7,0.2c6.6-0.5,12.5,1.7,18.3,4.3c3.8,1.7,6.5,4.6,8.4,8.2
							c3.1,5.7,4.4,12,4.8,18.4c0.3,4.7,0.7,9.4-0.1,14.1c-1.2,6.8-3.4,13.2-6.6,19.3c-2.2,4.3-4.3,8.6-6.3,13
							c-0.6,1.2-1.4,2-2.7,1.9c-1.3-0.1-2,0.6-2.8,1.4c-3.4,3.4-5.8,7.4-8.3,11.5c-1,1.7-1.8,3.6-2.1,5.5c-0.3,1.9-1.7,3.7-0.8,5.8
							c0.1,0.3-0.5,1.1-0.9,1.5C363.7,283.1,362.9,283.5,361.9,284.3z M347.7,273.4c1.7-2.2,3.3-4,4.6-5.9c2.7-4.2,5.5-8.4,8-12.7
							c4-6.9,7.9-13.9,11.8-20.9c0.4-0.6,0.4-1.5,0.7-2.2c-0.6-0.1-0.8-0.3-1.1-0.2c-2.4,0.3-4.5-0.1-6.5-1.5
							c-0.6-0.4-1.7-0.4-2.5-0.3c-1.2,0.1-2.3,0.7-3.5,0.8c-2.5,0.2-3.5-1.1-2.8-3.5c0.2-0.7,0.4-1.5,0.7-2.8
							c-2.1,0.7-3.6,1.1-5.1,1.8c-0.5,0.2-0.9,1.2-0.8,1.8c0.9,7.2-0.8,14.1-1.5,21.2c-0.6,5.4-1.6,10.8-2.4,16.2
							c-0.1,0.7-0.2,1.5-0.4,2.1c-0.1,0.3-0.7,0.7-1.1,0.6c-0.3,0-0.7-0.5-0.8-0.9c-0.2-0.3-0.1-0.7-0.1-1.1
							c0.3-2.6,0.6-5.3,1.1-7.8c0.7-4.2,1.5-8.4,2.5-12.6c0.9-3.9,0.3-7.8,0.6-11.7c0.1-1.7-0.1-3.4-0.2-5.1c-0.1-2.2-0.7-4.4-0.3-7
							c1,0.1,2.1-0.1,2.7,0.3c1.8,1.2,3.3,0.5,4.9-0.1c0.6-0.2,1.2-0.5,1.7-0.8c0.8-0.4,1.7-0.9,2.5-0.1c0.9,0.9,0.4,1.8,0,2.8
							c-0.4,0.7-0.7,1.5-1,2.2c-0.2,0.6-0.3,1.2-0.5,2.1c1.3-0.2,2.2-0.2,3.2-0.5c1.1-0.3,2.2-0.8,3.3-1.3c2.6-1,2.8-0.8,3.1,2
							c0,0.2,0.2,0.3,0.4,0.7c1.8,0.5,4.1,0.2,6,1.6c1.4,1,1.8,1.3,1.1,2.8c-1.8,3.6-3.5,7.2-5.6,10.6c-1.7,2.9-3.7,5.6-5.6,8.4
							c-2.2,3.2-4.5,6.4-6.5,9.7c-2,3.2-3.8,6.4-5.5,9.7c-1,1.9-0.7,2.6,1.4,3.2c2.2,0.6,4.4,1,6.7,1.4c1.8,0.3,2.1,0,2.4-1.7
							c0.5-2.6,1.7-4.8,3.2-6.9c2.4-3.3,4.3-7,7.4-9.8c0.5-0.5,0.9-1.1,1.3-1.7c3.1-4.3,6.3-8.5,9.1-12.9c2.3-3.6,4.8-7.2,6.3-11.1
							c2.1-5.5,3.1-11.4,2.8-17.4c-0.3-5-0.8-10-1.9-14.9c-2.8-11.6-8.4-16.4-19.3-18.5c-1.7-0.3-3.4-0.5-4.9,0.2
							c-0.8,1.4,1,2.5-0.2,3.9c-1.2-1.2-2.2-3.1-4.1-1.8c-0.8-0.9-1.3-2.1-2-2.2c-4.7-1.1-9.5-1.5-14.3,0.3c-5,1.8-8.7,5.3-12.1,9.1
							c-1.4,1.6-2.5,3.4-2.3,5.7c0,0.7-0.3,1.4-0.5,2.1c-0.4,1.6-0.8,3.2-1.1,4.8c-0.7,5.4-0.5,10.7,0,16.1c0.1,0.9,0.3,1.9,0.8,2.5
							c1.8,1.9,1.6,4.1,1.6,6.4c0,2.3,0.2,4.5,0.4,6.8c0,0.5,0.5,1,0.8,1.7c0.4-0.4,0.6-0.5,0.8-0.7c0.5-0.7,0.8-2,1.9-1.4
							c0.6,0.4,1,1.5,1,2.3c0.1,1.1-0.2,2.2-0.3,3.3c-0.2,1.7-0.3,3.2,1.2,4.5c1,0.8,1.2,2.1,0.7,3.3c-0.9,2.7-0.4,5.2,0.3,7.8
							c0.1,0.2,0.3,0.4,0.4,0.6c0.8,0.2,1.6,0.4,2.3,0.6c0.1,0.5,0.2,0.9,0.1,1.2c-1,3.2-1.9,6.5-3,9.6c-0.7,1.9-0.7,2.5,1,3.2
							C343.2,272,345.5,272.7,347.7,273.4z M332.5,274.5c0.9,0.4,1.9,1,3,1.4c5.7,1.9,11.4,3.8,17,5.7c1.2,0.4,2.4,0.9,3.6,1.3
							c1.1,0.4,2.3,0.5,3.3-0.7c-0.7-0.4-1.2-0.7-1.8-0.9c-1.2-0.5-2.6-0.8-3.7-1.6c-3.3-2.2-6.8-3.8-10.7-4.6
							c-2.9-0.6-5.8-1.3-8.8-1.9C333.6,272.9,332.8,273,332.5,274.5z M338,284.8c-0.1,0.2-0.2,0.4-0.2,0.6c0.7,0.5,1.4,1.2,2.3,1.4
							c3.2,1,6.4,2,9.7,2.6c2.3,0.4,4.6,0.8,6.7,2.1c0.9,0.5,1.9,0.7,3.1-0.2c-1.3-0.4-2.3-0.7-3.3-1c-1.8-0.6-3.6-1.3-5.4-1.6
							c-4-0.7-7.8-1.5-11.4-3.6C339,284.8,338.4,284.9,338,284.8z M333.1,242.4c-0.6-3.4-2.2-5.6-4.7-7.3
							C328.3,239.5,329,240.6,333.1,242.4z M327.4,211.6c0.7-1.8,0.7-3.2-0.4-4.7C325.5,209.6,325.6,210,327.4,211.6z M334.4,284.2
							c0.2-1-0.1-1.8-1.2-1.8c-0.3,0-0.9,0.7-0.9,1C332.5,284.4,333.3,284.6,334.4,284.2z M350.4,284.4c-0.1,0.2-0.1,0.4-0.2,0.6
							c1.5,0.4,2.9,0.8,4.4,1.2c0.1-0.2,0.1-0.4,0.2-0.7C353.3,285.2,351.8,284.8,350.4,284.4z M358.2,286.5
							c1.9,1.6,1.9,1.6,3.5,0.8C360.4,287,359.3,286.8,358.2,286.5z M338.3,282.1c0.1-0.3,0.2-0.6,0.3-0.8c-0.5-0.2-1-0.4-1.4-0.6
							c-0.1,0.3-0.2,0.6-0.3,0.9C337.3,281.7,337.8,281.9,338.3,282.1z"/>
						<path class="st1" d="M384.4,201.4c0.6,0.8,1,1.3,1.3,1.8c1.9,3.1,2.5,6.5,1.7,10c-0.5,2.2-1.4,4.3-2.1,6.5
							c-0.3,0.9-0.8,1.6-1.8,1.3c-0.6-0.2-1.2-0.8-1.4-1.4c-1.1-2.8-2-5.6-3-8.5c-0.6-1.7-1.4-3.1-2.9-4.2c-1.7-1.3-1.6-2.2,0.4-3.2
							c1.6-0.8,3.3-1.6,5-2.2C382.6,201.2,383.6,201.4,384.4,201.4z M383.3,216.2c2.8-3.3,3.2-6.7,1.3-10.2
							c-1.3-2.5-3.2-2.7-5.2-0.5C380.6,208.9,381.9,212.4,383.3,216.2z"/>
						<path class="st1" d="M377,190.5c1.4,0.9,2.8,2.3,3.5,4.1c0.8,2,0.5,3.6-1.3,4.7c-2.6,1.7-5.5,2.5-8.5,1.3
							c-2.5-0.9-4.1-3.4-4-6.2c0.1-2.8,1.6-4.9,4.3-5.6c1-0.2,2.1-0.1,3.1,0.2C375,189.2,375.9,189.9,377,190.5z M370.6,198.4
							c1.7,1,5.5,0.7,7.2-0.7c0.7-0.6,0.8-1.4,0.5-2.2c-1.2-3.1-4.4-4.4-7.4-3.1c-1.2,0.5-2,1.3-1.9,2.7
							C369,196.4,369.2,197.6,370.6,198.4z"/>
					</g>
					<g>
						<g>
							<path class="st6" d="M349,278.2c-0.3,0-0.5,0-0.8,0c-2.7-0.3-4.9-1.7-6.3-4.1c-0.8-1.5-1.1-2.9-0.8-4.5
								c-0.1,0-0.1,0.1-0.2,0.1c-1.2,1-2.7,1.4-4.3,1.2c-1.5-0.3-2.8-1.2-3.6-2.5c-3.4-5.9-1.4-12.4,5.9-19.3
								c-1.6-0.1-3.2-1.1-4.1-2.6c-1.2-2-1.5-4.1-0.9-6.5c-0.3,0-0.7-0.1-1-0.2c-1.4-0.3-2.5-1.2-3.2-2.4c-2.4-4.1-1.8-8.9,1.8-14.7
								c-0.3,0-0.6-0.1-0.9-0.1c-1.9-0.4-3.5-1.5-4.4-3.1c-3.1-5.4,0.6-12.1,12.6-23.2c0.6-0.5,1.1-1,1.7-1.5l0.4-2
								c-1.7-0.3-3.2,0.2-4.1,0.9c0.1-0.1,0.4-0.3,0.7-0.6c11.9-9.6,16-11.1,19.4-10.5c1.8,0.3,3.3,1.4,4.2,3
								c1.3,2.3,0.7,5.2-1.4,6.8c-6.8,5.2-13.3,10.9-17.9,15.5c3.9-2.3,8.8-5.3,14.3-9c9.9-7.6,18.7-13.4,19.1-13.6
								c2.4-1.5,5.5-0.9,7.1,1.4c1.6,2.3,1.1,5.5-1.1,7.1c-0.1,0.1-8.7,6.5-18.5,13.2c-1.6,1.2-3.1,2.4-4.7,3.7
								c-5.5,4.5-9.5,8.2-12.3,11.1c3.6-2.2,7.5-4.5,11.5-6.9c27.9-16.6,28.7-16.4,31.3-15.7c1.4,0.3,2.6,1.3,3.3,2.5
								c2.6,4.4-2,7.3-3.5,8.3c-0.5,0.3-1,0.6-1.7,1c0.8-0.1,1.5-0.1,2.3,0.1c1.3,0.4,2.5,1.2,3.2,2.4c2.8,4.9,0.7,10.3-6.3,16.1
								c-1.4,1.1-2.9,2.3-4.5,3.4c0.4,0,0.7,0.1,1,0.1c2.4,0.4,4.3,1.7,5.5,3.7c2.5,4.3-1.6,7.6-4.4,9.7c-2.1,1.6-5,3.7-8.3,6.1
								c-1.3,0.9-2.9,2.1-4.6,3.3c2,1.9,2.2,5.1,0.3,7.2C365.7,268.8,356.4,278.2,349,278.2z"/>
						</g>
					</g>
				</g>
			</g>
			<path class="st4" d="M321.9,235.4L321.9,235.4l-5.3,6.3l-5.9,7l0.1,0l-5.6,6.9l0.1,0l-14.7,53.5l20.2,5.6
				c6.2-4.4,11.3-11.8,13.8-20.8c3.2-11.7,1.1-23.3-4.7-30.7l6.5-9.8l2.5,0.8c6.4,1.9,13-1.8,14.9-8.1l1.1-3.8
				c0-0.2,0.1-0.3,0.1-0.5l-23-6.7L321.9,235.4z"/>
			<path class="st4" d="M396.7,243.1c0.4,3.3-2,6.2-5.3,6.5l-4.4,0.2c-3.3,0.3-6.2-2-6.5-5.3l0,0c-0.4-3.3,2-6.2,5.3-6.5l4.4-0.2
				C393.4,237.5,396.4,239.9,396.7,243.1L396.7,243.1z"/>
			<path class="st4" d="M385.4,275.4c0.4,3.3-2,6.2-5.3,6.5l-4.4,0.2c-3.3,0.4-6.2-2-6.5-5.3l0,0c-0.4-3.3,2-6.2,5.3-6.5l4.4-0.2
				C382.1,269.8,385,272.1,385.4,275.4L385.4,275.4z"/>
			<path class="st4" d="M391.5,258.1c0.4,3.3-2,6.2-5.3,6.5l-4.4,0.2c-3.3,0.4-6.2-2-6.5-5.3l0,0c-0.4-3.3,2-6.2,5.3-6.5l4.4-0.2
				C388.2,252.5,391.1,254.9,391.5,258.1L391.5,258.1z"/>
			
				<rect x="235.3" y="342.5" transform="matrix(0.4081 -0.9129 0.9129 0.4081 -168.8495 494.4042)" class="st8" width="123.1" height="69.8"/>
			
				<rect x="253" y="369.7" transform="matrix(0.4081 -0.9129 0.9129 0.4081 -165.6112 515.1521)" class="st9" width="123.1" height="31.2"/>
		</g>
	</g>
	<g>
		<defs>
			<rect id="SVGID_3_" x="606" y="169.5" width="175.3" height="188.7"/>
		</defs>
		<clipPath id="SVGID_4_">
			<use xlink:href="#SVGID_3_"  style="overflow:visible;"/>
		</clipPath>
		<g class="st10">
			
				<rect x="704.1" y="315.8" transform="matrix(0.9167 -0.3996 0.3996 0.9167 -77.8302 316.0885)" class="st4" width="30" height="57.7"/>
			<path class="st2" d="M700.7,271.3l17.9,17.3l-12.3-32.1l-3.1,0.1l0,0l-33.2,0.6c0,0.1,0,0.3,0,0.4l0.1,3.6
				c0.1,5.9,5,10.6,10.9,10.5L700.7,271.3z"/>
			<path class="st2" d="M715.8,282.1l2.8-15.6l-3.1,0.6l0,0l-32.5,6.8c0,0.2,0,0.3,0.1,0.4l0.7,3.5c1.2,5.8,6.9,9.5,12.6,8.3
				L715.8,282.1z"/>
			<g>
				<path class="st0" d="M684.6,184.7c-3.9-3.5-8.4-5.9-12.3-7.8c-4.9-2.4-10.4-3.2-16.2-2.2c-2.2,0.3-4.2,1-6.2,1.7
					c-0.7,0.2-1.5,0.5-2.2,0.7c-0.6,0.2-1.2,0.4-1.8,0.6c-0.9,0.3-1.8,0.7-2.5,0.7c-2,0.1-3.8,0.8-5.6,1.9c-0.7,0.4-1.3,0.9-1.9,1.3
					c-5.2,3.8-9.3,8.9-12.2,15c-1,2.1-1.6,4.2-1.6,6c0,1.3-0.1,2.7-0.3,4.1c-0.3,2.9-0.5,5.9,0,9c-0.2,0.2-0.4,0.3-0.6,0.5
					c-0.7,0.5-1.1,1.3-1.1,2.2c0,0.8,0.4,1.6,1.1,2.2c2,1.6,2,1.6,3,4.3c0.9,2.8,2.2,5.1,4,6.9c0.5,0.5,0.9,1,1.2,1.6
					c1.3,2.3,3.1,4.3,5.6,6.2l1.5,1.1c1.3,1,2.6,1.9,3.8,2.9c0.9,0.7,1.2,1.2,1.4,1.5c1.4,2.8,7.8,1.8,7.8,1.8
					c0.6,0.4,1.3,0.7,1.9,1.1c0.4,0.2,0.8,0.5,1.2,0.7c0.9,0.6,2,1.3,3.3,1.7c1.7,0.6,2.6,1.5,3.3,3c0.2,0.6,0.6,1.1,0.8,1.5
					c0.1,0.1,0.2,0.3,0.3,0.4c0.4,0.9,0.9,1.7,1.4,2.6c1.1,2,2.1,3.8,2.5,5.8c0.2,1.2,1,1.9,1.6,2.4c0,0,0,0,0,0
					c-0.1,0.1-0.2,0.3-0.3,0.4c-0.6,1-0.6,2.3,0.1,3.2c0.7,0.8,1.7,1.2,2.7,1c0.5,0.7,1.3,1.2,2.2,1.2c0,0,0.1,0,0.1,0
					c-0.2,0.7-0.2,1.5,0.2,2.1l0.3,0.5c0.5,1,1.6,1.5,2.7,1.4c1-0.1,1.9-0.3,2.7-0.5c0.3-0.1,0.6-0.1,0.9-0.2c0,0.1,0,0.1,0,0.2
					c0.1,1.1,0.9,2.1,2,2.3c0.3,0.1,0.5,0.1,0.7,0.2c0.5,0.1,1,0.3,1.6,0.3c3.5,0.1,6.7-1,9.8-3.3c0.7-0.5,1.5-1.2,2.2-1.9
					c1.9-1.8,2.4-4.1,1.5-6.5c1.2-0.7,2.4-1.5,3.5-2.2c0.5-0.3,1-0.6,1.4-1c0,0,0.1-0.1,0.1-0.1c0.9-0.7,1.3-1.9,1-3
					c-0.1-0.2-0.1-0.4-0.2-0.5c-0.1-0.4-0.3-0.9-0.5-1.4c-1.2-2.7-5.8-13.3-7-15.9c-0.2-0.4-0.3-0.8-0.5-1.4c-1-3.8-1.4-6.9,0.1-9.8
					c0.5-1,0.9-2.6,0-3.9c-0.2-0.3-0.2-0.4,0.3-1.8c0.1-0.3,0.2-0.7,0.3-1c2.4-7.9,2.1-14.8-0.9-21.3c-1-2.1-1.5-3.9-1.6-5.8
					C690.9,192.7,688.8,188.5,684.6,184.7z"/>
				<g>
					<path class="st1" d="M644.1,243.1c-1.7-1.4-3.6-2.8-5.4-4.1c-2-1.5-3.7-3.2-4.9-5.4c-0.4-0.8-1-1.5-1.6-2.1
						c-1.6-1.7-2.6-3.7-3.3-5.8c-1.2-3.6-1.2-3.6-3.9-5.6c0.6-0.5,1.2-0.9,1.8-1.4c0-0.2,0.1-0.4,0.1-0.5c-1-4.6,0-9.2,0.1-13.7
						c0-1.7,0.6-3.4,1.3-4.9c3-6.3,7.3-11.4,13.1-15.2c1.3-0.8,2.6-1.4,4.3-1.5c1.7-0.1,3.3-1,4.9-1.5c2.7-0.8,5.3-1.9,8-2.3
						c5-0.8,9.9-0.3,14.5,2c4.2,2,8.2,4.2,11.6,7.3c3.4,3.1,5.5,6.7,5.8,11.3c0.2,2.4,0.9,4.5,1.9,6.7c2.9,6.3,2.7,12.8,0.7,19.3
						c-0.5,1.7-1.5,3.3-0.3,5.2c0.1,0.2,0,0.7-0.1,1c-2.1,3.9-1.5,7.8-0.4,11.8c0.2,0.6,0.4,1.2,0.6,1.8c2.3,5.3,4.7,10.6,7,15.9
						c0.2,0.5,0.3,1,0.5,1.6c-1.6,1.1-3.2,2.2-4.8,3.1c-1.3,0.8-1.8,1.9-1.2,3.2c0.7,1.5,0.3,2.7-0.7,3.7c-2.8,2.6-6.1,4.6-10.1,4.5
						c-0.4,0-0.8-0.2-1.7-0.4c1-0.5,1.6-0.8,2.2-1.1c-2.7-3.1-5.9-1-8.8-0.7c-0.1-0.2-0.2-0.4-0.3-0.5c1.4-1.5,2.7-2.9,4.4-4.7
						c-2.6-0.2-4.5,1.2-7,1.1c0.8-1,1.4-1.7,2.3-3c-1.9,0.7-3.2,1.1-5.2,1.8c2.6-4,6.4-6,8.9-9.2c-2.1,0.7-4.4,1.2-5.4,3.8
						c-0.6-0.1-1.2-0.1-2-0.2c-0.3,0.6-0.7,1.3-1.2,2.2c-0.6-0.6-1.2-1-1.3-1.5c-0.7-3.4-2.7-6.1-4.2-9.1c-0.3-0.6-0.7-1-1-1.6
						c-0.9-2.3-2.5-3.8-4.9-4.6c-1.4-0.5-2.7-1.5-4-2.3c-2.3-1.3-4.7-2.6-7-3.8c-0.1,0.1-0.2,0.3-0.3,0.4c0.6,0.6,1.2,1.2,1.9,1.9
						C648.8,245.9,644.9,243.8,644.1,243.1z M690.6,211.8c-0.1,0-0.2,0-0.3,0c0-0.3-0.1-0.7-0.1-1c0.2-4.5-0.3-8.8-3.4-12.4
						c-0.3-0.3-0.4-0.8-0.6-1.2c-3.8-7.2-9.6-12.2-17.1-15.1c-9.3-3.6-16.8-0.6-22.4,5.7c-1.4-1.6-2.8-1.4-4.4-0.3
						c-2,1.4-2.9,3-2.2,5.4c-0.4-0.7-0.7-1.3-1.3-2.4c-0.8,1-1.5,1.7-1.9,2.5c-1,2.1-1.9,4.3-2.9,6.4c-3.4,7.4-3,14.8-0.9,22.5
						c1.4,5,4.5,8,9.1,9.4c5.7,1.7,10.7,4.8,15.9,7.5c0.3,0.2,0.5,0.6,0.7,0.9c-0.1,0.2-0.3,0.4-0.4,0.7c-6-3.9-12.4-6.9-19.3-8.6
						c0.6,0.7,1.2,1.3,1.9,1.8c3.1,2,6.2,4.1,9.4,6c2,1.2,4.4,1.8,6.2,3.3c3.6,2.9,8.1,4.8,10.7,9c1,1.7,2.6,3,3.8,4.6
						c0.4,0.6,0.8,1.5,0.6,2.1c-0.3,1.5,0.3,2.4,1.3,3.2c0.4-0.1,0.6-0.1,0.9-0.2c4.2-2.3,8.5-3.9,13.2-4.8c1.8-0.4,3.7-1.1,4.4-3.1
						c-0.4-0.5-0.8-0.9-1.1-1.4c0.8-0.8,1.5-1.5,2.2-2.2c-1.9-1.5-2.7-3.4-3.1-5.5c-0.4-1.8-0.5-3.6-0.9-5.3c-0.4-2.1,0.1-4,0.9-6
						c1.4-3.5,2.7-7.1,3.7-10.7c1.3-4.6,0.4-9.1-0.6-13.7c-0.1-0.5-0.6-0.9-0.9-1.4c-0.2,0-0.4,0.1-0.5,0.1
						C690.9,208.9,690.8,210.3,690.6,211.8z M688.9,258.9c-1.6,2.3-4.1,3.1-6.4,4.4c-2.3,1.3-4.2,3.2-5.9,5.3c1.1,0,2-0.1,2.9-0.5
						c3.3-1.6,6.6-3.2,10-4.8c2-1,3.4-2.5,3.9-4.9c-0.9-0.1-1.8-0.2-2.7-0.4c-3-0.7-5.8,0-8,2c-1.7,1.5-3.5,2.8-5.6,3.6
						c-1.2,0.5-2.1,1.2-2.5,2.5c2.5-0.9,4.7-2.3,7.1-3.5C684.1,261.2,686.2,259.5,688.9,258.9z M677.7,273.3
						c1.7-0.4,2.8-0.6,3.9-0.9c5.2-1.5,9-5.2,13.3-8.1c1-0.7,0.8-1.5,0.1-2.2C691,262.9,680.6,269.4,677.7,273.3z M674.5,183.2
						c0.1,0.1,0.1,0.3,0.3,0.4c5.4,3.8,10,8.3,13,14.2c0.2,0.5,0.8,0.8,1.3,1.3C690.3,193,681.2,185,674.5,183.2z M632.8,228.6
						c0.2-0.2,0.5-0.3,0.7-0.5c-0.4-0.5-0.9-1-1.3-1.6c-0.2,0.1-0.3,0.2-0.5,0.4C632,227.5,632.4,228.1,632.8,228.6z M638.8,234.6
						c-0.1,0.1-0.2,0.2-0.3,0.4c0.3,0.3,0.7,0.6,1,0.8c0.1-0.1,0.2-0.2,0.3-0.3C639.5,235.2,639.2,234.9,638.8,234.6z M630.5,215.4
						c-0.1,0-0.3,0-0.4,0.1c0.1,0.4,0.2,0.8,0.2,1.3c0.1,0,0.2,0,0.4-0.1C630.7,216.2,630.6,215.8,630.5,215.4z"/>
					<path class="st1" d="M667.3,228.5c-0.8,2.2-4,2.5-3.8,6c2.2,3.3,4.5,7.3,7.2,11c2.6,3.6,5.4,7,8.1,10.5
						c-0.1,0.1-0.3,0.3-0.4,0.4c-0.4-0.3-0.9-0.6-1.2-1c-4.2-4.8-7.7-10.2-11.1-15.7c-1.9-3.1-4.1-6-6.7-8.4
						c-0.2-0.2-0.2-0.5-0.3-0.7c1-0.6,1-0.6,3.6,0.5c0.2-0.9,0.4-1.7,0.7-2.8c0.6,0.2,1.3,0.4,2.2,0.7c0.6-1.3,1.2-2.6,1.9-4.3
						c0.7,1.3,1.2,2.2,1.8,3.2c1.7-0.2,2-1.5,2.5-2.6c0.8-1.4,1.6-2.7,2.7-4.5c1.7,3.8,2.6,7.2,3.7,10.6c1.1,3.5,2.1,7.1,3.3,10.6
						c1.2,3.3,2.7,6.5,3.8,9.9c-2.7-4.5-4.7-9.2-6-14.3c-0.6-2.2-1.2-4.4-1.9-6.5c-0.8-2.4-1.6-4.7-4.3-6.3
						c-0.3,0.5-0.7,1.1-1.1,1.8C670.7,229.5,670.4,229.6,667.3,228.5z"/>
				</g>
				<g>
					<g>
						<path class="st6" d="M675.2,261.7c-0.3,0-0.5,0-0.7-0.1c-0.9-0.2-1.7-0.7-2.2-1.5c-0.7-1.1-0.4-2.6,0.6-3.4
							c2.8-2.4,5.4-5,7.5-7.4c-5.3,3.7-10.3,6.4-13,6c-1.1-0.2-2-0.8-2.5-1.8c-0.3-0.5-0.4-1.1-0.4-1.6c-0.1,0-0.3,0-0.4,0
							c-1.5-0.2-2.8-1-3.6-2.4c-0.3-0.6-0.9-1.5-0.4-3.2c-1.2,0.5-2.2,0.6-3.2,0.5c-1.4-0.2-2.6-1-3.4-2.4c-0.7-1.3-0.3-2.9,0.9-3.7
							c0.1,0,0.1-0.1,0.2-0.1c-0.5-0.3-1-0.7-1.3-1.2c-1.5-2.5,0.9-4.5,5.7-8.3c0.3-0.3,0.7-0.5,1-0.8c-3.8,2.6-7.6,5.2-11.2,7.9
							c-0.6,0.5-1.4,0.6-2.2,0.5c-0.8-0.2-1.4-0.6-1.8-1.3c-1.4-2.5,0.7-4.8,6-9.4c0.7-0.6,1.5-1.3,2.4-2l-11.5,6.6
							c-1.3,0.8-3,0.3-3.7-1c-0.8-1.5-1.2-3-1.1-4.6c-1.4-0.5-2.5-1.4-3.3-2.7c-0.7-1.2-0.4-2.6,0.6-3.5l5.5-4.5
							c-1.1,0.4-2.1,0.5-2.9,0.3c-1.2-0.2-2.2-0.9-2.8-2c-0.1-0.1-0.2-0.3-0.2-0.5c0,0-0.1,0-0.1,0c-1.4-0.2-2.6-1-3.3-2.3
							c-0.5-0.9-0.7-2-0.4-3.1c0.5-1.9,2.4-3.7,5.6-5.9c-0.1-0.1-0.1-0.2-0.2-0.3c-0.9-1.6-0.6-2.9,2.3-5.8
							c-0.1-0.2-0.3-0.4-0.4-0.6c-0.8-1.3-0.3-3,1-3.7c1-0.6,2.2-0.4,3.1,0.2c1.8-0.7,5.9-4.2,8-6c4.1-3.6,6-5.2,8.1-4.8
							c0.9,0.2,1.7,0.7,2.1,1.5c0.3,0.6,0.4,1.2,0.3,1.8c5.5-3.2,5.8-3.1,6.7-2.8c0.7,0.2,1.3,0.6,1.7,1.3c0.2,0.4,0.4,0.7,0.5,1.1
							c0.2,0,0.3,0,0.5,0.1c1.4,0.2,2.7,1,3.5,2.3c0.6-0.1,1.2-0.1,1.8,0c1.4,0.2,2.5,1,3.2,2.2c0.7,1.2,0.4,2.6-0.6,3.5l-22.9,18.7
							c2.4-1.2,4.9-2.4,7.5-3.6c2.4-1.9,4.6-3.7,6.5-5.2c10.1-8.3,12.3-9.8,14.5-9.4c0.9,0.2,1.6,0.7,2.1,1.5
							c0.8,1.3,0.9,2.8,0.5,4.2c-0.4,1.3-1.3,2.5-2.6,3.7l1.5-0.9c1.3-0.7,2.8-0.3,3.6,0.9c0.8,1.2,0.5,2.8-0.7,3.7
							c-1.9,1.4-3.8,2.8-5.6,4.2c6-3,7.6-2.7,8.6-2.4c1.1,0.2,1.9,0.8,2.4,1.7c0.7,1.2,0.4,2.8-0.8,3.6c-1,0.7-2,1.5-3,2.2
							c0.9,0.5,1.6,1.2,2.2,2.2c0.9,1.6,0.4,3-1.1,4.6c0.2,0.3,0.4,0.5,0.6,0.9c0.7,1.2,0.4,2.8-0.8,3.6
							c-9.9,6.8-20.7,15.6-23.6,19.6c3.2-1.2,10.1-6.4,16-12.2c0.6-0.6,1.4-0.9,2.3-0.8c0.8,0.1,1.6,0.6,2,1.3c0.6,1,0.7,2,0.4,3.2
							c0.4-0.1,0.9-0.2,1.4-0.1c0.8,0.1,1.5,0.6,1.9,1.3c1.5,2.6,0.3,6-2.1,9.6c0.7,0.1,1.4,0.4,1.9,1c0.9,1.2,0.7,2.9-0.5,3.8
							C680,260.7,676.6,261.7,675.2,261.7z M683.6,220.5c-3.9,1.6-10,6.5-14.7,10.6c1.8-1.2,3.5-2.4,5.1-3.5
							c3.5-3.2,6.4-5.5,8.9-6.5C683.2,220.8,683.4,220.6,683.6,220.5z M664.8,212.4c-0.7,0.5-1.4,1.1-2,1.6l6.1-3.5
							c-1.1,0.5-2.3,1.1-3.5,1.7C665.1,212.2,665,212.3,664.8,212.4z"/>
					</g>
				</g>
			</g>
			<path class="st4" d="M718.1,266.1l0.2,10.5l-21.9,22.7l-14.7-3.5c-0.1-0.1-0.1-0.1-0.2-0.2l-0.2-13.4c-0.1-5.6-4.7-10-10.3-9.9
				l-3.4,0.1c-0.1,0-0.3,0-0.4,0l0.4,22.3l0,0l0.1,7.7l40.7,39.3l26.4-40.6L718.1,266.1z"/>
			<path class="st4" d="M705.6,267.4l0.4,24.9l17.1-0.3l-3-31.1l-2.2-2.2v0l-23.9-23.1c-0.1,0.1-0.2,0.2-0.3,0.3l-2.5,2.6
				c-4.1,4.3-4,11,0.3,15.1L705.6,267.4z"/>
			<g>
				<path class="st11" d="M744.2,326.3c34.4,69.3,8.3,152.8-58.2,190.5l-36.6-37.1l6.3-3.1c0.3-0.2,0.7-0.3,1-0.5
					c47.1-23.4,66.4-80.6,43-127.7c-1.1-2.1-2.2-4.2-3.4-6.2l44.6-22.1C742,322.1,743.1,324.2,744.2,326.3z"/>
				<path class="st12" d="M696.3,342.2l23.4-11.6c26.5,62.1,6.3,133.6-46.7,173l-23.6-23.9l6.3-3.1c0.3-0.2,0.7-0.3,1-0.5
					c47.1-23.4,66.4-80.6,43-127.7C698.6,346.3,697.5,344.2,696.3,342.2z"/>
			</g>
		</g>
	</g>
	<g>
		<g>
			<path class="st0" d="M814.7,168c3.1-1.4,6.8-2.8,10.9-2.6c7.2,0.5,13.7,3.1,19.1,7.8c1.6,1.3,2.9,2.8,4.1,4.3
				c4,5.2,5.5,11.4,4.6,18.4c-0.4,2.7-1.5,4.8-3.4,6.4c-5.3,4.2-10.5,8.4-15.7,12.6c-3.1,2.5-5.1,5.4-6.1,8.8
				c-0.5,1.6-1.1,3.2-2.6,4.4c-0.5,0.4-1.3,0.6-1.9,0.5c-0.5-0.1-0.9-0.2-1.4-0.3c0,0,0,0.1,0,0.1c-0.3,1.5-1.6,2.3-2.5,2.7
				c-1.6,0.9-3.1,1-4.3,0.7c0,0.6-0.3,1.3-0.7,1.7c-0.9,0.9-1.8,1.1-2.6,1.2c-0.1,0.6-0.4,1.2-0.8,1.6c-0.2,0.2-0.6,0.7-1.4,0.9
				c-4.1,1.4-10.7-0.9-13.7-4.7c-0.3-0.4-0.6-0.8-0.8-1.2c-0.6-1.3-0.7-2.5-0.1-3.6c0.2-0.3,0.4-0.6,0.6-0.8
				c-0.1-0.1-0.1-0.1-0.2-0.2c-0.1-0.1-0.2-0.2-0.2-0.2c-0.8-1.1-0.8-2.5-0.6-3.6c0.2-0.6,0.6-1.2,1.2-1.6c0.2-0.1,0.4-0.2,0.5-0.3
				c-0.3-1-0.2-2.3,0.9-3.6c0.6-0.6,1.1-1.1,1.7-1.5c-0.5-0.4-0.9-0.7-1.4-1c-0.4-0.3-0.7-0.6-1.1-1.1c-1.3-1.6-1.8-4-1.3-5.9
				c0.3-1.1,1.4-1.9,2.6-1.9c0.3,0,0.8,0,1.4,0.1c0.4,0.1,0.7,0.3,1,0.4c0.1-0.2,0.6-0.9,0.6-0.9c1.7-2.5,1.8-5.5,1.8-9.1
				c-0.1-4-0.1-8-0.1-11.9l0-5c0-2.3,0.9-4.3,2.9-6C808.5,171.3,811.5,169.4,814.7,168z"/>
			<g>
				<path class="st1" d="M797,207c-0.4,1.6,0.3,3.6,1.5,4.4c2.4,1.8,4.8,3.7,7.1,5.7c-1.3,0.3-2.2-0.5-3.2-0.9
					c-1.3-0.6-2.5-0.2-3.9,1.3c-0.8,1-0.2,1.9,0.3,2.8c0.4,0.7,0.9,1.3,1,2.3c-0.7-0.3-1.3-0.7-2-0.8c-0.4-0.1-1.3,0-1.3,0.2
					c-0.1,0.5-0.1,1.2,0.2,1.6c0.7,0.7,1.6,1.2,2.4,1.8c0.3,0.2,0.6,0.6,1.1,1.1c-1,0.1-1.7,0.1-2.3,0.2c-1.3,0.2-1.8,1-1.2,2.1
					c1.7,3.3,8,5.9,11.5,4.7c0.2-0.1,0.4-0.3,0.6-0.5c-0.2-1.4-1.2-1.2-2.1-1.3c-3.2-0.3-3.2-0.3-4.9-1.8c1-0.6,1.8,0,2.5,0.4
					c1.1,0.5,2,0.7,3.1,0c0.5-0.3,1.4-0.1,2.1,0.1c0.9,0.2,1.7,0.9,2.6-0.1c-0.1-1.3-1.2-1.7-2.1-2.3c-2.8-1.7-5-4-7.1-6.4
					c-0.2-0.3-0.4-0.6-0.8-1.3c2,0.3,3.3,1.2,4.6,2.1c2.4,1.7,4.9,3.4,7.3,5c1.2,0.8,2.3,0.8,3.6,0.1c1.6-0.9,1.6-1.2,0.5-2.6
					c-0.1-0.2-0.3-0.4-0.6-0.7c2-0.6,3.8,0.2,5.6,0.5c1-0.8,1.4-2,1.8-3.2c1.2-4.1,3.6-7.4,6.9-10c5.2-4.3,10.5-8.5,15.8-12.7
					c1.6-1.3,2.3-2.9,2.5-4.8c1.1-8.3-1.5-15.1-7.9-20.5c-5.2-4.4-11.1-6.7-17.7-7.2c-3.4-0.2-6.7,1-9.8,2.4c-3,1.3-5.8,3.1-8.3,5.3
					c-1.3,1.1-2.1,2.4-2.1,4.1c0,5.7,0.1,11.3,0.2,16.9c0.1,3.7,0,7.3-2.2,10.5c-0.5,0.8-1,1.6-1.7,2.1c-1,0.8-1.7-0.4-2.5-0.7
					C797.7,206.9,797.3,207,797,207z M814.4,187.7c-0.9,0.8-0.8,1.7-0.4,2.4c1.1,2,0.4,3.7-0.4,5.5c-1.6,3.5-3,7.1-4.6,10.7
					c-0.4,0.9-1.1,1.6-1.8,2.3c-0.8,0.8-0.8,1.7-0.4,2.5c0.1,0.4,0.9,0.9,1,0.9c0.6-0.4,1.2-0.9,1.6-1.5c0.5-0.9,0.9-2,1.3-3
					c1.9-4.8,4-9.5,6.7-13.9c0.4-0.6,1-1.1,1.6-1.6c1,1.1,1.6,2.4,2.4,2.5c2.4,0.4,3.1,2.6,5,3.7c-1.5,1.3-2.6,2.7-2.9,4.5
					c-0.1,0.6-0.6,1.2-1,1.7c-2.3,2.6-4.5,5.2-6.8,7.8c-0.4,0.4-0.8,0.7-1.4,1.2c-0.4-0.7-0.7-1.2-1.3-2.1c-0.9,1.4-1.6,2.6-2.2,3.7
					c-0.5,0.9-1.3,1.5-2.3,0.8c-2.5-1.6-5-3.3-7-5.8c0.9-1.2,1.7-2.2,2.4-3.4c2.6-4.1,2.7-8.8,2.7-13.4c0-4.7,0-9.4-0.1-14.2
					c0-1.7,0.7-3,2-4.2c4.1-3.7,9-5.6,14.3-6.6c0.6-0.1,1.2-0.1,1.8,0c6,0.4,11.3,2.6,15.8,6.6c3.3,3,6.2,6.3,7.4,10.9
					c1.6,5.7,0.6,10.1-4.2,13.6c-0.1,0.1-0.2,0.2-0.4,0.3c-3.9,3.1-7.8,6.1-11.7,9.2c-3.9,3.1-7.2,6.7-8.7,11.5
					c-0.3,1.1-1,1.5-2,1.4c-3.2-0.2-5.7-1.6-8.1-3.4c0-0.4,0-0.5,0.1-0.5c2.1-2.3,4.2-4.6,6.3-6.9c3.1-3.5,6.2-7.1,9.3-10.7
					c1-1.1,1.9-2.4,2.7-3.7c0.7-1,0.5-3.1-0.3-3.7c-1.1-0.9-2,0-2.9,0.6c-0.6,0.4-1.2,0.8-2.1,1.5c-0.2-1-0.4-1.7-0.5-2.3
					c0-0.5,0.3-1,0.3-1.5c0-0.6,0-1.5-0.3-1.8c-0.9-0.6-1.3,0.3-1.7,0.9c-0.3,0.4-0.7,0.8-1.3,1.4c-0.5-1.8-0.8-3.3-1.2-4.6
					c-0.5,0.1-0.8,0-0.9,0.1c-0.5,0.4-1,0.9-1.5,1.4c-1.6,1.6-2.3,1.5-3.5-0.3C814.9,188.4,814.6,188.1,814.4,187.7z"/>
			</g>
			<g>
				<g>
					<path class="st6" d="M821.2,223.9c-1,0-2.2,0-3.5-0.2c-6.4,0.3-8-1.1-9-1.9c-0.9-0.7-1.5-1.7-1.8-2.7c-0.3-0.2-0.6-0.4-0.8-0.7
						c-1.1-1.1-1.8-2.6-1.7-4.2c0.1-4.7,4.6-8.9,19.8-19.5c-16.5,0.2-17.8-1.1-19.2-2.5c-1.1-1.1-1.8-2.6-1.7-4.2
						c0-1.4,0.6-2.7,1.4-3.6c0-0.1,0-0.2,0-0.3c0.1-3.6,2.3-5.5,6-6.8c0.2-2.7,2.3-4.9,5.1-5.1c19.2-1.3,20.7,0.1,22.3,1.6
						c1.2,1.1,1.8,2.6,1.8,4.2c0,0.4,0,0.8-0.1,1.1l0.4,0c3,0.1,5.4,2.5,5.4,5.6c0,0.1,0,0.3,0,0.4c0.8,1,1.3,2.3,1.3,3.6
						c-0.1,3.5-1.7,4.7-12.7,12.3c-2.9,2-7.4,5.1-11.3,8.1c4-0.2,5.2-0.1,6.9,1.5c1.1,1,1.7,2.5,1.7,4c0,0.9-0.2,1.7-0.6,2.5
						c0,0.1,0,0.2,0,0.4c0,0.3,0,0.5-0.1,0.8c-0.2,2.1-1.6,3.9-3.5,4.6C826.1,223.5,824.4,223.9,821.2,223.9z"/>
				</g>
			</g>
		</g>
		<g>
			<defs>
				<rect id="SVGID_5_" x="790.4" y="179.2" width="190.9" height="179"/>
			</defs>
			<clipPath id="SVGID_6_">
				<use xlink:href="#SVGID_5_"  style="overflow:visible;"/>
			</clipPath>
			<g class="st13">
				<path class="st4" d="M838.1,193.1l16.4,33.6l2.3-1.1l-10.9-22.3c-1.3-2.6-0.2-5.8,2.4-7.1c2.6-1.3,5.8-0.2,7.1,2.4l10.9,22.3
					c0.7-0.3,1.5-0.6,2.3-0.7l-5.5-11.3c-1.3-2.6-0.2-5.8,2.4-7.1c2.6-1.3,5.8-0.2,7.1,2.4l17.1,35.1c0,0,0,0,0,0l4.1,8.3
					c2,4.1,1.8,8.6-0.2,12.3l12.9,26.6l-30.4,14.8L864.2,277c-2.4,0.5-4.8,0.4-7.1-0.3l0.2,0.3l-23.4-8.1l-5.7-11.7c0,0,0,0,0.1,0
					l-4.3-8.8c0.1-0.1,0.2-0.1,0.3-0.2l2.3-1.1c3.9-1.9,8.6-0.3,10.5,3.6l4.6,9.5l3.3,1.1l-5.8-11.9c-0.1-0.2-0.1-0.4-0.2-0.5
					l-16.6-34.1c-1.3-2.6-0.2-5.8,2.4-7.1c2.6-1.3,5.8-0.2,7.1,2.4l11,22.6c0.7-0.5,1.4-1,2.1-1.4l-16.4-33.6
					c-1.3-2.6-0.2-5.8,2.4-7.1C833.6,189.4,836.8,190.4,838.1,193.1z"/>
				
					<rect x="895.9" y="276.4" transform="matrix(0.899 -0.438 0.438 0.899 -61.9613 439.5823)" class="st14" width="52" height="155.5"/>
				
					<rect x="899.6" y="283.8" transform="matrix(0.899 -0.438 0.438 0.899 -65.6163 435.0149)" class="st15" width="21.3" height="151.9"/>
			</g>
		</g>
	</g>
	<g>
		<defs>
			<rect id="SVGID_7_" y="169.5" width="267.4" height="188.7"/>
		</defs>
		<clipPath id="SVGID_8_">
			<use xlink:href="#SVGID_7_"  style="overflow:visible;"/>
		</clipPath>
		<g class="st16">
			<path class="st2" d="M207.7,212.3c-2.9,4.5-8.9,5.7-13.4,2.8L162,198.8l15.7-4.1l32,14.6c-0.1,0.1-0.1,0.2-0.2,0.3L207.7,212.3z"
				/>
			<path class="st2" d="M185,217.8c-3.5,4.1-9.6,4.5-13.6,1.1L145,203.6l16.4-5.2l26,16.7c-0.1,0.1-0.2,0.2-0.2,0.3L185,217.8z"/>
			<g>
				<path class="st0" d="M215.5,263.9c-1.3-0.5-2.9-1.3-3.5-3c-0.3-0.8-0.3-1.6-0.2-2.3c-1.1-0.1-2.2-0.3-3.2-0.4
					c-12.5-2-20.8-9.6-24.7-22.4c-1.1-3.5-1.4-7.1-0.9-10.1c1-6.8,3.7-12.4,8.2-16.7c1.3-1.2,2.7-2.4,4.2-3.4
					c3.7-2.4,7.6-4.4,11.4-6.4l1.5-0.8c2-1,5.3-2.7,9-1.3c0,0,0,0,0,0c0.3,0,0.6-0.1,1,0c6.4,0.3,11.5,1.3,16,3.4
					c5.7,2.6,10.8,6.7,15.7,12.5c1.6,1.9,3.5,4.5,4,7.9c1.5,9.9-0.1,18-4.7,24.7c2.6,3.9,2.7,7.5,0.2,10.7c0,0.1,0,0.1,0.1,0.2
					c0.7,1.9,1.1,3.8,1.4,5.5c0.2,1,0,1.8-0.2,2.5c-0.1,0.2-0.2,0.5-0.2,0.9c-0.1,0.5-0.4,1-0.8,1.4c-0.4,0.4-0.8,0.6-1.3,0.7
					c-0.2,0-0.5,0-0.7,0c-0.3,0.4-0.5,0.8-0.9,1.2c0,1-0.2,2.1-0.6,2.9c-0.5,1.1-1.3,2.1-2.2,3c-4.9,4.8-13.2,5.1-17.7,0.8
					c-2.2-2.2-4-3.3-6-3.8c-0.6-0.2-1.2-0.4-1.6-0.6l-0.2-0.1c-1.3-0.6-2.7-1.3-3.3-2.9C214.6,266.4,215,265,215.5,263.9z"/>
				<path class="st1" d="M225.2,266.3c3.7-2.9,8.9-3.2,12.2-6.8c-0.8-1.3-1.7-0.8-2.5-0.6c-2.4,0.5-4.8,1.1-7.3,1.5
					c-0.8,0.2-1.7,0-2.9,0c0.9-1.6,2.3-1.9,3.4-2.3c3.6-1.4,7.2-2.6,10.7-3.9c0.9-0.3,1.8-0.7,2.6-1.2c0.4-0.2,0.6-0.8,0.9-1.2
					c-1.2-1-2.1-0.3-3.1,0c-2.9,0.9-5.9,1.9-8.8,2.7c-0.8,0.2-1.7,0.1-2.6-0.3c0.5-0.3,0.9-0.7,1.4-0.9c3.3-1.6,6.5-3.2,9.8-4.7
					c1.7-0.8,4.5,0,5.3,1.6c0.3,0.5,0.2,1.4-0.1,2c-0.4,1-1.1,1.8-1.6,2.7c-0.5,0.8-0.8,1.7-0.1,2.5c1.4,1.6,2,3.5,2.6,5.5
					c0.1,0.4,0.5,0.7,1.1,1.5c0.2-1.1,0.6-1.8,0.5-2.3c-0.3-1.7-0.7-3.5-1.3-5.1c-0.4-1-0.4-1.9,0.2-2.7c2.2-2.7,1.4-5.3-0.3-7.8
					c-0.8-1.1-0.6-1.8,0.1-2.8c4.9-7,5.6-14.7,4.4-22.8c-0.4-2.5-1.8-4.6-3.4-6.5c-4.1-4.9-8.9-9.1-14.8-11.8
					c-4.7-2.1-9.8-2.9-15-3.1c-0.5,0-1.1,0.2-1.6,0c-2.6-1.1-4.9,0-7.1,1.1c-4.3,2.2-8.7,4.4-12.7,7.1c-6.5,4.2-10.1,10.6-11.2,18.2
					c-0.4,2.9,0,6.1,0.9,8.9c3.4,11.2,10.6,18.6,22.5,20.5c1,0.2,2.1,0.3,3.2,0.4c1,0.1,2.1,0.2,3.1,0.3c0,0.3,0.2,0.5,0.1,0.6
					c-1.6,3.1-1.4,3.6,1.8,4.8c0.6,0.2,1.1,0.5,1.9,0.8c-0.4,0.8-0.7,1.5-1,2.2c-0.9,2-0.6,2.8,1.5,3.7c0.5,0.2,1,0.4,1.5,0.6
					c2.9,0.7,5.1,2.4,7.2,4.5c4.3,4.2,12.9,2.3,15.6-3c0.6-1.1,0.5-2.9-0.2-3.5c-0.9-0.9-3.3-1.2-4.3-0.8c-1.3,0.5-2.6,1.1-4,1.3
					c-2,0.3-4,0.4-6.1,0.4c-0.8,0-1.6-0.3-2.4-0.4C225.2,266.8,225.2,266.6,225.2,266.3z M222.3,251.3c-0.9,0.5-1.5,1-2.2,1.2
					c-8.6,2.7-16.8,1.4-24-3.8c-5.8-4.2-9.2-10.2-10.3-17.3c-0.4-2.8-0.3-5.6,0.5-8.4c2.4-7.7,7.3-13.2,14.4-16.9
					c2.3-1.2,2.4-1.2,4.1,0.2c1.4-1.2,2.5-2.6,4-3.3c3.1-1.5,6.6-2.1,10-1.8c11.4,1,20.4,6.6,27.1,15.8c1.1,1.5,1.8,3.5,2.1,5.4
					c0.9,6.3,0.1,12.3-2.7,18.1c-1,2.2-2.5,3.6-4.7,4.3c-4.7,1.6-9.3,3.3-14,5c-1.3,0.5-2.4,0.4-3.5-0.5c-0.7-0.6-1.4-1.1-2-1.7
					c-2.6-2.5-5.2-5-7.7-7.7c-0.8-0.9-1.5-2-2-3c-1.2-2.3-0.9-2.6,1.4-3.8c1.3-0.7,2.7-1.5,3.6-2.5c1-1,1.9-1.7,3.3-1.9
					c1.8-0.2,3.5-0.7,4.7-2.1c0.3-0.4,0.9-0.6,1.3-0.7c1.8-0.3,3.6-0.5,5.5-0.8c3.6,5.3,3.7,11.7,5.5,17.6c1.4-0.4,1.2-1.3,1.1-2
					c-0.8-3.3-1.5-6.5-2.5-9.8c-0.9-3-2.2-6-3.3-8.9c-0.3-0.9-0.9-1.7-1.3-2.5c-2.2,0.7-2.2,0.8-2.5,2.4c-0.3,2-0.7,2.3-2.5,2
					c-0.9-0.1-1.7-0.5-2.5-0.8c-0.5-0.1-1.1-0.2-1.6-0.2c-0.2,0.4-0.3,0.5-0.3,0.7c0.3,2.8,0.2,2.8-2.4,3.4
					c-0.6,0.1-1.2,0.3-1.8,0.3c-1.5-0.1-2.6,0.4-2.9,2c-0.1,0.4-0.6,1-1,1.2c-2,0.9-4,2.6-6.3,0.8c-0.1-0.1-0.5,0.1-0.8,0.1
					c-0.5,1.2-0.9,2.5-1.5,3.9c1.9,0.1,3.3,0.1,4.6,1.5c3.7,4.3,7.7,8.5,11.6,12.7C221.2,250,221.6,250.5,222.3,251.3z M218.2,266
					c0.9-1.9,1.5-3.3,2.3-4.9c-1.9-0.8-3.5-1.4-5.1-2c0.4-1.4,0.7-2.5,1-3.8c1.3-0.4,2.6-0.7,4-1.1c1.3-0.3,2.5-1.1,4.1-1
					c-1.7,2.4-1.7,2.4-0.6,4.3c-1,1.1-2.1,2.2-3.1,3.3c1.3,2.2,3.6,1.1,5.5,2.3C223.6,264.6,221.8,266.9,218.2,266z M233.4,270.5
					c0.8-1.1,0.8-1.1,2.4-0.8C234.7,270.1,234,270.3,233.4,270.5z"/>
				<g>
					<g>
						<path class="st6" d="M212.9,257.4c-1.3,0-2.3-0.3-3.3-1c-1.1-0.8-1.7-2.1-1.7-3.5c0-0.6,0.1-1.1,0.3-1.6
							c-3.5,0.3-5.8,0-7.5-1.4c-1.1-1-1.7-2.3-1.7-3.8c0-3.2,1.2-5.6,3.2-7.3c-2.1-0.1-4-0.6-5.5-1.7c-1.5-1.1-3.3-3.2-3.3-7.2
							c0-3.6,2.8-4.8,13.4-9.2c0.9-0.4,1.9-0.8,3-1.2c-0.1-0.2-0.3-0.4-0.4-0.6c-4.9,2.1-9.1,3.4-12.4,1.3c-1.3-0.9-2.9-2.6-2.9-6
							c0-1.8,0.7-3.5,2.1-4.7c1.8-1.7,4.6-2.3,8-2.3c0.1-2.1,1.9-3.8,4-3.8c1.6,0,2.9,0.9,3.6,2.2c1.3-0.1,3.3-0.7,5-1.1
							c0.2-0.1,0.4-0.1,0.6-0.2c0.5-0.1,0.9-0.3,1.3-0.4c5.4-1.6,9.3-2.7,12.1-0.6c1.3,1,2,2.5,2,4.1c0,0.7-0.1,1.3-0.4,1.9
							c-0.1,1.8-0.8,3.4-2.1,4.6c-0.1,0.1-0.2,0.1-0.2,0.2c0,0.2,0,0.4,0,0.7c0,4.6-5.2,7.2-20,13.4c-1.8,0.8-4,1.7-5.8,2.5
							c3.7-0.5,9.7-2.6,13.1-3.7c8.6-2.9,14.7-5.1,18.6-2.3c1.6,1.2,2.6,3,2.6,5.2c0,8.2-9.5,9.8-17.9,11.1
							c-2.1,0.3-4.5,0.7-6.7,1.3c0.1,0,0.2,0,0.3,0c7.2-1.2,10.4-1.6,12.7,0.3c1,0.9,1.6,2.2,1.6,3.5c0,0.7-0.1,1.2-0.3,1.7
							c0.5,0.2,0.9,0.5,1.3,0.8c1.3,1,2,2.6,2,4.3c0,2.2-1.8,4-4,4c-1.3,0-2.5-0.6-3.2-1.6c-1.5,0.1-4,0.7-5.4,1.1
							C216.3,257,214.5,257.4,212.9,257.4z"/>
					</g>
				</g>
			</g>
			<path class="st4" d="M217.3,210.3c-2.8,5-9.2,6.7-14.1,3.9l-23-12.2l18.6-6l20.4,10.9c-0.1,0.1-0.1,0.3-0.2,0.4L217.3,210.3z"/>
			<path class="st4" d="M198.7,196.1l-18.2-2.2l-0.5,0.2l0,0l-21.2,6.7l-13.6,1.9l-36,39c-0.8,0.6-1.5,1.4-2,2.2l-0.6,0.8l0.1-0.1
				c-0.5,0.9-18.9,23.1-18.9,23.1l19.5,26.8l27.8-35.4l45-6l23.7-29.1c-0.1-0.1,0.3-0.1,0.2-0.2l-2.5-2.1c-4-3.5-10-3.1-13.6,0.8
				l-4.9,6.1c-4.3,5.3-12.1,6.1-17.5,1.8c-2.4-2-3.9-4.7-4.4-7.5l0.5-2.7l2.1-6.2l23.1-6.5l7.6,0"/>
			<path class="st17" d="M81,349.2c-14.1,18.3-21.7,39.6-23.2,61l-58.8,3.1c0.9-35,12.6-70.1,35.6-100c1.7-2.2,3.3-4.5,5.1-6.6
				l57.7-74.7l46.4,35.8L86,342.7C84.2,344.7,82.7,347,81,349.2z"/>
			<path class="st18" d="M81.2,345.9c-0.5,0.7-1.1,1.5-1.6,2.2c-14.4,18.6-22.1,40.3-23.5,62.2l-22.8,1.2
				c0.7-28.6,10.2-57.3,29-81.6l59.4-76.9l19.7,15.2l-56.6,73.2C83.4,342.9,82.3,344.5,81.2,345.9z"/>
		</g>
	</g>
	<g>
		<path class="st0" d="M747,255.2c0.9,1.5,2.3,2.7,4.3,3.7c2.4,1.1,4.4,1.6,6.3,1.6c1.2,0,2.3-0.2,3.5-0.6c0.9-0.3,1.9-0.7,2.6-1.6
			c0,0,0.2-0.1,0.3-0.1c2.1-1.1,3.8-2.1,5.3-3.5c2.1-2,3.2-4.6,3.3-7.6c0.1-1.8-0.5-3.5-1.7-5c-2-2.5-4.7-4-8.1-4.4
			c-0.5-0.1-1.1-0.1-1.7-0.1l-0.8,0l-0.7,0c-0.2,0-0.3,0-0.5,0c-4,0.3-7.6,1.9-10.9,4.8c-1.3,1.2-2,2.6-2.2,4.2
			c-0.1,1.4-0.3,2.5-0.4,3.6C745.4,252.1,746.2,253.8,747,255.2z"/>
		<path class="st5" d="M760,238.8c0.8,0.1,1.6,0.1,2.3,0.2c3,0.4,5.5,1.7,7.4,4c1,1.2,1.6,2.6,1.5,4.3c-0.1,2.7-1,5-3,6.9
			c-1.5,1.4-3.2,2.4-5,3.4c-0.2,0.1-0.5,0.2-0.6,0.4c-0.5,0.7-1.3,1-2.1,1.3c-3.1,1.1-6.1,0.4-8.9-1c-1.6-0.7-3-1.7-3.9-3.3
			c-0.8-1.4-1.4-2.8-1.2-4.5c0.2-1.2,0.3-2.4,0.4-3.7c0.1-1.4,0.8-2.5,1.8-3.5c2.9-2.6,6.3-4.2,10.2-4.5
			C759.3,238.8,759.7,238.8,760,238.8z M756.5,255.7c0.2,0.2,0.4,0.3,0.5,0.6c0.4,0.9,1.2,1.1,2,1.1c0.6,0,1.2,0,1.7-0.1
			c2.5-0.5,4.6-1.7,6.6-3.4c2.1-1.8,3-4.1,3-6.8c0-0.5-0.1-1-0.3-1.5c-0.6-2-2.1-3.3-3.8-4.3c-1.7-1-3.5-1.5-5.5-1.6
			c-1.9-0.1-3.7,0-5.5,0.6c-2.2,0.8-4.2,1.9-6,3.5c-1,0.9-1.6,2-1.8,3.3c-0.1,1.1-0.1,2.2-0.3,3.3c-0.3,1.6,0.4,2.8,1.1,4
			c0.9,1.6,2.4,2.5,4,3.3c2.4,1.2,4.9,1.7,7.6,1c0.4-0.1,0.7-0.3,1-0.4c-0.7,0-1.5,0.1-2.3,0C757.2,258.2,756.5,257.4,756.5,255.7z"
			/>
		<path class="st5" d="M757.2,246.4c0-0.5,0.1-1.1,0-1.5c-0.1-0.6,0.1-0.9,0.6-1c0.3-0.1,0.6-0.2,0.9-0.2c1-0.1,2-0.1,3-0.2
			c0.1,0,0.3,0.1,0.4,0.1c0,0.8,0,1.6,0,2.3c0,0.8,0.4,1.3,1.2,1.5c0.7,0.2,1.4,0.4,2.1,0.2c0.2-0.1,0.5,0,0.7,0
			c0.4,0.1,0.5,0.5,0.2,0.7c-0.6,0.5-0.5,1.1-0.5,1.7c-0.1,1.1-0.1,1.1-1.1,1.3c-1.1,0.2-2.2,0.2-3.3,0.3c-0.3,0.7-0.5,1.4-0.2,2.3
			c0.3,0.6,0.1,1-0.6,1c-0.7,0.1-1.4,0.1-2.1,0.1c-0.5,0-1,0-1.5-0.1c-0.7-0.1-1-0.5-0.7-1.2c0.2-0.4,0.4-0.7,0.5-1.1
			c0.3-0.9,0-1.3-0.9-1.4c-0.5,0-1-0.1-1.5-0.2c-1.2-0.2-1.5-0.7-1-1.8c0.2-0.6,0.4-1.1,0.5-1.7c0.1-0.5,0.5-0.8,1.1-0.8
			c0.4,0,0.8,0.1,1.2,0C756.3,246.7,756.6,246.6,757.2,246.4z M758.2,244.6c0,0.4,0,0.6-0.1,0.9c0,0.5,0,1-0.1,1.5
			c-0.2,0.9-0.3,1-1.2,0.8c-0.7-0.2-1.4-0.1-2.1,0.1c-0.2,0.7-0.3,1.4-0.4,2c0.5,0.4,1.1,0.4,1.7,0.3c0.4,0,0.9-0.1,1.3-0.2
			c0.5-0.1,0.7,0.2,0.7,0.7c0,0.2-0.1,0.5-0.1,0.7c-0.1,0.8-0.2,1.7-0.4,2.6c0.6,0,1.1,0,1.5,0c0.2-0.4,0.2-0.8,0.4-0.9
			c0.8-0.5,0.7-1.1,0.4-1.9c1.5-1,3.2-0.6,4.9-0.8c0-0.5,0.1-0.9,0.1-1.4c-0.9-0.3-1.7-0.4-2.5-0.3c-0.3,0-0.6,0.1-0.9,0.1
			c-0.6,0-0.7-0.2-0.6-0.8c0.1-0.6,0.3-1.3,0.4-1.9c0.1-0.5,0-1-0.4-1.4C759.8,244.6,759.1,244.6,758.2,244.6z"/>
		<g>
			<g>
				<path class="st19" d="M756.9,254.6c-0.1,0-0.2,0-0.3,0c-0.6-0.1-1-0.4-1.3-0.9c-0.6-1.1-0.1-2,0.9-3.2c-0.2-0.1-0.4-0.3-0.6-0.6
					c-0.1-0.2-0.2-0.4-0.3-0.6c-0.2,0-0.5,0-0.7,0c-0.6-0.1-1.1-0.4-1.4-1c-0.4-0.7-0.2-1.7,0.6-2.1c0.4-0.2,0.9-0.3,1.3-0.1
					c0.7-0.4,1.9-1.4,2.7-2c1.7-1.4,2.4-2,3.4-1.9c0.4,0.1,0.9,0.4,1.1,0.8c0.3,0.6,0.3,1.3-0.2,1.8c0,0,0,0,0,0
					c0.4,0.1,0.7,0.4,0.9,0.7c0.4,0.7,0.3,1.4-0.1,2.2c0.4,0.2,0.8,0.5,1,0.9c0.4,0.7,0.2,1.7-0.6,2.1c-0.4,0.2-0.8,0.3-1.2,0.1
					c-0.5,0.3-1.3,1-1.8,1.5C759.1,253.7,758,254.6,756.9,254.6z"/>
			</g>
		</g>
	</g>
	<g>
		<path class="st0" d="M661.5,103.3c-0.9-1.5-2.3-2.7-4.3-3.7c-2.4-1.1-4.4-1.6-6.3-1.6c-1.2,0-2.3,0.2-3.5,0.6
			c-0.9,0.3-1.9,0.7-2.6,1.6c0,0-0.2,0.1-0.3,0.1c-2.1,1.1-3.8,2.1-5.3,3.5c-2.1,2-3.2,4.6-3.3,7.6c-0.1,1.8,0.5,3.5,1.7,5
			c2,2.5,4.7,4,8.1,4.4c0.5,0.1,1.1,0.1,1.7,0.1l0.8,0l0.7,0c0.2,0,0.3,0,0.5,0c4-0.3,7.6-1.9,10.9-4.8c1.3-1.2,2-2.6,2.2-4.2
			c0.1-1.4,0.3-2.5,0.4-3.6C663.1,106.4,662.3,104.7,661.5,103.3z"/>
		<path class="st5" d="M648.4,119.7c-0.8-0.1-1.6-0.1-2.3-0.2c-3-0.4-5.5-1.7-7.4-4c-1-1.2-1.6-2.6-1.5-4.3c0.1-2.7,1-5,3-6.9
			c1.5-1.4,3.2-2.4,5-3.4c0.2-0.1,0.5-0.2,0.6-0.4c0.5-0.7,1.3-1,2.1-1.3c3.1-1.1,6.1-0.4,8.9,1c1.6,0.7,3,1.7,3.9,3.3
			c0.8,1.4,1.4,2.8,1.2,4.5c-0.2,1.2-0.3,2.4-0.4,3.7c-0.1,1.4-0.8,2.5-1.8,3.5c-2.9,2.6-6.3,4.2-10.2,4.5
			C649.1,119.7,648.8,119.7,648.4,119.7z M652,102.8c-0.2-0.2-0.4-0.3-0.5-0.6c-0.4-0.9-1.2-1.1-2-1.1c-0.6,0-1.2,0-1.7,0.1
			c-2.5,0.5-4.6,1.7-6.6,3.4c-2.1,1.8-3,4.1-3,6.8c0,0.5,0.1,1,0.3,1.5c0.6,2,2.1,3.3,3.8,4.3c1.7,1,3.5,1.5,5.5,1.6
			c1.9,0.1,3.7,0,5.5-0.6c2.2-0.8,4.2-1.9,6-3.5c1-0.9,1.6-2,1.8-3.3c0.1-1.1,0.1-2.2,0.3-3.3c0.3-1.6-0.4-2.8-1.1-4
			c-0.9-1.6-2.4-2.5-4-3.3c-2.4-1.2-4.9-1.7-7.6-1c-0.4,0.1-0.7,0.3-1,0.4c0.7,0,1.5-0.1,2.3,0C651.3,100.4,651.9,101.1,652,102.8z"
			/>
		<path class="st5" d="M651.3,112.1c0,0.5-0.1,1.1,0,1.5c0.1,0.6-0.1,0.9-0.6,1c-0.3,0.1-0.6,0.2-0.9,0.2c-1,0.1-2,0.1-3,0.2
			c-0.1,0-0.3-0.1-0.4-0.1c0-0.8,0-1.6,0-2.3c0-0.8-0.4-1.3-1.2-1.5c-0.7-0.2-1.4-0.4-2.1-0.2c-0.2,0.1-0.5,0-0.7,0
			c-0.4-0.1-0.5-0.5-0.2-0.7c0.6-0.5,0.5-1.1,0.5-1.7c0.1-1.1,0.1-1.1,1.1-1.3c1.1-0.2,2.2-0.2,3.3-0.3c0.3-0.7,0.5-1.4,0.2-2.3
			c-0.3-0.6-0.1-1,0.6-1c0.7-0.1,1.4-0.1,2.2-0.1c0.5,0,1,0,1.5,0.1c0.7,0.1,1,0.5,0.7,1.2c-0.2,0.4-0.4,0.7-0.5,1.1
			c-0.3,0.9,0,1.4,0.9,1.4c0.5,0,1,0.1,1.5,0.2c1.2,0.2,1.5,0.7,1,1.8c-0.2,0.6-0.4,1.1-0.5,1.7c-0.1,0.5-0.5,0.8-1.1,0.8
			c-0.4,0-0.8-0.1-1.2,0C652.2,111.8,651.8,112,651.3,112.1z M650.3,114c0-0.4,0-0.6,0.1-0.9c0-0.5,0-1,0.1-1.5
			c0.2-0.9,0.3-1,1.2-0.8c0.7,0.2,1.4,0.1,2.1-0.1c0.2-0.7,0.3-1.4,0.4-2c-0.5-0.4-1.1-0.4-1.7-0.3c-0.4,0-0.9,0.1-1.3,0.2
			c-0.5,0.1-0.7-0.2-0.7-0.7c0-0.2,0.1-0.5,0.1-0.7c0.1-0.8,0.3-1.7,0.4-2.6c-0.6,0-1.1,0-1.5,0c-0.2,0.3-0.2,0.8-0.4,0.9
			c-0.8,0.5-0.7,1.1-0.4,1.9c-1.5,1-3.2,0.6-4.9,0.8c0,0.5-0.1,0.9-0.1,1.4c0.9,0.3,1.7,0.4,2.5,0.3c0.3,0,0.6-0.1,0.9-0.1
			c0.6,0,0.7,0.2,0.6,0.8c-0.1,0.6-0.3,1.3-0.4,1.9c-0.1,0.5,0,1,0.4,1.4C648.6,114,649.4,114,650.3,114z"/>
		<g>
			<g>
				<path class="st20" d="M653.6,112.9C653.6,112.9,653.5,112.9,653.6,112.9l-9-0.2c-0.8,0-1.6-0.4-2.1-0.9
					c-0.6-0.6-0.9-1.4-0.8-2.2c0.1-2.4,2.2-2.9,3.1-3.1c0.2,0,0.3-0.1,0.4-0.1c0.4-1.2,1.6-2.1,2.9-2.1c0.2,0,0.3,0,0.5,0
					c0.2,0,0.5,0,0.8,0c1.8-0.1,2.9-0.1,3.9,0.9c0.4,0.4,0.7,1,0.9,1.6c1.5,0.2,2.6,1.5,2.6,3C656.6,111.6,655.2,112.9,653.6,112.9z
					 M651,106.8L651,106.8c-0.1-0.4-0.2-0.7-0.4-1C650.7,106.1,650.9,106.5,651,106.8z"/>
			</g>
		</g>
	</g>
	<g>
		<path class="st0" d="M179.8,150.4c0.9,1.5,2.3,2.7,4.3,3.7c2.4,1.1,4.4,1.6,6.3,1.6c1.2,0,2.3-0.2,3.5-0.6
			c0.9-0.3,1.9-0.7,2.6-1.6c0,0,0.2-0.1,0.3-0.1c2.1-1.1,3.8-2.1,5.3-3.5c2.1-2,3.2-4.6,3.3-7.6c0.1-1.8-0.5-3.5-1.7-5
			c-2-2.5-4.7-4-8.1-4.4c-0.5-0.1-1.1-0.1-1.7-0.1l-0.8,0l-0.7,0c-0.2,0-0.3,0-0.5,0c-4,0.3-7.6,1.9-10.9,4.8
			c-1.3,1.2-2,2.6-2.2,4.2c-0.1,1.4-0.3,2.5-0.4,3.6C178.2,147.3,179,149,179.8,150.4z"/>
		<path class="st5" d="M192.8,134c0.8,0.1,1.6,0.1,2.3,0.2c3,0.4,5.5,1.7,7.4,4c1,1.2,1.6,2.6,1.5,4.3c-0.1,2.7-1,5-3,6.9
			c-1.5,1.4-3.2,2.4-5,3.4c-0.2,0.1-0.5,0.2-0.6,0.4c-0.5,0.7-1.3,1-2.1,1.3c-3.1,1.1-6.1,0.4-8.9-1c-1.6-0.7-3-1.7-3.9-3.3
			c-0.8-1.4-1.4-2.8-1.2-4.5c0.2-1.2,0.3-2.4,0.4-3.7c0.1-1.4,0.8-2.5,1.8-3.5c2.9-2.6,6.3-4.2,10.2-4.5
			C192.1,134,192.5,134,192.8,134z M189.3,150.9c0.2,0.2,0.4,0.3,0.5,0.6c0.4,0.9,1.2,1.1,2,1.1c0.6,0,1.2,0,1.7-0.1
			c2.5-0.5,4.6-1.7,6.6-3.4c2.1-1.8,3-4.1,3-6.8c0-0.5-0.1-1-0.3-1.5c-0.6-2-2.1-3.3-3.8-4.3c-1.7-1-3.5-1.5-5.5-1.6
			c-1.9-0.1-3.7,0-5.5,0.6c-2.2,0.8-4.2,1.9-6,3.5c-1,0.9-1.6,2-1.8,3.3c-0.1,1.1-0.1,2.2-0.3,3.3c-0.3,1.6,0.4,2.8,1.1,4
			c0.9,1.6,2.4,2.5,4,3.3c2.4,1.2,4.9,1.7,7.6,1c0.4-0.1,0.7-0.3,1-0.4c-0.7,0-1.5,0.1-2.3,0C190,153.3,189.3,152.6,189.3,150.9z"/>
		<path class="st5" d="M189.9,141.6c0-0.5,0.1-1.1,0-1.5c-0.1-0.6,0.1-0.9,0.6-1c0.3-0.1,0.6-0.2,0.9-0.2c1-0.1,2-0.1,3-0.2
			c0.1,0,0.3,0.1,0.4,0.1c0,0.8,0,1.6,0,2.3c0,0.8,0.4,1.3,1.2,1.5c0.7,0.2,1.4,0.4,2.1,0.2c0.2-0.1,0.5,0,0.7,0
			c0.4,0.1,0.5,0.5,0.2,0.7c-0.6,0.5-0.5,1.1-0.5,1.7c-0.1,1.1-0.1,1.1-1.1,1.3c-1.1,0.2-2.2,0.2-3.3,0.3c-0.3,0.7-0.5,1.4-0.2,2.3
			c0.3,0.6,0.1,1-0.6,1c-0.7,0.1-1.4,0.1-2.1,0.1c-0.5,0-1,0-1.5-0.1c-0.7-0.1-1-0.5-0.7-1.2c0.2-0.4,0.4-0.7,0.5-1.1
			c0.3-0.9,0-1.4-0.9-1.4c-0.5,0-1-0.1-1.5-0.2c-1.2-0.2-1.5-0.7-1-1.8c0.2-0.6,0.4-1.1,0.5-1.7c0.1-0.5,0.5-0.8,1.1-0.8
			c0.4,0,0.8,0.1,1.2,0C189.1,141.9,189.4,141.7,189.9,141.6z M191,139.7c0,0.4,0,0.6-0.1,0.9c0,0.5,0,1-0.1,1.5
			c-0.2,0.9-0.3,1-1.2,0.8c-0.7-0.2-1.4-0.1-2.1,0.1c-0.2,0.7-0.3,1.4-0.4,2c0.5,0.4,1.1,0.4,1.7,0.3c0.4,0,0.9-0.1,1.3-0.2
			c0.5-0.1,0.7,0.2,0.7,0.7c0,0.2-0.1,0.5-0.1,0.7c-0.1,0.8-0.2,1.7-0.4,2.6c0.6,0,1.1,0,1.5,0c0.2-0.4,0.2-0.8,0.4-0.9
			c0.8-0.5,0.7-1.1,0.4-1.9c1.5-1,3.2-0.6,4.9-0.8c0-0.5,0.1-0.9,0.1-1.4c-0.9-0.3-1.7-0.4-2.5-0.3c-0.3,0-0.6,0.1-0.9,0.1
			c-0.6,0-0.7-0.2-0.6-0.8c0.1-0.6,0.3-1.3,0.4-1.9c0.1-0.5,0-1-0.4-1.4C192.6,139.7,191.9,139.7,191,139.7z"/>
		<g>
			<g>
				<path class="st21" d="M189.7,149.8c-0.1,0-0.2,0-0.3,0c-0.6-0.1-1-0.4-1.3-0.9c-0.6-1.1-0.1-2,0.9-3.2c-0.2-0.1-0.4-0.3-0.6-0.6
					c-0.1-0.2-0.2-0.4-0.3-0.6c-0.2,0-0.5,0-0.7,0c-0.6-0.1-1.1-0.4-1.4-1c-0.4-0.7-0.2-1.7,0.6-2.1c0.4-0.2,0.9-0.3,1.3-0.1
					c0.7-0.4,1.9-1.4,2.7-2c1.7-1.4,2.5-2,3.4-1.9c0.4,0.1,0.9,0.4,1.1,0.8c0.3,0.6,0.3,1.3-0.2,1.8c0,0,0,0,0,0
					c0.4,0.1,0.7,0.4,0.9,0.7c0.4,0.7,0.3,1.4-0.1,2.2c0.4,0.2,0.8,0.5,1,0.9c0.4,0.7,0.2,1.7-0.6,2.1c-0.4,0.2-0.8,0.3-1.2,0.1
					c-0.5,0.3-1.3,1-1.8,1.5C191.9,148.8,190.8,149.8,189.7,149.8z"/>
			</g>
		</g>
	</g>
	<g>
		<path class="st0" d="M73.5,187.6c-0.9-1.5-2.3-2.7-4.3-3.7c-2.4-1.1-4.4-1.6-6.3-1.6c-1.2,0-2.3,0.2-3.5,0.6
			c-0.9,0.3-1.9,0.7-2.6,1.6c0,0-0.2,0.1-0.3,0.1c-2.1,1.1-3.8,2.1-5.3,3.5c-2.1,2-3.2,4.6-3.3,7.6c-0.1,1.8,0.5,3.5,1.7,5
			c2,2.5,4.7,4,8.1,4.4c0.5,0.1,1.1,0.1,1.7,0.1l0.8,0l0.7,0c0.2,0,0.3,0,0.5,0c4-0.3,7.6-1.9,10.9-4.8c1.3-1.2,2-2.6,2.2-4.2
			c0.1-1.4,0.3-2.5,0.4-3.6C75.1,190.7,74.3,189,73.5,187.6z"/>
		<path class="st5" d="M60.5,203.9c-0.8-0.1-1.6-0.1-2.3-0.2c-3-0.4-5.5-1.7-7.4-4c-1-1.2-1.6-2.6-1.5-4.3c0.1-2.7,1-5,3-6.9
			c1.5-1.4,3.2-2.4,5-3.4c0.2-0.1,0.5-0.2,0.6-0.4c0.5-0.7,1.3-1,2.1-1.3c3.1-1.1,6.1-0.4,8.9,1c1.6,0.7,3,1.7,3.9,3.3
			c0.8,1.4,1.4,2.8,1.2,4.5c-0.2,1.2-0.3,2.4-0.4,3.7c-0.1,1.4-0.8,2.5-1.8,3.5c-2.9,2.6-6.3,4.2-10.2,4.5
			C61.2,204,60.8,203.9,60.5,203.9z M64,187c-0.2-0.2-0.4-0.3-0.5-0.6c-0.4-0.9-1.2-1.1-2-1.1c-0.6,0-1.2,0-1.7,0.1
			c-2.5,0.5-4.6,1.7-6.6,3.4c-2.1,1.8-3,4.1-3,6.8c0,0.5,0.1,1,0.3,1.5c0.6,2,2.1,3.3,3.8,4.3c1.7,1,3.5,1.5,5.5,1.6
			c1.9,0.1,3.7,0,5.5-0.6c2.2-0.8,4.2-1.9,6-3.5c1-0.9,1.6-2,1.8-3.3c0.1-1.1,0.1-2.2,0.3-3.3c0.3-1.6-0.4-2.8-1.1-4
			c-0.9-1.6-2.4-2.5-4-3.3c-2.4-1.2-4.9-1.7-7.6-1c-0.4,0.1-0.7,0.3-1,0.4c0.7,0,1.5-0.1,2.3,0C63.3,184.6,64,185.3,64,187z"/>
		<path class="st5" d="M63.4,196.3c0,0.5-0.1,1.1,0,1.5c0.1,0.6-0.1,0.9-0.6,1c-0.3,0.1-0.6,0.2-0.9,0.2c-1,0.1-2,0.1-3,0.2
			c-0.1,0-0.3-0.1-0.4-0.1c0-0.8,0-1.6,0-2.3c0-0.8-0.4-1.3-1.2-1.5c-0.7-0.2-1.4-0.4-2.1-0.2c-0.2,0.1-0.5,0-0.7,0
			c-0.4-0.1-0.5-0.5-0.2-0.7c0.6-0.5,0.5-1.1,0.5-1.7c0.1-1.1,0.1-1.1,1.1-1.3c1.1-0.2,2.2-0.2,3.3-0.3c0.3-0.7,0.5-1.4,0.2-2.3
			c-0.3-0.6-0.1-1,0.6-1c0.7-0.1,1.4-0.1,2.1-0.1c0.5,0,1,0,1.5,0.1c0.7,0.1,1,0.5,0.7,1.2c-0.2,0.4-0.4,0.7-0.5,1.1
			c-0.3,0.9,0,1.4,0.9,1.4c0.5,0,1,0.1,1.5,0.2c1.2,0.2,1.5,0.7,1,1.8c-0.2,0.6-0.4,1.1-0.5,1.7c-0.1,0.5-0.5,0.8-1.1,0.8
			c-0.4,0-0.8-0.1-1.2,0C64.2,196.1,63.9,196.2,63.4,196.3z M62.3,198.2c0-0.4,0-0.6,0.1-0.9c0-0.5,0-1,0.1-1.5
			c0.2-0.9,0.3-1,1.2-0.8c0.7,0.2,1.4,0.1,2.1-0.1c0.2-0.7,0.3-1.4,0.4-2c-0.5-0.4-1.1-0.4-1.7-0.3c-0.4,0-0.9,0.1-1.3,0.2
			c-0.5,0.1-0.7-0.2-0.7-0.7c0-0.2,0.1-0.5,0.1-0.7c0.1-0.8,0.2-1.7,0.4-2.6c-0.6,0-1.1,0-1.5,0c-0.2,0.3-0.2,0.8-0.4,0.9
			c-0.8,0.5-0.7,1.1-0.4,1.9c-1.5,1-3.2,0.6-4.9,0.8c0,0.5-0.1,0.9-0.1,1.4c0.9,0.3,1.7,0.4,2.5,0.3c0.3,0,0.6-0.1,0.9-0.1
			c0.6,0,0.7,0.2,0.6,0.8c-0.1,0.6-0.3,1.3-0.4,1.9c-0.1,0.5,0,1,0.4,1.4C60.7,198.2,61.4,198.2,62.3,198.2z"/>
		<g>
			<g>
				<path class="st19" d="M58.7,200.5c-0.1,0-0.2,0-0.3,0c-0.6-0.1-1-0.4-1.3-0.9c-0.6-1.1-0.1-2.1,1-3.3c-0.2-0.1-0.4-0.3-0.5-0.5
					c-0.1-0.1-0.2-0.3-0.2-0.4c-0.4,0.2-0.9,0.2-1.3,0.1c-0.6-0.1-1.1-0.5-1.4-1c-0.4-0.7-0.2-1.7,0.6-2.1c0.4-0.3,1-0.3,1.4-0.1
					c0.7-0.4,2.1-1.5,2.9-2.2c1.8-1.5,2.6-2.1,3.6-2c0.4,0.1,0.9,0.4,1.1,0.8c0.3,0.6,0.3,1.3-0.2,1.8c0,0-0.1,0.1-0.1,0.1
					c0.4,0.1,0.7,0.4,0.9,0.7c0.4,0.7,0.3,1.5-0.1,2.2c0.4,0.2,0.7,0.4,1,0.8c0.4,0.7,0.2,1.7-0.6,2.1c-0.4,0.2-0.8,0.3-1.2,0.2
					c-0.5,0.3-1.2,1-1.7,1.4C60.9,199.5,59.8,200.5,58.7,200.5z"/>
			</g>
		</g>
	</g>
	<g>
		<path class="st0" d="M931.2,215.5c1.1,1.4,2.6,2.4,4.8,3.1c2.5,0.8,4.5,1.1,6.4,0.8c1.2-0.1,2.3-0.5,3.4-1
			c0.9-0.4,1.8-0.9,2.3-1.9c0,0,0.2-0.1,0.3-0.2c1.9-1.3,3.5-2.6,4.8-4.2c1.8-2.3,2.6-4.9,2.4-8c-0.2-1.8-0.9-3.4-2.3-4.7
			c-2.3-2.2-5.2-3.3-8.6-3.4c-0.5,0-1.1,0-1.7,0.1l-0.8,0.1l-0.7,0.1c-0.2,0-0.3,0-0.5,0.1c-3.9,0.8-7.3,2.8-10.2,6.1
			c-1.1,1.3-1.7,2.8-1.6,4.4c0,1.4,0.1,2.5,0,3.6C929.2,212.6,930.2,214.2,931.2,215.5z"/>
		<path class="st5" d="M942.1,197.6c0.8,0,1.5-0.1,2.3-0.1c3,0,5.6,1,7.8,3.1c1.2,1.1,1.9,2.4,2,4c0.2,2.7-0.4,5.1-2.1,7.2
			c-1.3,1.6-2.9,2.8-4.5,4c-0.2,0.1-0.4,0.2-0.6,0.4c-0.4,0.8-1.2,1.2-1.9,1.6c-3,1.5-6,1.1-9,0.1c-1.7-0.5-3.2-1.4-4.2-2.8
			c-1-1.3-1.8-2.6-1.7-4.3c0-1.2,0-2.5,0-3.7c0-1.4,0.5-2.6,1.4-3.7c2.6-3,5.7-5,9.6-5.7C941.4,197.6,941.8,197.6,942.1,197.6z
			 M940.6,214.8c0.2,0.2,0.5,0.3,0.6,0.5c0.5,0.8,1.3,1,2.2,0.9c0.6-0.1,1.2-0.2,1.7-0.3c2.5-0.8,4.4-2.3,6.1-4.2
			c1.8-2.1,2.4-4.5,2.1-7.1c-0.1-0.5-0.2-1-0.4-1.5c-0.9-1.9-2.4-3-4.3-3.8c-1.8-0.8-3.7-1-5.6-0.9c-1.9,0.1-3.7,0.5-5.3,1.3
			c-2.1,1.1-4,2.4-5.5,4.2c-0.9,1.1-1.4,2.2-1.4,3.5c0,1.1,0.1,2.2,0.1,3.3c-0.1,1.6,0.7,2.7,1.6,3.9c1.1,1.4,2.7,2.2,4.4,2.7
			c2.5,0.9,5.1,1,7.6,0c0.4-0.1,0.7-0.4,0.9-0.5c-0.7,0.1-1.5,0.2-2.2,0.3C941.7,217.1,940.9,216.5,940.6,214.8z"/>
		<path class="st5" d="M940.2,205.5c-0.1-0.5-0.1-1.1-0.2-1.5c-0.2-0.5,0-0.9,0.4-1.1c0.3-0.1,0.6-0.3,0.9-0.3
			c1-0.2,1.9-0.4,2.9-0.6c0.1,0,0.3,0,0.4,0c0.1,0.8,0.2,1.6,0.3,2.3c0.1,0.8,0.5,1.3,1.3,1.4c0.7,0.1,1.4,0.2,2.1-0.1
			c0.2-0.1,0.5-0.1,0.7,0c0.4,0.1,0.6,0.4,0.3,0.7c-0.5,0.5-0.4,1.1-0.3,1.7c0.1,1.1,0.1,1.1-1,1.4c-1,0.3-2.1,0.5-3.3,0.8
			c-0.2,0.7-0.3,1.5,0.1,2.3c0.3,0.6,0.2,0.9-0.5,1.1c-0.7,0.2-1.4,0.3-2.1,0.4c-0.5,0.1-1,0.1-1.5,0.1c-0.7,0-1.1-0.4-0.8-1.1
			c0.1-0.4,0.3-0.8,0.4-1.2c0.2-1-0.1-1.3-1.1-1.3c-0.5,0-1,0-1.5,0c-1.2,0-1.6-0.5-1.3-1.7c0.2-0.6,0.3-1.2,0.3-1.8
			c0.1-0.6,0.4-0.9,1-0.9c0.4,0,0.8,0,1.2-0.1C939.3,205.9,939.7,205.7,940.2,205.5z M940.9,203.5c0,0.4,0,0.6,0,0.9
			c0,0.5,0.1,1,0.1,1.5c-0.1,0.9-0.2,1-1.1,0.9c-0.7-0.1-1.4,0-2.1,0.4c-0.1,0.7-0.1,1.4-0.2,2.1c0.6,0.3,1.2,0.2,1.7,0.1
			c0.4-0.1,0.8-0.2,1.3-0.3c0.5-0.1,0.7,0.2,0.8,0.6c0.1,0.2,0,0.5,0,0.7c0,0.8,0,1.7-0.1,2.6c0.6-0.1,1-0.1,1.5-0.2
			c0.1-0.4,0.1-0.8,0.3-1c0.8-0.6,0.6-1.2,0.1-1.9c1.4-1.2,3.1-1,4.7-1.4c0-0.5,0-0.9,0-1.4c-0.9-0.2-1.7-0.2-2.5,0
			c-0.3,0.1-0.6,0.2-0.9,0.2c-0.6,0.1-0.7-0.1-0.7-0.7c0-0.6,0.1-1.3,0.1-1.9c0-0.5-0.1-1-0.6-1.4
			C942.6,203.3,941.8,203.4,940.9,203.5z"/>
		<g>
			<g>
				<path class="st21" d="M937.3,205.5c0-0.1,0-0.2,0-0.3c0-0.6,0.3-1.1,0.7-1.4c0.8-0.6,1.7-0.4,2.7,0.2c0.1-0.4,0.3-0.7,0.6-0.9
					c0.6-0.5,1-0.7,3.6,0.7c0,0,0.1-0.1,0.1-0.1c0.7-0.5,1.6-0.4,2.2,0.3c0.1,0.2,0.2,0.4,0.3,0.6c0.2,0.3,0.6,0.7,0.8,0.9
					c0.8,0.9,1.2,1.3,1.1,2c0,0.4-0.3,0.8-0.6,1.1c-0.4,0.3-1,0.4-1.5,0.2c0,0.4-0.1,0.8-0.6,1.2c-0.7,0.5-1.4,0.5-2.2,0.2
					c-0.1,0.4-0.3,0.8-0.7,1.1c-0.7,0.5-1.6,0.4-2.2-0.3c-0.2-0.3-0.3-0.7-0.3-1.1c-0.4-0.4-1-1-1.5-1.3
					C938.4,207.4,937.4,206.5,937.3,205.5z"/>
			</g>
		</g>
	</g>
</g>
<g>
	<path class="st22" d="M381.2,164c10.5,4.1,21.6,11,32,22.3"/>
	<path class="st22" d="M400.9,180.8c0,0,10.9,4.1,12.3,5.5c1.4,1.4-5.9-11.6-5.9-11.6"/>
</g>
<g>
	<path class="st22" d="M243.3,235.2c9.6-5.9,26.3-13,41.6-14.3"/>
	<path class="st22" d="M273.1,227.4c0,0,9.9-6.2,11.8-6.5c2-0.3-12.8-2.4-12.8-2.4"/>
</g>
<g>
	<path class="st22" d="M654.7,268c-24.2,5-53.4-12.9-65.3-24.2"/>
	<path class="st22" d="M602.9,248.7c0,0-12-3.5-13.6-4.9c-1.6-1.4,7.2,11.9,7.2,11.9"/>
</g>
<g>
	<polygon class="st22" points="425,273.2 426.4,262.4 418.3,269.5 	"/>
	<path class="st22" d="M425.8,264.4c0,0-22.2,39.8-61.9,22.7"/>
</g>
<g>
	<path class="st22" d="M608.3,169.2c17-34.5,89.5-41.4,110,0.3"/>
	<polyline class="st22" points="621.3,161.7 607.4,170.8 610.4,155.9 	"/>
</g>
<g>
	<path class="st22" d="M704.9,217.6c17.6-37.8,74.7-24.3,51.7-5.6c-8.7,7.1-13.3-3.1,0-9.3c10.3-4.8,20.5-3.8,29.7,1"/>
	<polyline class="st22" points="704.6,207.7 701.8,221.3 710.1,213.8 	"/>
</g>
</svg>
