<?xml version="1.0" encoding="utf-8"?>
<!-- Generator: Adobe Illustrator 19.2.1, SVG Export Plug-In . SVG Version: 6.00 Build 0)  -->
<svg version="1.1" id="Layer_1" xmlns="http://www.w3.org/2000/svg" xmlns:xlink="http://www.w3.org/1999/xlink" x="0px" y="0px"
	 viewBox="0 0 310 70" style="enable-background:new 0 0 310 70;" xml:space="preserve">
<style type="text/css">
	.st0{fill:#226AB4;}
	.st1{fill:none;stroke:#226AB4;stroke-width:1.5;stroke-linecap:round;stroke-linejoin:round;stroke-miterlimit:10;}
	.st2{fill:none;stroke:#00A651;stroke-width:1.5;stroke-linecap:round;stroke-linejoin:round;stroke-miterlimit:10;}
</style>
<g>
	<path class="st0" d="M90.7,49.1c1.7,2.1,3.5,3.5,5.3,4.4c1.8,0.9,3.7,1.3,5.7,1.3c2.7,0,4.8-0.8,6.4-2.4c1.6-1.6,2.4-4,2.4-7V1.5
		h14.6v44.8c0,3.7-0.6,6.9-1.8,9.6c-1.2,2.7-2.9,4.9-4.9,6.7c-2.1,1.7-4.4,3-7.1,3.9c-2.7,0.8-5.5,1.3-8.4,1.3
		c-9.3,0-16.5-3.2-21.5-9.6L90.7,49.1z"/>
	<path class="st0" d="M133.3,1.5h14.6v25.7l21.5-25.7h16.9l-22.1,25.1l25.1,39.3h-17.7l-17.2-28.1l-6.6,7.3v20.8h-14.6V1.5z"/>
	<g>
		<g>
			<path class="st0" d="M196.1,24.6h6c1,0,1.8,0.1,2.5,0.3c0.7,0.2,1.2,0.5,1.7,0.9c0.4,0.4,0.7,0.8,0.9,1.3c0.2,0.5,0.3,1,0.3,1.6
				c0,0.5-0.1,1-0.3,1.3c-0.2,0.4-0.4,0.7-0.6,1c-0.2,0.3-0.5,0.5-0.8,0.7c-0.3,0.2-0.5,0.3-0.7,0.3c0.3,0.1,0.6,0.2,1,0.4
				c0.7,0.3,1.2,0.7,1.6,1.3c0.4,0.6,0.6,1.3,0.6,2.2c0,0.8-0.1,1.5-0.4,2.1c-0.3,0.6-0.7,1-1.2,1.4c-0.5,0.4-1.2,0.6-2,0.8
				c-0.8,0.2-1.6,0.3-2.6,0.3h-6V24.6z M201.7,31c0.3,0,0.5,0,0.8-0.1c0.3-0.1,0.5-0.2,0.7-0.3c0.2-0.1,0.4-0.3,0.5-0.5
				c0.1-0.2,0.2-0.5,0.2-0.8c0-0.3-0.1-0.6-0.2-0.9c-0.1-0.2-0.3-0.4-0.5-0.5c-0.2-0.1-0.4-0.2-0.7-0.3c-0.3-0.1-0.5-0.1-0.8-0.1
				h-2.1V31H201.7z M201.9,37.7c0.3,0,0.5,0,0.9-0.1c0.3,0,0.6-0.1,0.9-0.3c0.3-0.1,0.5-0.3,0.7-0.6c0.2-0.3,0.3-0.6,0.3-1.1
				c0-0.4-0.1-0.8-0.3-1c-0.2-0.3-0.4-0.5-0.7-0.6c-0.3-0.2-0.6-0.3-0.9-0.3c-0.3-0.1-0.6-0.1-0.9-0.1h-2.3v4.1H201.9z"/>
			<path class="st0" d="M210.4,24.6h3.7v3.1h-3.7V24.6z M210.5,29.3h3.4v11.2h-3.4V29.3z"/>
			<path class="st0" d="M216.1,34.9c0-0.8,0.1-1.6,0.4-2.3c0.3-0.7,0.7-1.4,1.2-1.9c0.5-0.5,1.2-1,1.9-1.3c0.7-0.3,1.6-0.5,2.4-0.5
				c0.9,0,1.7,0.2,2.4,0.5c0.7,0.3,1.4,0.7,1.9,1.3c0.5,0.5,0.9,1.2,1.2,1.9c0.3,0.7,0.4,1.5,0.4,2.3c0,0.8-0.1,1.6-0.4,2.3
				c-0.3,0.7-0.7,1.4-1.2,1.9c-0.5,0.5-1.2,1-1.9,1.3c-0.7,0.3-1.5,0.5-2.4,0.5c-0.9,0-1.7-0.2-2.4-0.5c-0.7-0.3-1.4-0.7-1.9-1.3
				s-0.9-1.2-1.2-1.9C216.2,36.5,216.1,35.7,216.1,34.9z M222.1,37.9c0.4,0,0.8-0.1,1.1-0.3c0.3-0.2,0.6-0.4,0.8-0.7
				c0.2-0.3,0.4-0.6,0.5-1c0.1-0.4,0.2-0.7,0.2-1.1c0-0.4-0.1-0.8-0.2-1.1c-0.1-0.4-0.3-0.7-0.5-1c-0.2-0.3-0.5-0.5-0.8-0.7
				c-0.3-0.2-0.7-0.3-1.1-0.3c-0.4,0-0.8,0.1-1.2,0.3c-0.3,0.2-0.6,0.4-0.8,0.7c-0.2,0.3-0.4,0.6-0.5,1c-0.1,0.4-0.2,0.7-0.2,1.1
				c0,0.4,0.1,0.8,0.2,1.1c0.1,0.4,0.3,0.7,0.5,1c0.2,0.3,0.5,0.5,0.8,0.7C221.3,37.8,221.6,37.9,222.1,37.9z"/>
			<path class="st0" d="M229.9,24.6h5.8c1,0,1.8,0.1,2.5,0.4c0.7,0.3,1.3,0.7,1.7,1.1c0.5,0.5,0.8,1,1,1.6c0.2,0.6,0.3,1.3,0.3,1.9
				c0,0.9-0.1,1.6-0.4,2.3c-0.3,0.6-0.7,1.2-1.2,1.6c-0.5,0.4-1.1,0.8-1.7,1c-0.7,0.2-1.3,0.3-2,0.3h-2.5v5.6h-3.5V24.6z M235.5,32
				c0.7,0,1.2-0.2,1.6-0.6c0.4-0.4,0.6-0.9,0.6-1.6c0-0.7-0.2-1.2-0.6-1.6c-0.4-0.4-0.9-0.6-1.6-0.6h-2.1V32H235.5z"/>
			<path class="st0" d="M243.4,24.6h3.4v5.8c0.4-0.4,0.8-0.8,1.5-1c0.6-0.2,1.2-0.3,1.8-0.3c1.3,0,2.3,0.4,3.1,1.1
				c0.8,0.8,1.2,1.9,1.2,3.4v6.9h-3.4v-6.4c0-0.7-0.2-1.2-0.5-1.5c-0.3-0.4-0.8-0.5-1.3-0.5c-0.4,0-0.7,0.1-1,0.2
				c-0.3,0.1-0.5,0.3-0.7,0.5c-0.2,0.2-0.3,0.5-0.4,0.8c-0.1,0.3-0.1,0.6-0.1,0.9v6h-3.4V24.6z"/>
			<path class="st0" d="M263.3,39.4c-0.4,0.4-0.9,0.8-1.4,1c-0.6,0.2-1.2,0.4-1.9,0.4c-0.4,0-0.8-0.1-1.3-0.2
				c-0.4-0.1-0.8-0.3-1.2-0.6c-0.4-0.3-0.7-0.6-0.9-1.1c-0.2-0.4-0.4-1-0.4-1.7c0-0.7,0.1-1.2,0.4-1.7c0.3-0.5,0.6-0.9,1.1-1.3
				c0.5-0.3,1-0.6,1.6-0.8c0.6-0.2,1.3-0.3,2-0.3c0.4,0,0.8,0,1.2,0c0.4,0,0.7,0,0.8,0.1v-0.2c0-0.3-0.1-0.5-0.2-0.7
				c-0.1-0.2-0.3-0.4-0.5-0.5c-0.2-0.1-0.4-0.2-0.7-0.3c-0.3-0.1-0.5-0.1-0.8-0.1c-0.8,0-1.4,0.1-1.9,0.3c-0.5,0.2-0.9,0.4-1.3,0.6
				l-1.4-2.1c0.2-0.2,0.5-0.3,0.8-0.5c0.3-0.2,0.7-0.3,1.1-0.5c0.4-0.1,0.9-0.3,1.4-0.3c0.5-0.1,1.1-0.1,1.8-0.1
				c1.7,0,3,0.5,3.8,1.4c0.8,0.9,1.2,2.1,1.2,3.7v6.5h-3.2L263.3,39.4z M263.3,35.5c-0.1,0-0.2,0-0.5-0.1c-0.2,0-0.5,0-0.8,0
				c-1,0-1.6,0.1-2,0.4c-0.4,0.3-0.6,0.7-0.6,1.1c0,0.9,0.6,1.4,1.7,1.4c0.3,0,0.5,0,0.8-0.1c0.3-0.1,0.5-0.2,0.7-0.4
				c0.2-0.2,0.4-0.4,0.5-0.6c0.1-0.2,0.2-0.5,0.2-0.8V35.5z"/>
			<path class="st0" d="M269.1,29.3h3.3l0.1,1.4c0.3-0.4,0.7-0.7,1.2-1.1c0.5-0.3,1.1-0.5,1.9-0.5c0.3,0,0.6,0,0.8,0
				c0.2,0,0.4,0.1,0.6,0.2l-0.5,3c-0.3-0.1-0.8-0.2-1.2-0.2c-0.8,0-1.5,0.2-2,0.7c-0.5,0.5-0.8,1.2-0.8,2.1v5.5h-3.4V29.3z"/>
			<path class="st0" d="M278.4,29.3h3.3l0.1,1.2c0.3-0.4,0.8-0.8,1.3-1.1c0.5-0.3,1.2-0.4,1.9-0.4c0.4,0,0.8,0,1.2,0.1
				c0.3,0.1,0.7,0.2,0.9,0.4c0.3,0.2,0.5,0.3,0.7,0.5c0.2,0.2,0.4,0.4,0.5,0.5c0.5-0.5,1-0.9,1.7-1.1c0.7-0.3,1.3-0.4,2.1-0.4
				c1.4,0,2.5,0.4,3.3,1.2c0.8,0.8,1.1,1.9,1.1,3.3v6.9h-3.4v-6.4c0-0.7-0.1-1.2-0.4-1.5c-0.3-0.4-0.7-0.5-1.3-0.5
				c-0.7,0-1.2,0.2-1.6,0.7c-0.4,0.5-0.6,1-0.6,1.8v6h-3.3v-6.4c0-0.7-0.1-1.2-0.4-1.5c-0.3-0.4-0.7-0.5-1.3-0.5
				c-0.7,0-1.2,0.2-1.6,0.7c-0.4,0.5-0.6,1-0.6,1.8v6h-3.4V29.3z"/>
			<path class="st0" d="M305.5,39.4c-0.4,0.4-0.9,0.8-1.4,1c-0.6,0.2-1.2,0.4-1.9,0.4c-0.4,0-0.8-0.1-1.3-0.2
				c-0.4-0.1-0.8-0.3-1.2-0.6c-0.4-0.3-0.7-0.6-0.9-1.1c-0.2-0.4-0.4-1-0.4-1.7c0-0.7,0.1-1.2,0.4-1.7c0.3-0.5,0.6-0.9,1.1-1.3
				c0.5-0.3,1-0.6,1.6-0.8c0.6-0.2,1.3-0.3,2-0.3c0.4,0,0.8,0,1.2,0c0.4,0,0.7,0,0.8,0.1v-0.2c0-0.3-0.1-0.5-0.2-0.7
				c-0.1-0.2-0.3-0.4-0.5-0.5c-0.2-0.1-0.4-0.2-0.7-0.3c-0.3-0.1-0.5-0.1-0.8-0.1c-0.8,0-1.4,0.1-1.9,0.3c-0.5,0.2-0.9,0.4-1.3,0.6
				l-1.4-2.1c0.2-0.2,0.5-0.3,0.8-0.5c0.3-0.2,0.7-0.3,1.1-0.5c0.4-0.1,0.9-0.3,1.4-0.3c0.5-0.1,1.1-0.1,1.8-0.1
				c1.7,0,3,0.5,3.8,1.4c0.8,0.9,1.2,2.1,1.2,3.7v6.5h-3.2L305.5,39.4z M305.5,35.5c-0.1,0-0.2,0-0.5-0.1c-0.2,0-0.5,0-0.8,0
				c-1,0-1.6,0.1-2,0.4c-0.4,0.3-0.6,0.7-0.6,1.1c0,0.9,0.6,1.4,1.7,1.4c0.3,0,0.5,0,0.8-0.1c0.3-0.1,0.5-0.2,0.7-0.4
				c0.2-0.2,0.4-0.4,0.5-0.6c0.1-0.2,0.2-0.5,0.2-0.8V35.5z"/>
		</g>
	</g>
	<g>
		<g>
			<path class="st0" d="M197.1,60.1c0.2,0.3,0.5,0.5,0.8,0.8c0.3,0.3,0.7,0.5,1.1,0.7c0.4,0.2,0.8,0.4,1.3,0.5
				c0.5,0.1,1,0.2,1.5,0.2c0.3,0,0.6,0,0.9-0.1c0.3-0.1,0.6-0.2,0.8-0.4c0.3-0.2,0.5-0.4,0.6-0.6c0.2-0.2,0.2-0.5,0.2-0.8
				c0-0.7-0.3-1.2-1-1.6c-0.7-0.4-1.7-0.7-3.1-1.1c-0.7-0.2-1.3-0.4-1.9-0.7c-0.6-0.3-1.1-0.7-1.5-1.1c-0.4-0.4-0.8-0.9-1-1.5
				c-0.2-0.6-0.4-1.2-0.4-1.9c0-0.8,0.1-1.5,0.4-2.2c0.3-0.7,0.7-1.3,1.2-1.8c0.6-0.5,1.2-0.9,2.1-1.2c0.8-0.3,1.8-0.5,2.9-0.5
				c0.9,0,1.7,0.1,2.5,0.3c0.7,0.2,1.3,0.4,1.8,0.7c0.5,0.3,0.9,0.5,1.2,0.8c0.3,0.3,0.6,0.5,0.7,0.7l-2.4,2.6
				c-0.2-0.2-0.4-0.3-0.7-0.5c-0.3-0.2-0.6-0.4-0.9-0.5c-0.3-0.2-0.7-0.3-1.1-0.4c-0.4-0.1-0.8-0.2-1.2-0.2c-0.3,0-0.6,0-0.9,0.1
				c-0.3,0.1-0.5,0.2-0.8,0.4c-0.2,0.2-0.4,0.3-0.5,0.5c-0.1,0.2-0.2,0.4-0.2,0.7c0,0.6,0.3,1.1,1,1.5c0.7,0.4,1.6,0.7,2.7,1
				c0.7,0.2,1.3,0.4,2,0.7c0.6,0.3,1.2,0.7,1.7,1.1c0.5,0.5,0.9,1,1.2,1.7c0.3,0.7,0.5,1.5,0.5,2.4c0,0.8-0.2,1.6-0.5,2.3
				c-0.4,0.7-0.9,1.3-1.5,1.8c-0.6,0.5-1.4,0.9-2.2,1.2c-0.8,0.3-1.8,0.4-2.7,0.4c-0.9,0-1.7-0.1-2.5-0.3c-0.7-0.2-1.4-0.4-2-0.7
				c-0.6-0.3-1.1-0.6-1.6-1c-0.5-0.4-0.9-0.7-1.2-1.1L197.1,60.1z"/>
			<path class="st0" d="M210.4,59.1c0-0.9,0.2-1.8,0.5-2.7c0.3-0.8,0.8-1.6,1.4-2.2c0.6-0.6,1.3-1.1,2.2-1.5
				c0.8-0.4,1.8-0.5,2.8-0.5c1,0,1.9,0.2,2.8,0.5c0.8,0.4,1.6,0.8,2.2,1.5c0.6,0.6,1.1,1.3,1.4,2.2c0.3,0.8,0.5,1.7,0.5,2.7
				c0,0.9-0.2,1.8-0.5,2.7c-0.3,0.8-0.8,1.6-1.4,2.2c-0.6,0.6-1.3,1.1-2.2,1.5c-0.8,0.4-1.8,0.5-2.8,0.5c-1,0-2-0.2-2.8-0.5
				s-1.6-0.9-2.2-1.5c-0.6-0.6-1.1-1.3-1.4-2.2C210.6,60.9,210.4,60,210.4,59.1z M217.3,62.5c0.5,0,0.9-0.1,1.3-0.3
				c0.4-0.2,0.7-0.5,1-0.8s0.5-0.7,0.6-1.1c0.1-0.4,0.2-0.8,0.2-1.3c0-0.4-0.1-0.9-0.2-1.3c-0.1-0.4-0.3-0.8-0.6-1.1
				c-0.3-0.3-0.6-0.6-1-0.8c-0.4-0.2-0.8-0.3-1.3-0.3c-0.5,0-0.9,0.1-1.3,0.3c-0.4,0.2-0.7,0.4-1,0.8c-0.3,0.3-0.5,0.7-0.6,1.1
				c-0.1,0.4-0.2,0.8-0.2,1.3c0,0.4,0.1,0.9,0.2,1.3c0.1,0.4,0.3,0.8,0.6,1.1s0.6,0.6,1,0.8C216.4,62.4,216.8,62.5,217.3,62.5z"/>
			<path class="st0" d="M226.5,47.3h3.9v18.2h-3.9V47.3z"/>
			<path class="st0" d="M233.3,52.7h3.9v7.4c0,0.7,0.2,1.3,0.5,1.7c0.4,0.4,0.9,0.6,1.6,0.6c0.4,0,0.8-0.1,1.1-0.2
				c0.3-0.2,0.6-0.4,0.8-0.6c0.2-0.3,0.4-0.6,0.5-0.9c0.1-0.3,0.2-0.7,0.2-1.1v-6.9h3.9v12.8H242l-0.1-1.4c-0.4,0.5-1,0.9-1.7,1.2
				s-1.4,0.5-2.1,0.5c-1.5,0-2.6-0.4-3.5-1.3c-0.9-0.9-1.3-2.2-1.3-3.9V52.7z"/>
			<path class="st0" d="M249.6,55.8h-2v-3.1h2v-4.2h3.9v4.2h3.3v3.1h-3.3v5.1c0,0.6,0.1,1.1,0.4,1.4c0.2,0.3,0.6,0.5,1.2,0.5
				c0.4,0,0.7-0.1,1-0.2c0.3-0.1,0.6-0.3,0.8-0.5l1.6,2.4c-1.2,1-2.6,1.5-4,1.5c-0.9,0-1.7-0.1-2.3-0.4c-0.6-0.3-1.1-0.6-1.5-1.1
				c-0.4-0.5-0.7-1-0.8-1.7s-0.2-1.4-0.2-2.2V55.8z"/>
			<path class="st0" d="M260.1,47.3h4.2v3.5h-4.2V47.3z M260.2,52.7h3.9v12.8h-3.9V52.7z"/>
			<path class="st0" d="M266.6,59.1c0-0.9,0.2-1.8,0.5-2.7c0.3-0.8,0.8-1.6,1.4-2.2c0.6-0.6,1.3-1.1,2.2-1.5
				c0.8-0.4,1.8-0.5,2.8-0.5s1.9,0.2,2.8,0.5c0.8,0.4,1.6,0.8,2.2,1.5c0.6,0.6,1.1,1.3,1.4,2.2c0.3,0.8,0.5,1.7,0.5,2.7
				c0,0.9-0.2,1.8-0.5,2.7c-0.3,0.8-0.8,1.6-1.4,2.2c-0.6,0.6-1.3,1.1-2.2,1.5c-0.8,0.4-1.8,0.5-2.8,0.5s-2-0.2-2.8-0.5
				s-1.6-0.9-2.2-1.5c-0.6-0.6-1.1-1.3-1.4-2.2C266.7,60.9,266.6,60,266.6,59.1z M273.4,62.5c0.5,0,0.9-0.1,1.3-0.3
				c0.4-0.2,0.7-0.5,1-0.8s0.5-0.7,0.6-1.1c0.1-0.4,0.2-0.8,0.2-1.3c0-0.4-0.1-0.9-0.2-1.3c-0.1-0.4-0.3-0.8-0.6-1.1
				c-0.3-0.3-0.6-0.6-1-0.8c-0.4-0.2-0.8-0.3-1.3-0.3s-0.9,0.1-1.3,0.3c-0.4,0.2-0.7,0.4-1,0.8c-0.3,0.3-0.5,0.7-0.6,1.1
				c-0.1,0.4-0.2,0.8-0.2,1.3c0,0.4,0.1,0.9,0.2,1.3c0.1,0.4,0.3,0.8,0.6,1.1s0.6,0.6,1,0.8C272.5,62.4,273,62.5,273.4,62.5z"/>
			<path class="st0" d="M282.7,52.7h3.8l0.1,1.4c0.4-0.5,1-0.9,1.7-1.2c0.7-0.3,1.4-0.5,2.1-0.5c1.5,0,2.6,0.4,3.5,1.3
				c0.9,0.9,1.3,2.2,1.3,3.9v7.9h-3.9v-7.4c0-0.7-0.2-1.3-0.5-1.7c-0.4-0.4-0.9-0.6-1.5-0.6c-0.4,0-0.8,0.1-1.1,0.2
				c-0.3,0.2-0.6,0.4-0.8,0.6c-0.2,0.3-0.4,0.6-0.5,0.9c-0.1,0.3-0.2,0.7-0.2,1.1v6.9h-3.9V52.7z"/>
			<path class="st0" d="M299.3,61.6c0.4,0.4,1,0.7,1.7,1c0.7,0.3,1.3,0.4,2,0.4c0.6,0,1.1-0.1,1.4-0.2c0.4-0.1,0.6-0.4,0.6-0.8
				c0-0.2,0-0.3-0.1-0.5c-0.1-0.1-0.2-0.3-0.5-0.4c-0.2-0.1-0.5-0.2-0.9-0.4c-0.4-0.1-0.9-0.3-1.5-0.4c-0.5-0.1-1-0.3-1.5-0.5
				c-0.5-0.2-0.9-0.5-1.3-0.8c-0.4-0.3-0.7-0.7-0.9-1.1c-0.2-0.4-0.3-0.9-0.3-1.5c0-0.6,0.1-1.1,0.4-1.6c0.3-0.5,0.7-0.9,1.1-1.3
				s1.1-0.6,1.7-0.8c0.7-0.2,1.4-0.3,2.1-0.3c1.1,0,2.1,0.1,2.9,0.4c0.8,0.2,1.6,0.6,2.3,1.1l-1.7,2.6c-0.4-0.3-0.9-0.5-1.4-0.7
				c-0.5-0.2-1.1-0.3-1.8-0.3c-0.6,0-1,0.1-1.3,0.3c-0.3,0.2-0.4,0.4-0.4,0.7c0,0.4,0.3,0.7,0.8,0.9c0.6,0.2,1.3,0.4,2.3,0.7
				c1.3,0.4,2.3,0.9,2.9,1.5c0.6,0.6,0.9,1.5,0.9,2.5c0,0.7-0.2,1.3-0.5,1.8c-0.3,0.5-0.7,0.9-1.3,1.3c-0.5,0.3-1.1,0.6-1.8,0.8
				c-0.7,0.2-1.4,0.2-2.1,0.2c-1.1,0-2.2-0.2-3.3-0.5c-1-0.3-1.8-0.8-2.5-1.4L299.3,61.6z"/>
		</g>
	</g>
</g>
<g>
	<polygon class="st1" points="6,68.5 35.2,1.5 61.6,1.5 	"/>
	<polygon class="st1" points="1.9,68.5 10.5,48.7 1.9,48.7 	"/>
	<polygon class="st1" points="41.4,34.4 68.7,1.5 68.7,35 	"/>
	<polygon class="st2" points="22.1,31.4 45,68.5 68.7,68.5 	"/>
</g>
</svg>
